<svg width="95" height="95" viewBox="0 0 95 95" fill="none" xmlns="http://www.w3.org/2000/svg">
<g clip-path="url(#clip0_8_24)">
<circle cx="47.5" cy="47.5" r="45.5" stroke="white" stroke-width="4"/>
<path d="M55 28.3714C53.125 28.3714 51.625 29.8571 51.625 31.7143C51.625 33.5714 53.125 35.0571 55 35.0571C56.875 35.0571 58.375 33.5714 58.375 31.7143C58.375 29.8571 56.875 28.3714 55 28.3714ZM48.25 33.7571C47.3687 33.7571 46.5625 34.11 46 34.6857L39.0625 41.5386C38.4812 42.1143 38.125 42.8571 38.125 43.7857C38.125 44.9557 38.7437 45.94 39.7188 46.5157L46 50.2857V59.5714H49.375V47.5L45.1562 44.4357L49.5062 40.0714L52.75 44.7143H60.625V41.3714H54.625L50.9875 35.2986C50.4437 34.37 49.375 33.7571 48.25 33.7571ZM43.75 31.7143H30.625C29.5938 31.7143 28.75 30.8786 28.75 29.8571C28.75 28.8357 29.5938 28 30.625 28H48.9813C48.5875 28.6314 48.2687 29.3186 48.1 30.0614C46.4875 30.0986 44.9688 30.6929 43.75 31.7143ZM34.375 48.4286C29.2 48.4286 25 52.5886 25 57.7143C25 62.84 29.2 67 34.375 67C39.55 67 43.75 62.84 43.75 57.7143C43.75 52.5886 39.55 48.4286 34.375 48.4286ZM34.375 64.2143C30.7562 64.2143 27.8125 61.2986 27.8125 57.7143C27.8125 54.13 30.7562 51.2143 34.375 51.2143C37.9937 51.2143 40.9375 54.13 40.9375 57.7143C40.9375 61.2986 37.9937 64.2143 34.375 64.2143ZM60.625 48.4286C55.45 48.4286 51.25 52.5886 51.25 57.7143C51.25 62.84 55.45 67 60.625 67C65.8 67 70 62.84 70 57.7143C70 52.5886 65.8 48.4286 60.625 48.4286ZM60.625 64.2143C57.0062 64.2143 54.0625 61.2986 54.0625 57.7143C54.0625 54.13 57.0062 51.2143 60.625 51.2143C64.2438 51.2143 67.1875 54.13 67.1875 57.7143C67.1875 61.2986 64.2438 64.2143 60.625 64.2143ZM34.975 46.5714H26.875C25.84 46.5714 25 45.7357 25 44.7143C25 43.6929 25.84 42.8571 26.875 42.8571H34.4688C34.4313 43.1543 34.375 43.47 34.375 43.7857C34.375 44.77 34.6 45.7171 34.975 46.5714ZM36.25 39.1429H28.75C27.7188 39.1429 26.875 38.3071 26.875 37.2857C26.875 36.2643 27.7188 35.4286 28.75 35.4286H39.9437L36.4188 38.9014C36.3438 38.9757 36.25 39.0686 36.25 39.1429Z" fill="white"/>
</g>
<defs>
<clipPath id="clip0_8_24">
<rect width="95" height="95" fill="white"/>
</clipPath>
</defs>
</svg>
