<svg width="95" height="95" viewBox="0 0 95 95" fill="none" xmlns="http://www.w3.org/2000/svg">
<g clip-path="url(#clip0_8_92)">
<circle cx="47.5" cy="47.5" r="45.5" stroke="white" stroke-width="4"/>
<path d="M28.7488 68.2531C31.5461 71.6215 36.749 71.6215 47.1596 71.6215H48.838C59.2486 71.6215 64.4539 71.6215 67.2512 68.2531M28.7488 68.2531C25.9515 64.8824 26.9119 59.768 28.8303 49.5345C30.194 42.2616 30.8747 38.6227 33.4645 36.4735M67.2512 68.2531C70.0485 64.8824 69.0881 59.768 67.1697 49.5345C65.806 42.2616 65.123 38.6227 62.5331 36.4735M62.5331 36.4735C59.9456 34.3242 56.2415 34.3242 48.8404 34.3242H47.1573C39.7561 34.3242 36.0544 34.3242 33.4645 36.4735" stroke="white" stroke-width="4"/>
<path d="M41.0046 34.3243V31.9932C41.0046 30.1385 41.7414 28.3598 43.0529 27.0483C44.3644 25.7368 46.1432 25 47.9979 25C49.8526 25 51.6314 25.7368 52.9429 27.0483C54.2543 28.3598 54.9911 30.1385 54.9911 31.9932V34.3243" stroke="white" stroke-width="4" stroke-linecap="round"/>
<path d="M56.5149 60.566H39.5043V44.4301H56.5149V60.566ZM38 62H58V43H38V62Z" fill="white"/>
<path d="M48.9147 51.9261L48.718 48.4591L50.4962 51.8482L51.857 51.7821L53.2378 48.1984L53.4345 51.7004L55 51.6265L54.6789 46H52.5916L51.0622 49.7977L49.0271 46.0078H47L47.3372 52L48.9147 51.9261Z" fill="white"/>
<path d="M45.203 53.0552L45.3985 56.7623L42.5038 53.2167L41 53.2955L41.3008 59H42.7707L42.5865 55.5529L45.4023 59H47L46.6842 53L45.203 53.0552Z" fill="white"/>
<path d="M52 54.1458L52.8804 55.3071L53.636 54.7187L53.8665 59L55 58.9419V53L53.4887 53.0774L52 54.1458Z" fill="white"/>
<path d="M49.5219 55.6764C49.4123 55.6826 49.3024 55.6701 49.1992 55.6398C49.096 55.6095 49.0018 55.562 48.9227 55.5004C48.8436 55.4388 48.7813 55.3645 48.7399 55.2822C48.6985 55.1999 48.6789 55.1115 48.6823 55.0227C48.6669 54.9352 48.6747 54.846 48.7051 54.7611C48.7355 54.6762 48.7879 54.5975 48.8587 54.5302C48.9296 54.4629 49.0173 54.4085 49.116 54.3706C49.2148 54.3328 49.3223 54.3123 49.4316 54.3106C49.5425 54.3058 49.6534 54.3187 49.7581 54.3486C49.8628 54.3785 49.9591 54.4248 50.0417 54.4848C50.1243 54.5448 50.1914 54.6174 50.2393 54.6985C50.2872 54.7795 50.3149 54.8673 50.3209 54.957C50.3268 55.0467 50.3108 55.1364 50.2739 55.2211C50.2369 55.3058 50.1797 55.3838 50.1056 55.4506C50.0314 55.5174 49.9416 55.5717 49.8415 55.6105C49.7413 55.6492 49.6327 55.6716 49.5219 55.6764ZM51.9911 54.8986C51.983 54.6373 51.9093 54.3801 51.7744 54.1426C51.6325 53.9037 51.433 53.6901 51.1876 53.5145C50.9375 53.3378 50.6479 53.2014 50.3344 53.1128C50.015 53.0254 49.678 52.9882 49.3413 53.0032C49.0153 53.0094 48.6942 53.0693 48.3978 53.1792C48.1014 53.2892 47.8358 53.447 47.6173 53.6428C47.3989 53.8387 47.2321 54.0686 47.1273 54.3184C47.0224 54.5683 46.9817 54.8328 47.0076 55.0958C47.0176 55.3606 47.0939 55.6211 47.2316 55.8615C47.3694 56.102 47.5658 56.3174 47.8091 56.4948C48.0525 56.6722 48.3376 56.8079 48.6475 56.8938C48.9573 56.9798 49.2855 57.0141 49.6122 56.9948C49.9493 56.9833 50.2805 56.9188 50.5872 56.8049C50.8881 56.6938 51.1583 56.5348 51.3817 56.3374C51.6042 56.1444 51.7734 55.9154 51.8782 55.6655C51.9808 55.4189 52.0192 55.1578 51.9911 54.8986Z" fill="white"/>
<path d="M43.9962 47.4168C44.7412 47.3826 45.3667 47.7968 45.3955 48.3175C45.4244 48.8381 44.9181 49.317 44.1608 49.3512L42.424 49.431L42.3129 47.4928L43.9962 47.4168ZM42.5804 51.9278L42.5146 50.7877L44.2596 50.7079C45.8153 50.6357 47.0747 49.545 46.9965 48.2187C46.9183 46.8924 45.5149 45.9385 43.9798 46.0031L41 46.1323V52L42.5804 51.9278Z" fill="white"/>
<path d="M50.9384 58L48 58.0907L48.0616 59L51 58.9118L50.9384 58Z" fill="white"/>
</g>
<defs>
<clipPath id="clip0_8_92">
<rect width="95" height="95" fill="white"/>
</clipPath>
</defs>
</svg>
