<svg width="95" height="95" viewBox="0 0 95 95" fill="none" xmlns="http://www.w3.org/2000/svg">
<g clip-path="url(#clip0_8_70)">
<circle cx="47.5" cy="47.5" r="45.5" stroke="white" stroke-width="4"/>
<path d="M68 39.3288C67.9992 38.5494 67.7935 37.7839 67.4034 37.1091C67.0134 36.4344 66.4528 35.874 65.7778 35.4843L50.2222 26.5954C49.5466 26.2054 48.7802 26 48 26C47.2198 26 46.4534 26.2054 45.7778 26.5954L30.2222 35.4843C29.5473 35.874 28.9866 36.4344 28.5966 37.1091C28.2065 37.7839 28.0008 38.5494 28 39.3288V57.1066C28.0008 57.8859 28.2065 58.6514 28.5966 59.3262C28.9866 60.001 29.5473 60.5613 30.2222 60.951L45.7778 69.8399C46.4534 70.23 47.2198 70.4353 48 70.4353C48.7802 70.4353 49.5466 70.23 50.2222 69.8399L65.7778 60.951C66.4528 60.5613 67.0134 60.001 67.4034 59.3262C67.7935 58.6514 67.9992 57.8859 68 57.1066V39.3288Z" stroke="white" stroke-width="4" stroke-linecap="round" stroke-linejoin="round"/>
<path d="M28.6663 37.1067L47.9996 48.2178M47.9996 48.2178L67.3329 37.1067M47.9996 48.2178V70.44" stroke="white" stroke-width="4" stroke-linecap="round" stroke-linejoin="round"/>
</g>
<defs>
<clipPath id="clip0_8_70">
<rect width="95" height="95" fill="white"/>
</clipPath>
</defs>
</svg>
