<svg width="95" height="95" viewBox="0 0 95 95" fill="none" xmlns="http://www.w3.org/2000/svg">
<g clip-path="url(#clip0_8_81)">
<circle cx="47.5" cy="47.5" r="45.5" stroke="white" stroke-width="4"/>
<path d="M54.4545 29C59.3731 29 64.0902 30.9491 67.5682 34.4185C71.0461 37.8879 73 42.5935 73 47.5C73 52.4065 71.0461 57.1121 67.5682 60.5815C64.0902 64.0509 59.3731 66 54.4545 66C49.536 66 44.8189 64.0509 41.3409 60.5815C37.863 57.1121 35.9091 52.4065 35.9091 47.5C35.9091 42.5935 37.863 37.8879 41.3409 34.4185C44.8189 30.9491 49.536 29 54.4545 29ZM54.4545 33.625C50.7656 33.625 47.2278 35.0868 44.6193 37.6889C42.0109 40.291 40.5455 43.8201 40.5455 47.5C40.5455 51.1799 42.0109 54.709 44.6193 57.3111C47.2278 59.9132 50.7656 61.375 54.4545 61.375C58.1435 61.375 61.6813 59.9132 64.2898 57.3111C66.8982 54.709 68.3636 51.1799 68.3636 47.5C68.3636 43.8201 66.8982 40.291 64.2898 37.6889C61.6813 35.0868 58.1435 33.625 54.4545 33.625ZM52.1364 38.25H55.6136V46.9912L61.015 52.3794L58.5577 54.8306L52.1364 48.425V38.25ZM24.3182 61.375C23.7034 61.375 23.1137 61.1314 22.679 60.6977C22.2442 60.264 22 59.6758 22 59.0625C22 58.4492 22.2442 57.861 22.679 57.4273C23.1137 56.9936 23.7034 56.75 24.3182 56.75H33.1968C33.9155 58.3919 34.8427 59.9412 35.9091 61.375H24.3182ZM26.6364 49.8125C26.0215 49.8125 25.4319 49.5689 24.9972 49.1352C24.5624 48.7015 24.3182 48.1133 24.3182 47.5C24.3182 46.8867 24.5624 46.2985 24.9972 45.8648C25.4319 45.4311 26.0215 45.1875 26.6364 45.1875H31.3886L31.2727 47.5L31.3886 49.8125H26.6364ZM28.9545 38.25C28.3397 38.25 27.7501 38.0064 27.3153 37.5727C26.8806 37.139 26.6364 36.5508 26.6364 35.9375C26.6364 35.3242 26.8806 34.736 27.3153 34.3023C27.7501 33.8686 28.3397 33.625 28.9545 33.625H35.9091C34.8427 35.0588 33.9155 36.6081 33.1968 38.25H28.9545Z" fill="white"/>
</g>
<defs>
<clipPath id="clip0_8_81">
<rect width="95" height="95" fill="white"/>
</clipPath>
</defs>
</svg>
