<svg width="95" height="95" viewBox="0 0 95 95" fill="none" xmlns="http://www.w3.org/2000/svg">
<g clip-path="url(#clip0_8_36)">
<circle cx="47.5" cy="47.5" r="45.5" stroke="white" stroke-width="4"/>
<path fill-rule="evenodd" clip-rule="evenodd" d="M38.4 26.7812H57.6C58.0243 26.7812 58.4313 26.9492 58.7314 27.248C59.0314 27.5469 59.2 27.9523 59.2 28.375V66.625C59.2 67.0477 59.0314 67.4531 58.7314 67.752C58.4313 68.0508 58.0243 68.2188 57.6 68.2188H38.4C37.9757 68.2188 37.5687 68.0508 37.2686 67.752C36.9686 67.4531 36.8 67.0477 36.8 66.625V28.375C36.8 27.9523 36.9686 27.5469 37.2686 27.248C37.5687 26.9492 37.9757 26.7812 38.4 26.7812ZM32 28.375C32 26.6842 32.6743 25.0627 33.8745 23.8672C35.0747 22.6716 36.7026 22 38.4 22H57.6C59.2974 22 60.9252 22.6716 62.1255 23.8672C63.3257 25.0627 64 26.6842 64 28.375V66.625C64 68.3158 63.3257 69.9373 62.1255 71.1328C60.9252 72.3284 59.2974 73 57.6 73H38.4C36.7026 73 35.0747 72.3284 33.8745 71.1328C32.6743 69.9373 32 68.3158 32 66.625V28.375ZM48 63.4375C48.8487 63.4375 49.6626 63.1017 50.2627 62.5039C50.8629 61.9061 51.2 61.0954 51.2 60.25C51.2 59.4046 50.8629 58.5939 50.2627 57.9961C49.6626 57.3983 48.8487 57.0625 48 57.0625C47.1513 57.0625 46.3374 57.3983 45.7373 57.9961C45.1371 58.5939 44.8 59.4046 44.8 60.25C44.8 61.0954 45.1371 61.9061 45.7373 62.5039C46.3374 63.1017 47.1513 63.4375 48 63.4375Z" fill="white"/>
</g>
<defs>
<clipPath id="clip0_8_36">
<rect width="95" height="95" fill="white"/>
</clipPath>
</defs>
</svg>
