<svg width="335" height="66" viewBox="0 0 335 66" fill="none" xmlns="http://www.w3.org/2000/svg">
<g clip-path="url(#clip0_11622_50092)">
<path d="M99.801 62.6077C99.4122 63.3138 98.8315 63.895 98.126 64.2841C97.4173 64.6948 96.6103 64.9047 95.7915 64.8913C94.994 64.8948 94.2088 64.6949 93.5099 64.3105C92.8258 63.9269 92.2532 63.372 91.848 62.7001C91.4547 62.0428 91.2536 61.2882 91.2677 60.5221C91.2814 59.755 91.5049 59.0062 91.914 58.3573C92.3304 57.6745 92.9287 57.1214 93.6417 56.7601C94.3507 56.3949 95.1397 56.2133 95.9369 56.2317C96.734 56.2502 97.5138 56.4681 98.2051 56.8657C98.8796 57.2657 99.4386 57.8343 99.8274 58.5157L98.0073 59.4265C97.7404 58.9519 97.3226 58.5802 96.8203 58.3705C96.3138 58.1608 95.7546 58.1142 95.2204 58.2372C94.6862 58.3602 94.2036 58.6467 93.8396 59.0569C93.4986 59.4689 93.312 59.9871 93.312 60.5221C93.312 61.0571 93.4986 61.5753 93.8396 61.9873C94.179 62.4013 94.6407 62.697 95.1585 62.8321C95.6968 62.9533 96.2596 62.9026 96.7675 62.6869C97.2707 62.4721 97.6883 62.096 97.9545 61.6177L99.801 62.6077Z" fill="#E94F35"/>
<path d="M106.541 62.6733C106.622 62.6748 106.703 62.6591 106.778 62.6273C106.853 62.5954 106.92 62.5482 106.976 62.4885C107.034 62.435 107.081 62.3697 107.113 62.2969C107.145 62.2242 107.161 62.1455 107.16 62.0661C107.157 61.9051 107.096 61.7505 106.989 61.6305C106.93 61.5717 106.86 61.5251 106.783 61.4934C106.706 61.4617 106.624 61.4455 106.541 61.4457H103.903V62.6733H106.541ZM106.33 59.6901C106.407 59.7097 106.489 59.7097 106.567 59.6901C106.644 59.6588 106.716 59.6142 106.778 59.5581C106.833 59.5024 106.882 59.4404 106.923 59.3733C106.936 59.299 106.936 59.2232 106.923 59.1489C106.929 59.0649 106.916 58.9805 106.884 58.9026C106.852 58.8247 106.802 58.7554 106.738 58.7001C106.618 58.5821 106.458 58.5118 106.29 58.5021H103.942V59.7165L106.33 59.6901ZM101.885 56.5353H106.395C107.088 56.5277 107.756 56.7932 108.255 57.2745C108.499 57.5003 108.694 57.7739 108.828 58.0781C108.961 58.3824 109.031 58.7109 109.033 59.0433C109.043 59.3217 108.984 59.5982 108.862 59.8485C108.751 60.1059 108.579 60.3324 108.361 60.5085C108.628 60.6876 108.849 60.9273 109.007 61.2081C109.148 61.4908 109.22 61.8029 109.218 62.1189C109.204 62.7925 108.924 63.4333 108.44 63.9009C107.933 64.368 107.269 64.6272 106.58 64.6269H101.885V56.5353Z" fill="#E94F35"/>
<path d="M111.552 56.5352H118.49V58.4492H113.61V59.5976H117.092V61.4984H113.61V62.6996H118.49V64.6796H111.552V56.5352Z" fill="#E94F35"/>
<path d="M133.868 64.6796H131.375L129.252 61.5644H128.17V64.6796H126.06V61.5644H124.992L122.816 64.6796H120.31L123.225 60.6272L120.31 56.588H122.816L125.005 59.6504H126.06V56.5352H128.118V59.5976H129.173L131.375 56.5352H133.868L130.953 60.5744L133.868 64.6796Z" fill="#E94F35"/>
<path d="M141.201 61.934L139.882 58.9376L138.563 61.934H141.201ZM138.959 56.5352H140.871L144.657 64.6796H142.441L142.032 63.8348H137.838L137.469 64.6796H135.253L138.959 56.5352Z" fill="#E94F35"/>
<path d="M151.752 61.1558V58.5158H149.919C149.512 58.4868 149.108 58.609 148.785 58.859C148.471 59.1071 148.263 59.466 148.205 59.8622C148.216 60.0564 148.27 60.2457 148.363 60.4166C148.457 60.592 148.587 60.745 148.745 60.8654C148.899 60.9978 149.079 61.0966 149.273 61.1558C149.469 61.189 149.67 61.189 149.866 61.1558H151.752ZM147.69 62.4758C147.224 62.2023 146.837 61.8108 146.569 61.3406C146.298 60.8811 146.157 60.3564 146.16 59.8226C146.177 59.3751 146.285 58.9356 146.477 58.5315C146.67 58.1273 146.944 57.7671 147.281 57.473C147.985 56.8595 148.894 56.5342 149.827 56.5622H153.783V64.6802H151.752V63.0698H149.748L148.6 64.6802H146.094L147.69 62.4758Z" fill="#E94F35"/>
<path d="M167.118 61.1565C167.314 61.1898 167.515 61.1898 167.711 61.1565C167.905 61.0974 168.085 60.9985 168.239 60.8661C168.397 60.7457 168.527 60.5927 168.621 60.4173C168.707 60.2438 168.761 60.0559 168.779 59.8629C168.723 59.4658 168.515 59.106 168.199 58.8597C167.871 58.6088 167.463 58.4868 167.052 58.5165H165.258V61.1565H167.118ZM163.161 56.5365H167.118C167.59 56.4947 168.067 56.5532 168.516 56.7081C168.961 56.855 169.373 57.0883 169.729 57.3945C170.074 57.6999 170.352 58.0728 170.547 58.4901C170.74 58.9033 170.84 59.354 170.84 59.8101C170.84 60.2663 170.74 60.7169 170.547 61.1301C170.348 61.5454 170.071 61.9177 169.729 62.2257C169.373 62.532 168.961 62.7652 168.516 62.9121C168.065 63.0606 167.59 63.1189 167.118 63.0837H165.258V64.6809H163.2L163.161 56.5365Z" fill="#E94F35"/>
<path d="M182.865 56.5352H180.821V64.6796H182.865V56.5352ZM176.917 62.6996C177.215 62.7172 177.509 62.6178 177.735 62.4224C177.846 62.3317 177.939 62.2196 178.007 62.0927C178.075 61.9657 178.117 61.8265 178.13 61.6832C178.122 61.5412 178.086 61.4023 178.025 61.274C177.969 61.1416 177.883 61.0241 177.774 60.9308C177.668 60.8242 177.536 60.7469 177.392 60.7064C177.253 60.6524 177.105 60.6298 176.956 60.6404H175.018V62.6996H176.917ZM172.96 56.5352H175.018V58.7264H176.956C177.771 58.7253 178.555 59.0372 179.146 59.5976C179.43 59.8642 179.656 60.1863 179.811 60.5438C179.965 60.9014 180.045 61.2869 180.045 61.6766C180.045 62.0662 179.965 62.4517 179.811 62.8093C179.656 63.1669 179.43 63.4889 179.146 63.7556C178.555 64.3159 177.771 64.6278 176.956 64.6268H173L172.96 56.5352Z" fill="#E94F35"/>
<path d="M189.921 62.6996C190.033 62.7029 190.145 62.6836 190.249 62.6427C190.353 62.6019 190.448 62.5404 190.528 62.462C190.61 62.3918 190.676 62.3049 190.722 62.2069C190.767 62.109 190.791 62.0024 190.792 61.8944C190.789 61.6814 190.704 61.4778 190.554 61.3268C190.386 61.1784 190.172 61.0943 189.948 61.0892H187.574V62.6996H189.921ZM185.516 56.5352H192.308V58.4492H187.574V59.2544H189.921C190.302 59.2382 190.683 59.2965 191.042 59.426C191.391 59.56 191.709 59.7619 191.979 60.02C192.246 60.2702 192.461 60.5708 192.612 60.9044C192.754 61.2381 192.826 61.5976 192.823 61.9604C192.799 62.6825 192.491 63.3659 191.966 63.8612C191.695 64.1047 191.382 64.2971 191.042 64.4288C190.692 64.5592 190.321 64.6262 189.948 64.6268H185.516V56.5352Z" fill="#E94F35"/>
<path d="M200.261 61.934L198.943 58.9376L197.624 61.934H200.261ZM198.006 56.5352H199.932L203.704 64.6796H201.462L201.053 63.8348H196.872L196.516 64.6796H194.274L198.006 56.5352Z" fill="#E94F35"/>
<path d="M212.343 56.5352H214.387V59.5976H215.706L217.908 56.5352H220.414L217.499 60.5744L220.414 64.6796H217.908L215.732 61.6172H214.413V64.6796H212.343V56.5352Z" fill="#E94F35"/>
<path d="M227.747 61.934L226.428 58.9376L225.109 61.934H227.747ZM225.532 56.5352H227.47L231.216 64.6796H228.974L228.565 63.8348H224.358L223.988 64.6796H221.746L225.532 56.5352Z" fill="#E94F35"/>
<path d="M246.067 64.6796H243.574L241.358 61.5644H240.264V64.6796H238.206V61.5644H237.138L235.014 64.6796H232.522L235.423 60.6272L232.522 56.588H235.014L237.217 59.6504H238.259V56.5352H240.316V59.5976H241.358L243.548 56.5352H246.04L243.139 60.5744L246.067 64.6796Z" fill="#E94F35"/>
<path d="M250.591 62.6732H253.967V58.4492H251.382C251.433 59.8824 251.143 61.3073 250.538 62.6072L250.591 62.6732ZM247.676 62.6732H248.441C249.122 61.3975 249.441 59.9595 249.364 58.5152V56.5352H256.024V62.6732H257.04V65.9996H254.982V64.6796H249.773V65.9996H247.715L247.676 62.6732Z" fill="#E94F35"/>
<path d="M268.976 56.5352H266.918V64.6796H268.976V56.5352ZM263.015 62.6996C263.317 62.7152 263.613 62.6162 263.845 62.4224C263.957 62.3317 264.05 62.2196 264.118 62.0927C264.186 61.9657 264.228 61.8265 264.241 61.6832C264.233 61.5412 264.197 61.4023 264.136 61.274C264.072 61.1389 263.982 61.0178 263.872 60.9176C263.762 60.8195 263.631 60.7473 263.489 60.7064C263.351 60.6515 263.202 60.6289 263.054 60.6404H261.142V62.6996H263.015ZM259.058 56.5352H261.142V58.7264H263.081C263.895 58.7253 264.679 59.0372 265.27 59.5976C265.557 59.8621 265.787 60.1835 265.944 60.5414C266.1 60.8992 266.182 61.2858 266.182 61.6766C266.182 62.0674 266.1 62.4539 265.944 62.8118C265.787 63.1696 265.557 63.491 265.27 63.7556C264.679 64.3159 263.895 64.6278 263.081 64.6268H259.124L259.058 56.5352Z" fill="#E94F35"/>
<path d="M274.186 53.6836C274.436 54.1588 275.082 54.9376 275.65 54.9376C276.217 54.9376 276.969 53.9608 277.1 53.6968L278.485 54.3436C278.234 54.9063 277.84 55.3936 277.343 55.7571C276.845 56.1206 276.262 56.3477 275.65 56.416C275.042 56.338 274.465 56.1086 273.969 55.7488C273.474 55.389 273.076 54.9103 272.814 54.3568L274.186 53.6836ZM271.693 56.5348H273.737V61.6564L277.694 56.5348H279.804V64.6792H277.628V59.5048L273.79 64.6792H271.693V56.5348Z" fill="#E94F35"/>
<path d="M291.476 62.6732H294.853V58.4492H292.32C292.371 59.8824 292.082 61.3073 291.476 62.6072V62.6732ZM288.562 62.6732H289.327C290.007 61.397 290.331 59.9603 290.263 58.5152V56.5352H296.857V62.6732H297.873V65.9996H295.802V64.6796H290.527V65.9996H288.482L288.562 62.6732Z" fill="#E94F35"/>
<path d="M299.97 56.5352H306.907V58.4492H302.028V59.5976H305.523V61.4984H302.028V62.6996H306.921V64.6796H299.983L299.97 56.5352Z" fill="#E94F35"/>
<path d="M309.255 56.5352H311.26V59.5976H315.045V56.5352H317.089V64.6796H315.045V61.5248H311.26V64.6796H309.202L309.255 56.5352Z" fill="#E94F35"/>
<path d="M323.855 62.6996C324.155 62.7164 324.451 62.6224 324.686 62.4356C324.917 62.2474 325.068 61.9785 325.108 61.6832C325.097 61.5401 325.056 61.4009 324.99 61.274C324.931 61.1362 324.84 61.0142 324.726 60.9176C324.616 60.8195 324.485 60.7473 324.343 60.7064C324.201 60.6513 324.047 60.6287 323.895 60.6404H321.811V62.6996H323.855ZM319.806 56.5352H321.811V58.7264H323.842C324.657 58.724 325.441 59.036 326.031 59.5976C326.319 59.8621 326.548 60.1835 326.705 60.5414C326.862 60.8992 326.943 61.2858 326.943 61.6766C326.943 62.0674 326.862 62.4539 326.705 62.8118C326.548 63.1696 326.319 63.491 326.031 63.7556C325.441 64.3171 324.657 64.6291 323.842 64.6268H319.727L319.806 56.5352Z" fill="#E94F35"/>
<path d="M91.2413 28.5508H97.7567L103.824 41.9752L109.917 28.5508H116.393V48.8392H111.262V36.9592L106.066 48.8392H101.555L96.3587 37.0648V48.8392H91.215L91.2413 28.5508Z" fill="white"/>
<path d="M127.788 28.5254H132.562L142.032 48.8402H136.427L135.398 46.7282H124.847L123.976 48.8402H118.371L127.788 28.5254ZM133.407 42.0422L130.175 34.5314L126.983 42.0554L133.407 42.0422Z" fill="white"/>
<path d="M144.01 28.5508H149.141V36.1936H152.636V28.5508H157.78V48.8392H152.636V41.038H149.141V48.8392H144.01V28.5508Z" fill="white"/>
<path d="M167.817 43.5592L160.048 28.5508H165.838L170.652 38.1076L175.611 28.5508H181.322L170.837 48.8392H165.034L167.817 43.5592Z" fill="white"/>
<path d="M191.596 46.9788C185.569 46.1868 181.678 42.5964 181.678 37.5672C181.678 31.878 186.73 27.8652 194.142 27.8652C201.554 27.8652 206.619 31.8252 206.619 37.5672C206.619 42.57 202.741 46.1868 196.7 46.9788V48.84H191.596V46.9788ZM191.596 32.8152C188.84 33.3564 186.611 34.8348 186.611 37.5672C186.611 40.2996 188.84 41.6592 191.596 42.174V32.8152ZM196.7 42.24C199.338 41.7252 201.686 40.3656 201.686 37.6332C201.686 34.9008 199.378 33.4224 196.7 32.8812V42.24Z" fill="white"/>
<path d="M215.706 28.5254H220.52L229.989 48.8402H224.358L223.342 46.7282H212.791L211.868 48.8402H206.249L215.706 28.5254ZM221.324 42.0422L218.093 34.5314L214.901 42.0554L221.324 42.0422Z" fill="white"/>
<path d="M231.928 28.5508H237.072V36.2332H240.422L245.908 28.5508H252.16L244.867 38.6488L252.16 48.8392H245.908L240.448 41.1568H237.072V48.8392H231.928V28.5508Z" fill="white"/>
<path d="M260.786 33.382H253.505V28.5508H273.157V33.382H265.929V48.8392H260.786V33.382Z" fill="white"/>
<path d="M282.007 43.5592L274.238 28.5508H280.028L284.882 38.1076L289.854 28.5508H295.565L285.014 48.8392H279.224L282.007 43.5592Z" fill="white"/>
<path d="M297.622 28.5254H303.267C308.2 28.5254 312.5 32.0498 312.5 36.6962C312.5 41.3426 308.253 44.8802 303.267 44.8802H302.727V48.8402H297.596L297.622 28.5254ZM303.215 40.0754C304.201 40.1535 305.179 39.8446 305.942 39.2139C306.705 38.5833 307.193 37.6804 307.303 36.6962C307.303 34.901 305.404 33.3302 303.004 33.3302H302.674V40.0754H303.215Z" fill="white"/>
<path d="M320.743 28.5254H325.53L335 48.8402H329.382L328.406 46.7018H317.854L316.931 48.8006H311.313L320.743 28.5254ZM326.361 42.0422L323.13 34.5314L319.925 42.0554L326.361 42.0422Z" fill="white"/>
<path d="M91.2413 0H107.741C112.673 0 116.973 3.5244 116.973 8.1576C116.973 12.7908 112.739 16.3548 107.741 16.3548H96.385V20.2488H91.2413V0ZM107.688 11.55C108.687 11.6426 109.682 11.3389 110.459 10.7044C111.236 10.0699 111.733 9.15528 111.843 8.1576C111.843 6.3756 109.93 4.8048 107.543 4.8048H96.385V11.55H107.688Z" fill="white"/>
<path d="M119.703 0H124.834V5.4912H129.674C130.721 5.46405 131.763 5.63421 132.747 5.9928C133.721 6.34303 134.618 6.8812 135.385 7.5768C136.141 8.25317 136.748 9.08051 137.165 10.0056C137.582 10.9176 137.802 11.907 137.812 12.9096C137.785 13.9095 137.555 14.8935 137.136 15.8014C136.716 16.7093 136.116 17.5219 135.372 18.1896C133.829 19.5688 131.821 20.3097 129.753 20.262H119.703V0ZM129.595 15.444C130.351 15.4873 131.096 15.242 131.679 14.7576C132.244 14.2886 132.599 13.6145 132.668 12.8832C132.651 12.5355 132.566 12.1946 132.417 11.88C132.265 11.5405 132.04 11.2386 131.758 10.9956C131.181 10.4981 130.434 10.2427 129.674 10.2828H124.834V15.4572L129.595 15.444ZM144.498 0H139.355V20.2488H144.498V0Z" fill="white"/>
<path d="M148.442 0H165.443V4.8048H153.572V6.8244H159.468C160.406 6.78625 161.343 6.93429 162.224 7.26C163.114 7.57146 163.931 8.06102 164.625 8.6988C165.299 9.31789 165.837 10.0707 166.205 10.9092C166.573 11.7478 166.762 12.6538 166.761 13.5696C166.746 14.4653 166.549 15.3486 166.182 16.1656C165.814 16.9825 165.285 17.7161 164.625 18.3216C163.255 19.5871 161.451 20.277 159.587 20.2488H148.416L148.442 0ZM159.468 15.444C160.03 15.4459 160.573 15.2335 160.985 14.85C161.185 14.6705 161.345 14.4507 161.455 14.2051C161.564 13.9595 161.621 13.6934 161.621 13.4244C161.621 13.1554 161.564 12.8893 161.455 12.6437C161.345 12.3981 161.185 12.1783 160.985 11.9988C160.606 11.6382 160.109 11.4272 159.587 11.4048H153.638V15.444H159.468Z" fill="white"/>
<path d="M207.885 0L198.468 20.2488H204.086L205.009 18.15H215.495L216.523 20.2488H222.142L212.659 0H207.885ZM210.272 5.9928L213.503 13.5036H207.067L210.272 5.9928Z" fill="white"/>
<path d="M227.035 14.8236C225.866 14.125 224.894 13.1391 224.213 11.9592C223.541 10.8049 223.186 9.49341 223.184 8.1576C223.184 3.5244 227.47 0 232.416 0H251.118V20.2488H245.988V16.3548H232.126L229.264 20.2488H222.986L227.035 14.8236ZM246.014 11.55V4.8048H232.614C230.227 4.8048 228.314 6.402 228.314 8.1576C228.427 9.15389 228.925 10.0664 229.702 10.7003C230.478 11.3342 231.471 11.6391 232.469 11.55H246.014Z" fill="white"/>
<path d="M191.372 0V7.128C190.773 7.37517 190.143 7.53949 189.499 7.6164C188.857 7.70635 188.209 7.75046 187.56 7.7484C185.958 7.73525 184.359 7.61619 182.773 7.392C181.324 7.16357 179.861 7.04005 178.394 7.0224C177.182 6.99648 175.977 7.20721 174.846 7.6428V0H169.716V20.2488H174.846V12.6456C175.444 12.4339 176.063 12.2879 176.693 12.21C177.336 12.1266 177.983 12.0825 178.631 12.078C180.128 12.0865 181.622 12.2012 183.103 12.4212C184.657 12.6497 186.227 12.76 187.798 12.7512C188.407 12.7647 189.016 12.7249 189.618 12.6324C190.222 12.5507 190.812 12.3864 191.372 12.144V20.2488H196.516V0H191.372Z" fill="white"/>
<path d="M63.3071 60.1524H5.1437V4.8972H63.3071V60.1524ZM0 65.0628H68.3848V0H0V65.0628Z" fill="#E94F35"/>
<path d="M37.9447 29.9102L37.2984 18.149L43.1412 29.6462L47.6122 29.4218L52.1492 17.2646L52.7955 29.1446L57.9392 28.8938L56.8841 9.80664H50.0258L45.0008 22.6898L38.314 9.83304H31.6536L32.7614 30.161L37.9447 29.9102Z" fill="#E94F35"/>
<path d="M25.2569 35.4153L25.9427 47.8365L15.7872 35.9565L10.5116 36.2205L11.5667 55.3341H16.7236L16.0773 43.7841L25.9559 55.3341H31.5612L30.4533 35.2305L25.2569 35.4153Z" fill="#E94F35"/>
<path d="M47.6122 37.6865L50.6852 41.6465L53.323 39.6401L54.1275 54.2393L58.0842 54.0413V33.7793L52.8086 34.0433L47.6122 37.6865Z" fill="#E94F35"/>
<path d="M39.6592 43.7308C39.3392 43.7531 39.018 43.708 38.7165 43.5984C38.4149 43.4888 38.1397 43.3171 37.9085 43.0944C37.6774 42.8718 37.4954 42.6031 37.3744 42.3057C37.2535 42.0084 37.1961 41.6889 37.2061 41.368C37.1612 41.0516 37.184 40.7293 37.2729 40.4224C37.3618 40.1155 37.5147 39.8309 37.7217 39.5876C37.9287 39.3443 38.1849 39.1477 38.4734 39.0109C38.762 38.8741 39.0762 38.8001 39.3955 38.794C39.7194 38.7766 40.0435 38.8233 40.3493 38.9314C40.6552 39.0394 40.9368 39.2067 41.1781 39.4236C41.4193 39.6406 41.6155 39.903 41.7555 40.1958C41.8954 40.4886 41.9764 40.8062 41.9937 41.1304C42.011 41.4545 41.9644 41.7789 41.8564 42.085C41.7485 42.3911 41.5814 42.673 41.3646 42.9145C41.1478 43.1559 40.8856 43.3523 40.593 43.4924C40.3004 43.6324 39.9831 43.7134 39.6592 43.7308ZM46.8736 40.9192C46.8502 39.9748 46.6348 39.0451 46.2405 38.1868C45.8261 37.3231 45.2431 36.5511 44.526 35.9164C43.7953 35.2775 42.9492 34.7846 42.0333 34.4644C41.1001 34.1485 40.1153 34.0141 39.1317 34.0684C38.1791 34.0905 37.241 34.307 36.3749 34.7045C35.5088 35.102 34.7329 35.6722 34.0946 36.3803C33.4563 37.0883 32.969 37.9192 32.6627 38.8223C32.3564 39.7253 32.2374 40.6813 32.313 41.632C32.3425 42.5894 32.5651 43.5309 32.9676 44.3999C33.3701 45.2689 33.9441 46.0475 34.655 46.6887C35.3659 47.3299 36.1991 47.8206 37.1045 48.1312C38.0098 48.4418 38.9685 48.5659 39.923 48.496C40.9081 48.4544 41.8757 48.2212 42.7718 47.8096C43.651 47.408 44.4405 46.8334 45.0931 46.12C45.7432 45.4224 46.2377 44.5945 46.5439 43.6912C46.8435 42.7998 46.9557 41.856 46.8736 40.9192Z" fill="#E94F35"/>
<path d="M19.9022 15.3645C22.2894 15.2457 24.2941 16.6845 24.3864 18.4929C24.4787 20.3013 22.8565 21.9645 20.4297 22.0833L14.864 22.3605L14.5079 15.6285L19.9022 15.3645ZM15.3652 31.0329L15.1541 27.0729L20.7463 26.7957C25.7317 26.5449 29.7675 22.7565 29.5169 18.1497C29.2663 13.5429 24.7689 10.2297 19.8494 10.4541L10.3006 10.9029V31.2837L15.3652 31.0329Z" fill="#E94F35"/>
<path d="M44.8425 49.9355L35.4124 50.4107L35.6102 55.1759L45.0404 54.7139L44.8425 49.9355Z" fill="#E94F35"/>
</g>
<defs>
<clipPath id="clip0_11622_50092">
<rect width="335" height="66" fill="white"/>
</clipPath>
</defs>
</svg>
