<svg width="193" height="38" viewBox="0 0 193 38" fill="none" xmlns="http://www.w3.org/2000/svg">
<g clip-path="url(#clip0_11982_43727)">
<path d="M57.4947 36.0467C57.2707 36.4533 56.9361 36.7879 56.5297 37.0119C56.1214 37.2484 55.6565 37.3693 55.1848 37.3615C54.7253 37.3636 54.2729 37.2485 53.8703 37.0271C53.4762 36.8063 53.1463 36.4868 52.9129 36.0999C52.6862 35.7215 52.5704 35.287 52.5785 34.8459C52.5864 34.4043 52.7152 33.9732 52.9509 33.5995C53.1907 33.2064 53.5354 32.888 53.9462 32.6799C54.3547 32.4697 54.8093 32.3651 55.2685 32.3757C55.7277 32.3864 56.177 32.5118 56.5753 32.7407C56.9639 32.9711 57.2859 33.2984 57.5099 33.6907L56.4613 34.2151C56.3075 33.9419 56.0668 33.7279 55.7775 33.6071C55.4857 33.4864 55.1635 33.4596 54.8557 33.5304C54.548 33.6012 54.2699 33.7662 54.0602 34.0023C53.8638 34.2396 53.7563 34.5379 53.7563 34.8459C53.7563 35.154 53.8638 35.4523 54.0602 35.6895C54.2558 35.9279 54.5218 36.0982 54.8201 36.1759C55.1302 36.2457 55.4544 36.2165 55.7471 36.0923C56.037 35.9687 56.2775 35.7521 56.4309 35.4767L57.4947 36.0467Z" fill="#E94F35"/>
<path d="M61.3776 36.0849C61.4245 36.0857 61.4711 36.0767 61.5143 36.0584C61.5575 36.04 61.5963 36.0128 61.6283 35.9785C61.6621 35.9476 61.689 35.9101 61.7073 35.8682C61.7256 35.8263 61.7349 35.781 61.7347 35.7353C61.7328 35.6425 61.6978 35.5536 61.6359 35.4845C61.6019 35.4506 61.5616 35.4238 61.5173 35.4055C61.473 35.3873 61.4255 35.378 61.3776 35.3781H59.8579V36.0849H61.3776ZM61.256 34.3673C61.3009 34.3785 61.3479 34.3785 61.3928 34.3673C61.4374 34.3493 61.4786 34.3235 61.5143 34.2913C61.5463 34.2592 61.5743 34.2235 61.5979 34.1849C61.6051 34.1421 61.6051 34.0984 61.5979 34.0557C61.6015 34.0073 61.5938 33.9587 61.5753 33.9139C61.5568 33.869 61.5282 33.8291 61.4915 33.7973C61.422 33.7293 61.3302 33.6888 61.2332 33.6833H59.8807V34.3825L61.256 34.3673ZM58.6953 32.5509H61.294C61.6931 32.5465 62.078 32.6994 62.3654 32.9765C62.5058 33.1065 62.618 33.264 62.6951 33.4391C62.7723 33.6143 62.8126 33.8035 62.8137 33.9949C62.8191 34.1552 62.7852 34.3143 62.7149 34.4585C62.6509 34.6067 62.5518 34.7371 62.4261 34.8385C62.5802 34.9416 62.7078 35.0796 62.7985 35.2413C62.8797 35.4041 62.9214 35.5837 62.92 35.7657C62.9121 36.1535 62.7509 36.5224 62.4717 36.7917C62.1798 37.0606 61.7973 37.2098 61.4004 37.2097H58.6953V32.5509Z" fill="#E94F35"/>
<path d="M64.2656 32.5508H68.2624V33.6528H65.451V34.314H67.457V35.4084H65.451V36.1H68.2624V37.24H64.2656V32.5508Z" fill="#E94F35"/>
<path d="M77.1237 37.24H75.6876L74.4642 35.4464H73.8412V37.24H72.6254V35.4464H72.0099L70.7562 37.24H69.3125L70.9918 34.9068L69.3125 32.5812H70.7562L72.0175 34.3444H72.6254V32.5508H73.8108V34.314H74.4186L75.6876 32.5508H77.1237L75.4444 34.8764L77.1237 37.24Z" fill="#E94F35"/>
<path d="M81.3488 35.6592L80.5889 33.934L79.8291 35.6592H81.3488ZM80.057 32.5508H81.1588L83.3396 37.24H82.063L81.8275 36.7536H79.4112L79.1984 37.24H77.9219L80.057 32.5508Z" fill="#E94F35"/>
<path d="M87.4316 35.2112V33.6912H86.3754C86.1407 33.6745 85.9081 33.7448 85.722 33.8888C85.541 34.0316 85.4214 34.2383 85.3876 34.4664C85.3941 34.5782 85.4253 34.6872 85.4788 34.7856C85.5329 34.8865 85.608 34.9747 85.6992 35.044C85.7878 35.1202 85.8913 35.1771 86.0031 35.2112C86.1163 35.2303 86.2319 35.2303 86.345 35.2112H87.4316ZM85.0913 35.9712C84.8225 35.8137 84.5997 35.5883 84.4454 35.3176C84.2891 35.053 84.2077 34.7509 84.2099 34.4436C84.2193 34.1859 84.2815 33.9329 84.3925 33.7002C84.5036 33.4675 84.6613 33.2601 84.8557 33.0908C85.2611 32.7375 85.7848 32.5503 86.3222 32.5664H88.6018V37.2404H87.4316V36.3132H86.2766L85.6156 37.2404H84.1719L85.0913 35.9712Z" fill="#E94F35"/>
<path d="M96.2795 35.2105C96.3927 35.2296 96.5083 35.2296 96.6215 35.2105C96.7333 35.1764 96.8368 35.1195 96.9254 35.0433C97.0165 34.974 97.0917 34.8859 97.1457 34.7849C97.1954 34.685 97.2263 34.5768 97.2369 34.4657C97.2047 34.2371 97.0848 34.0299 96.9026 33.8881C96.7138 33.7437 96.4786 33.6734 96.2415 33.6905H95.2082V35.2105H96.2795ZM94 32.5505H96.2795C96.552 32.5264 96.8264 32.5601 97.085 32.6493C97.3416 32.7339 97.5792 32.8682 97.784 33.0445C97.9826 33.2203 98.1429 33.435 98.2551 33.6753C98.3664 33.9132 98.4241 34.1727 98.4241 34.4353C98.4241 34.698 98.3664 34.9574 98.2551 35.1953C98.1409 35.4344 97.9809 35.6488 97.784 35.8261C97.5792 36.0025 97.3416 36.1367 97.085 36.2213C96.8256 36.3068 96.5519 36.3403 96.2795 36.3201H95.2082V37.2397H94.0228L94 32.5505Z" fill="#E94F35"/>
<path d="M105.355 32.5508H104.177V37.24H105.355V32.5508ZM101.928 36.1C102.1 36.1102 102.269 36.0529 102.399 35.9404C102.463 35.8882 102.517 35.8236 102.556 35.7506C102.595 35.6775 102.619 35.5973 102.627 35.5148C102.622 35.4331 102.601 35.3531 102.566 35.2792C102.534 35.203 102.485 35.1353 102.422 35.0816C102.361 35.0202 102.285 34.9757 102.202 34.9524C102.122 34.9213 102.036 34.9083 101.951 34.9144H100.834V36.1H101.928ZM99.6484 32.5508H100.834V33.8124H101.951C102.42 33.8118 102.871 33.9913 103.212 34.314C103.376 34.4675 103.506 34.6529 103.595 34.8588C103.684 35.0647 103.73 35.2866 103.73 35.511C103.73 35.7353 103.684 35.9573 103.595 36.1632C103.506 36.369 103.376 36.5545 103.212 36.708C102.871 37.0306 102.42 37.2102 101.951 37.2096H99.6712L99.6484 32.5508Z" fill="#E94F35"/>
<path d="M109.421 36.1C109.485 36.1019 109.549 36.0908 109.609 36.0673C109.669 36.0438 109.724 36.0084 109.77 35.9632C109.818 35.9228 109.856 35.8727 109.882 35.8163C109.908 35.7599 109.922 35.6986 109.922 35.6364C109.921 35.5138 109.872 35.3966 109.785 35.3096C109.689 35.2242 109.565 35.1757 109.436 35.1728H108.068V36.1H109.421ZM106.883 32.5508H110.796V33.6528H108.068V34.1164H109.421C109.64 34.1071 109.86 34.1406 110.067 34.2152C110.267 34.2924 110.451 34.4086 110.606 34.5572C110.76 34.7013 110.884 34.8743 110.971 35.0664C111.053 35.2585 111.094 35.4655 111.092 35.6744C111.079 36.0901 110.901 36.4836 110.598 36.7688C110.442 36.909 110.262 37.0198 110.067 37.0956C109.865 37.1707 109.651 37.2093 109.436 37.2096H106.883V32.5508Z" fill="#E94F35"/>
<path d="M115.372 35.6592L114.612 33.934L113.852 35.6592H115.372ZM114.072 32.5508H115.182L117.355 37.24H116.063L115.827 36.7536H113.419L113.214 37.24H111.922L114.072 32.5508Z" fill="#E94F35"/>
<path d="M122.336 32.5508H123.514V34.314H124.274L125.542 32.5508H126.986L125.307 34.8764L126.986 37.24H125.542L124.289 35.4768H123.529V37.24H122.336V32.5508Z" fill="#E94F35"/>
<path d="M131.207 35.6592L130.447 33.934L129.688 35.6592H131.207ZM129.931 32.5508H131.048L133.206 37.24H131.914L131.678 36.7536H129.254L129.042 37.24H127.75L129.931 32.5508Z" fill="#E94F35"/>
<path d="M141.765 37.24H140.328L139.052 35.4464H138.421V37.24H137.236V35.4464H136.62L135.397 37.24H133.961L135.633 34.9068L133.961 32.5812H135.397L136.666 34.3444H137.266V32.5508H138.452V34.314H139.052L140.313 32.5508H141.749L140.078 34.8764L141.765 37.24Z" fill="#E94F35"/>
<path d="M144.367 36.0848H146.312V33.6528H144.823C144.852 34.478 144.685 35.2984 144.336 36.0468L144.367 36.0848ZM142.688 36.0848H143.128C143.521 35.3503 143.705 34.5224 143.66 33.6908V32.5508H147.497V36.0848H148.082V38H146.897V37.24H143.896V38H142.71L142.688 36.0848Z" fill="#E94F35"/>
<path d="M154.964 32.5508H153.779V37.24H154.964V32.5508ZM151.53 36.1C151.703 36.109 151.874 36.052 152.008 35.9404C152.073 35.8882 152.126 35.8236 152.165 35.7506C152.204 35.6775 152.228 35.5973 152.236 35.5148C152.231 35.4331 152.211 35.3531 152.175 35.2792C152.139 35.2014 152.087 35.1317 152.023 35.074C151.96 35.0175 151.885 34.976 151.803 34.9524C151.723 34.9208 151.638 34.9078 151.552 34.9144H150.451V36.1H151.53ZM149.25 32.5508H150.451V33.8124H151.568C152.037 33.8118 152.488 33.9913 152.829 34.314C152.994 34.4663 153.127 34.6513 153.217 34.8574C153.307 35.0634 153.354 35.286 153.354 35.511C153.354 35.736 153.307 35.9585 153.217 36.1646C153.127 36.3706 152.994 36.5557 152.829 36.708C152.488 37.0306 152.037 37.2102 151.568 37.2096H149.288L149.25 32.5508Z" fill="#E94F35"/>
<path d="M157.967 30.9092C158.112 31.1828 158.484 31.6312 158.811 31.6312C159.138 31.6312 159.571 31.0688 159.647 30.9168L160.444 31.2892C160.3 31.6132 160.073 31.8937 159.786 32.103C159.5 32.3123 159.163 32.4431 158.811 32.4824C158.461 32.4375 158.128 32.3054 157.843 32.0982C157.557 31.8911 157.328 31.6155 157.177 31.2968L157.967 30.9092ZM156.531 32.5508H157.709V35.4996L159.989 32.5508H161.204V37.24H159.951V34.2608L157.739 37.24H156.531V32.5508Z" fill="#E94F35"/>
<path d="M167.928 36.0848H169.873V33.6528H168.414C168.443 34.478 168.277 35.2984 167.928 36.0468V36.0848ZM166.249 36.0848H166.689C167.082 35.35 167.268 34.5228 167.229 33.6908V32.5508H171.028V36.0848H171.613V38H170.42V37.24H167.381V38H166.203L166.249 36.0848Z" fill="#E94F35"/>
<path d="M172.82 32.5508H176.817V33.6528H174.006V34.314H176.019V35.4084H174.006V36.1H176.825V37.24H172.828L172.82 32.5508Z" fill="#E94F35"/>
<path d="M178.171 32.5508H179.326V34.314H181.507V32.5508H182.684V37.24H181.507V35.4236H179.326V37.24H178.141L178.171 32.5508Z" fill="#E94F35"/>
<path d="M186.581 36.1C186.754 36.1097 186.925 36.0556 187.06 35.948C187.193 35.8397 187.28 35.6848 187.303 35.5148C187.297 35.4324 187.273 35.3522 187.235 35.2792C187.201 35.1999 187.149 35.1296 187.083 35.074C187.019 35.0175 186.944 34.976 186.863 34.9524C186.78 34.9207 186.692 34.9077 186.604 34.9144H185.404V36.1H186.581ZM184.249 32.5508H185.404V33.8124H186.574C187.043 33.811 187.495 33.9907 187.835 34.314C188.001 34.4663 188.133 34.6513 188.223 34.8574C188.314 35.0634 188.36 35.286 188.36 35.511C188.36 35.736 188.314 35.9585 188.223 36.1646C188.133 36.3706 188.001 36.5557 187.835 36.708C187.495 37.0313 187.043 37.2109 186.574 37.2096H184.203L184.249 32.5508Z" fill="#E94F35"/>
<path d="M52.5621 16.4385H56.3157L59.811 24.1677L63.3214 16.4385H67.0523V28.1197H64.0965V21.2797L61.1027 28.1197H58.504L55.5103 21.3405V28.1197H52.5469L52.5621 16.4385Z" fill="#0F2241"/>
<path d="M73.6206 16.4238H76.3712L81.8269 28.1202H78.5976L78.0049 26.9042H71.9261L71.4246 28.1202H68.1953L73.6206 16.4238ZM76.8575 24.2062L74.9959 19.8818L73.1571 24.2138L76.8575 24.2062Z" fill="#0F2241"/>
<path d="M82.9688 16.4385H85.9245V20.8389H87.9381V16.4385H90.9015V28.1197H87.9381V23.6281H85.9245V28.1197H82.9688V16.4385Z" fill="#0F2241"/>
<path d="M96.6786 25.0797L92.2031 16.4385H95.5388L98.3123 21.9409L101.169 16.4385H104.459L98.4186 28.1197H95.0753L96.6786 25.0797Z" fill="#0F2241"/>
<path d="M110.386 27.0487C106.913 26.5927 104.672 24.5255 104.672 21.6299C104.672 18.3543 107.582 16.0439 111.852 16.0439C116.123 16.0439 119.04 18.3239 119.04 21.6299C119.04 24.5103 116.807 26.5927 113.326 27.0487V28.1203H110.386V27.0487ZM110.386 18.8939C108.798 19.2055 107.514 20.0567 107.514 21.6299C107.514 23.2031 108.798 23.9859 110.386 24.2823V18.8939ZM113.326 24.3203C114.846 24.0239 116.199 23.2411 116.199 21.6679C116.199 20.0947 114.869 19.2435 113.326 18.9319V24.3203Z" fill="#0F2241"/>
<path d="M124.268 16.4236H127.042L132.497 28.12H129.253L128.668 26.904H122.589L122.057 28.12H118.82L124.268 16.4236ZM127.505 24.206L125.644 19.8816L123.805 24.2136L127.505 24.206Z" fill="#0F2241"/>
<path d="M133.617 16.4385H136.581V20.8617H138.511L141.672 16.4385H145.273L141.071 22.2525L145.273 28.1197H141.672L138.526 23.6965H136.581V28.1197H133.617V16.4385Z" fill="#0F2241"/>
<path d="M150.241 19.2201H146.047V16.4385H157.369V19.2201H153.205V28.1197H150.241V19.2201Z" fill="#0F2241"/>
<path d="M162.468 25.0797L157.992 16.4385H161.328L164.124 21.9409L166.989 16.4385H170.279L164.2 28.1197H160.864L162.468 25.0797Z" fill="#0F2241"/>
<path d="M171.468 16.4238H174.72C177.562 16.4238 180.039 18.453 180.039 21.1282C180.039 23.8034 177.593 25.8402 174.72 25.8402H174.409V28.1202H171.453L171.468 16.4238ZM174.69 23.0738C175.258 23.1188 175.822 22.9409 176.261 22.5778C176.701 22.2148 176.982 21.6949 177.046 21.1282C177.046 20.0946 175.951 19.1902 174.568 19.1902H174.379V23.0738H174.69Z" fill="#0F2241"/>
<path d="M184.784 16.4238H187.543L192.998 28.1202H189.761L189.199 26.889H183.12L182.588 28.0974H179.352L184.784 16.4238ZM188.021 24.2062L186.16 19.8818L184.313 24.2138L188.021 24.2062Z" fill="#0F2241"/>
<path d="M52.5625 0H62.0681C64.9099 0 67.387 2.0292 67.387 4.6968C67.387 7.3644 64.9479 9.4164 62.0681 9.4164H55.5259V11.6584H52.5625V0ZM62.0377 6.65C62.6131 6.7033 63.1863 6.52845 63.634 6.16313C64.0816 5.7978 64.368 5.27122 64.4312 4.6968C64.4312 3.6708 63.3295 2.7664 61.9542 2.7664H55.5259V6.65H62.0377Z" fill="#0F2241"/>
<path d="M68.9609 0H71.9167V3.1616H74.7053C75.3084 3.14597 75.909 3.24394 76.4758 3.4504C77.0371 3.65205 77.5534 3.9619 77.9955 4.3624C78.4312 4.75182 78.7806 5.22817 79.0213 5.7608C79.2611 6.28588 79.388 6.85553 79.3936 7.4328C79.3783 8.00851 79.2458 8.57506 79.0041 9.09777C78.7624 9.62048 78.4166 10.0884 77.9879 10.4728C77.0993 11.2669 75.9422 11.6934 74.7509 11.666H68.9609V0ZM74.6598 8.892C75.0955 8.91694 75.5245 8.77572 75.8603 8.4968C76.1857 8.22679 76.3907 7.83864 76.4302 7.4176C76.4206 7.21743 76.3715 7.02113 76.2858 6.84C76.1979 6.64454 76.0682 6.47073 75.9059 6.3308C75.5736 6.04435 75.1435 5.89733 74.7053 5.9204H71.9167V8.8996L74.6598 8.892ZM83.246 0H80.2826V11.6584H83.246V0Z" fill="#0F2241"/>
<path d="M85.523 0H95.3174V2.7664H88.4788V3.9292H91.8753C92.416 3.90724 92.9557 3.99247 93.4634 4.18C93.9758 4.35932 94.4463 4.64119 94.8463 5.0084C95.2348 5.36485 95.5448 5.79826 95.7567 6.28107C95.9687 6.76387 96.0778 7.28551 96.0772 7.8128C96.0684 8.32853 95.9548 8.83708 95.7431 9.30745C95.5315 9.77783 95.2264 10.2002 94.8463 10.5488C94.0569 11.2774 93.0177 11.6746 91.9437 11.6584H85.5078L85.523 0ZM91.8753 8.892C92.1994 8.89309 92.5118 8.77082 92.7491 8.55C92.8645 8.44664 92.9567 8.32012 93.0199 8.17869C93.0831 8.03726 93.1157 7.8841 93.1157 7.7292C93.1157 7.5743 93.0831 7.42114 93.0199 7.27971C92.9567 7.13828 92.8645 7.01176 92.7491 6.9084C92.5308 6.70077 92.2447 6.57927 91.9437 6.5664H88.5168V8.892H91.8753Z" fill="#0F2241"/>
<path d="M119.769 0L114.344 11.6584H117.581L118.113 10.45H124.153L124.746 11.6584H127.983L122.52 0H119.769ZM121.144 3.4504L123.006 7.7748H119.298L121.144 3.4504Z" fill="#0F2241"/>
<path d="M130.801 8.5348C130.128 8.13259 129.568 7.56491 129.175 6.8856C128.788 6.22101 128.584 5.4659 128.583 4.6968C128.583 2.0292 131.052 0 133.902 0H144.676V11.6584H141.72V9.4164H133.734L132.086 11.6584H128.469L130.801 8.5348ZM141.736 6.65V2.7664H134.016C132.64 2.7664 131.539 3.686 131.539 4.6968C131.604 5.27042 131.89 5.79582 132.338 6.16077C132.785 6.52573 133.357 6.7013 133.932 6.65H141.736Z" fill="#0F2241"/>
<path d="M110.25 0V4.104C109.905 4.24631 109.542 4.34092 109.171 4.3852C108.801 4.43699 108.428 4.46239 108.054 4.4612C107.131 4.45363 106.21 4.38508 105.296 4.256C104.461 4.12448 103.618 4.05336 102.773 4.0432C102.075 4.02828 101.381 4.14961 100.729 4.4004V0H97.7734V11.6584H100.729V7.2808C101.074 7.15892 101.43 7.07483 101.793 7.03C102.163 6.982 102.536 6.95662 102.91 6.954C103.772 6.95888 104.633 7.02491 105.486 7.1516C106.381 7.28316 107.286 7.34667 108.191 7.3416C108.542 7.34935 108.893 7.32646 109.239 7.2732C109.588 7.22618 109.928 7.13156 110.25 6.992V11.6584H113.213V0H110.25Z" fill="#0F2241"/>
<path d="M36.4724 34.6332H2.96339V2.8196H36.4724V34.6332ZM0 37.4604H39.3978V0H0V37.4604Z" fill="#E94F35"/>
<path d="M21.8588 17.2213L21.4865 10.4497L24.8526 17.0693L27.4285 16.9401L30.0423 9.94048L30.4146 16.7805L33.378 16.6361L32.7702 5.64648H28.819L25.924 13.0641L22.0716 5.66168H18.2344L18.8726 17.3657L21.8588 17.2213Z" fill="#E94F35"/>
<path d="M14.5497 20.3906L14.9448 27.5422L9.09406 20.7022L6.05469 20.8542L6.66256 31.859H9.63355L9.26122 25.209L14.9524 31.859H18.1818L17.5435 20.2842L14.5497 20.3906Z" fill="#E94F35"/>
<path d="M27.4297 21.6978L29.2001 23.9778L30.7198 22.8226L31.1833 31.2282L33.4628 31.1142V19.4482L30.4235 19.6002L27.4297 21.6978Z" fill="#E94F35"/>
<path d="M22.8466 25.1784C22.6622 25.1912 22.4772 25.1652 22.3035 25.1021C22.1297 25.039 21.9712 24.9402 21.838 24.812C21.7048 24.6838 21.6 24.5291 21.5303 24.3579C21.4606 24.1867 21.4275 24.0027 21.4333 23.818C21.4075 23.6358 21.4206 23.4502 21.4718 23.2735C21.523 23.0968 21.6111 22.933 21.7304 22.7929C21.8496 22.6528 21.9972 22.5396 22.1634 22.4608C22.3297 22.3821 22.5107 22.3395 22.6946 22.336C22.8812 22.326 23.068 22.3528 23.2442 22.4151C23.4204 22.4773 23.5826 22.5736 23.7216 22.6985C23.8606 22.8234 23.9737 22.9745 24.0543 23.1431C24.1349 23.3117 24.1816 23.4945 24.1915 23.6812C24.2015 23.8678 24.1746 24.0546 24.1125 24.2308C24.0503 24.4071 23.954 24.5693 23.8291 24.7084C23.7042 24.8474 23.5532 24.9604 23.3846 25.0411C23.216 25.1217 23.0332 25.1684 22.8466 25.1784ZM27.003 23.5596C26.9894 23.0158 26.8653 22.4805 26.6382 21.9864C26.3995 21.4891 26.0636 21.0446 25.6504 20.6792C25.2295 20.3113 24.742 20.0275 24.2143 19.8432C23.6767 19.6613 23.1093 19.5839 22.5427 19.6152C21.9939 19.6279 21.4534 19.7525 20.9545 19.9814C20.4555 20.2103 20.0084 20.5386 19.6407 20.9462C19.273 21.3539 18.9923 21.8323 18.8158 22.3522C18.6393 22.8721 18.5707 23.4226 18.6143 23.97C18.6313 24.5212 18.7596 25.0633 18.9914 25.5636C19.2233 26.0639 19.554 26.5122 19.9636 26.8814C20.3732 27.2506 20.8532 27.5331 21.3748 27.7119C21.8963 27.8907 22.4487 27.9622 22.9986 27.922C23.5661 27.898 24.1236 27.7638 24.6398 27.5268C25.1464 27.2955 25.6012 26.9647 25.9772 26.554C26.3517 26.1523 26.6366 25.6756 26.813 25.1556C26.9856 24.6423 27.0503 24.099 27.003 23.5596Z" fill="#E94F35"/>
<path d="M11.4692 8.84608C12.8445 8.77768 13.9994 9.60608 14.0526 10.6473C14.1058 11.6885 13.1712 12.6461 11.7731 12.7145L8.56656 12.8741L8.3614 8.99808L11.4692 8.84608ZM8.85529 17.8673L8.73372 15.5873L11.9555 15.4277C14.8277 15.2833 17.1528 13.1021 17.0084 10.4497C16.864 7.79728 14.273 5.88968 11.4388 6.01888L5.9375 6.27728V18.0117L8.85529 17.8673Z" fill="#E94F35"/>
<path d="M25.8313 28.751L20.3984 29.0246L20.5124 31.7682L25.9453 31.5022L25.8313 28.751Z" fill="#E94F35"/>
</g>
<defs>
<clipPath id="clip0_11982_43727">
<rect width="193" height="38" fill="white"/>
</clipPath>
</defs>
</svg>
