<svg width="1440" height="35" viewBox="0 0 1440 35" fill="none" xmlns="http://www.w3.org/2000/svg">
<path d="M-25.8977 11.6186L-25.4006 23.2373L-10.4867 28.5185C2.1073 33.0956 7.07861 33.7997 20.9983 33.9758C35.2494 33.9758 39.7235 33.2716 53.4775 28.5185C62.2602 25.3498 71.0428 22.8852 73.1971 22.8852C75.1856 22.8852 84.7968 25.5258 94.5737 28.5185C118.933 36.4404 136.664 36.4404 159.532 28.5185C168.315 25.3498 177.097 22.8852 179.252 22.8852C181.406 22.8852 190.189 25.3498 198.971 28.3425C212.394 33.0956 217.365 33.9758 231.45 33.9758C245.867 33.9758 250.01 33.2716 263.433 28.5185C271.884 25.3498 280.501 22.8852 282.655 22.8852C284.975 22.8852 294.089 25.5258 303.037 28.5185C325.574 36.4404 343.471 36.4404 367.167 28.3425C376.116 25.3498 385.395 22.8852 387.715 22.8852C390.035 22.8852 398.984 25.3498 407.766 28.5185C421.354 33.2716 425.994 33.9758 440.245 33.9758C454.331 33.9758 459.302 33.0956 472.725 28.3425C481.507 25.3498 490.29 22.8852 492.444 22.8852C494.598 22.8852 503.381 25.3498 512.164 28.3425C525.586 33.0956 530.723 33.9758 544.643 33.9758C559.06 34.1518 563.368 33.2716 576.791 28.5185C585.242 25.3498 594.356 22.8852 596.676 22.8852C599.162 22.8852 607.613 25.1737 615.401 27.9904C640.589 36.9685 655.669 36.7924 684.171 27.2862C691.297 24.8217 698.919 22.8852 701.074 22.8852C703.228 22.8852 712.176 25.3498 720.959 28.5185C734.547 33.2716 739.353 33.9758 753.438 33.9758C767.689 33.9758 772.329 33.2716 786.414 28.3425C804.808 21.829 806.3 21.829 828.008 29.0466C849.882 36.0883 870.43 35.9122 890.812 28.3425C899.097 25.3498 907.714 22.8852 910.034 22.8852C912.354 22.8852 920.971 25.3498 929.257 28.3425C941.685 33.0956 946.491 33.7997 960.576 33.9758C974.827 34.1518 979.467 33.4477 994.05 28.5185C1003.16 25.3498 1012.44 22.8852 1014.6 22.8852C1016.59 22.8852 1025.37 25.3498 1034.15 28.5185C1047.74 33.2716 1052.55 33.9758 1066.63 33.9758C1080.72 33.9758 1085.52 33.2716 1099.11 28.5185C1107.89 25.3498 1116.84 22.8852 1119 22.8852C1121.15 22.8852 1128.77 24.8217 1135.9 27.2862C1164.57 36.7924 1177.82 36.9685 1204.34 27.9904C1212.62 25.1737 1221.07 22.8852 1223.23 22.8852C1225.38 22.8852 1234.16 25.3498 1242.95 28.5185C1264.65 36.0883 1283.55 36.2643 1305.25 29.0466C1326.8 21.829 1328.45 21.829 1346.85 28.1664C1360.77 33.0956 1365.74 33.9758 1379.82 33.9758C1394.07 33.9758 1398.55 33.2716 1412.8 28.3425C1431.19 21.829 1432.85 21.829 1454.39 29.0466C1476.1 36.2643 1496.65 36.0883 1517.2 28.3425C1525.48 25.3498 1534.1 22.8852 1536.42 22.8852C1538.74 22.8852 1547.36 25.3498 1555.64 28.3425C1568.07 33.0956 1572.88 33.7997 1586.96 33.9758C1601.21 34.1518 1605.85 33.4477 1620.43 28.5185C1629.55 25.3498 1638.83 22.8852 1640.98 22.8852C1642.97 22.8852 1651.75 25.3498 1660.54 28.5185C1674.12 33.2716 1678.76 33.9758 1693.02 33.9758C1706.94 33.9758 1712.24 33.0956 1725.99 28.3425C1734.94 25.3498 1744.05 22.8852 1746.21 22.8852C1748.36 22.8852 1755.65 24.8217 1762.61 27.2862C1790.45 36.7924 1804.37 36.9685 1831.05 27.9904C1839.5 25.1737 1848.12 22.8852 1850.28 22.8852C1852.43 22.8852 1861.21 25.3498 1869.66 28.5185C1883.09 33.2716 1887.39 34.1518 1901.81 33.9758C1915.73 33.9758 1920.87 33.0956 1934.29 28.3425C1943.07 25.3498 1951.86 22.8852 1954.01 22.8852C1956.16 22.8852 1964.95 25.3498 1973.73 28.3425C1994.28 35.5601 2016.15 36.0883 2034.38 30.1029C2059.4 21.6529 2059.57 21.6529 2079.45 28.1664C2094.7 33.2716 2099.67 34.1518 2113.09 34.1518C2126.18 33.9758 2131.32 33.0956 2144.25 28.5185C2152.7 25.3498 2161.31 22.8852 2163.63 22.8852C2165.95 22.8852 2174.57 25.3498 2183.02 28.5185C2196.28 33.2716 2200.75 33.9758 2215 33.9758C2229.09 33.9758 2233.89 33.2716 2247.48 28.5185C2256.27 25.3498 2265.05 22.8852 2267.2 22.8852C2269.36 22.8852 2277.81 25.1737 2286.09 27.9904C2311.28 36.4404 2326.86 36.7924 2351.55 28.8706L2360 26.23V14.0832C2360 7.21761 2359.83 1.76035 2359.5 1.76035C2359.17 1.76035 2353.37 3.87283 2346.58 6.3374C2328.52 13.203 2312.77 12.8509 2291.23 5.4572C2271.51 -1.40839 2262.07 -1.23235 2241.52 6.16136C2223.29 12.8509 2206.72 12.8509 2189.32 6.3374C2169.43 -1.23235 2159.99 -1.40839 2140.43 5.4572C2118.23 13.0269 2105.3 13.0269 2082.6 5.4572C2062.22 -1.40839 2055.76 -1.40839 2035.7 5.63324C2013.33 13.203 2000.24 13.203 1978.37 5.63324C1957.99 -1.40839 1950.03 -1.40839 1929.65 5.63324C1908.11 13.0269 1894.19 13.203 1875.3 5.98532C1857.23 -1.0563 1840.5 -0.880264 1823.93 6.16136C1807.36 13.203 1791.61 13.0269 1769.57 5.4572C1749.36 -1.40839 1742.73 -1.40839 1722.51 5.63324C1701.14 12.8509 1685.39 13.203 1667.33 6.3374C1647.45 -1.23235 1636.51 -1.40839 1616.79 5.4572C1594.75 13.0269 1580.83 13.203 1562.1 5.98532C1543.88 -0.880264 1529.13 -0.880264 1510.73 5.98532C1492.34 13.0269 1478.42 12.8509 1456.22 5.4572C1435.83 -1.40839 1429.87 -1.40839 1409.49 5.4572C1386.95 13.0269 1372.7 13.0269 1350.16 5.4572C1329.61 -1.40839 1323.32 -1.40839 1303.27 5.63324C1281.56 13.203 1265.81 13.379 1248.91 6.16136C1232.51 -0.880264 1213.95 -0.880264 1197.54 6.16136C1180.81 13.203 1164.9 13.0269 1143.19 5.63324C1122.97 -1.40839 1116.34 -1.40839 1096.13 5.63324C1074.09 13.203 1059.67 13.203 1036.97 5.4572C1016.59 -1.40839 1010.12 -1.40839 990.073 5.63324C968.364 13.0269 952.622 13.203 935.719 6.16136C918.983 -0.880264 902.412 -0.880264 884.349 5.98532C865.79 13.0269 851.704 13.0269 829.996 5.63324C809.945 -1.40839 803.483 -1.40839 783.1 5.4572C770.341 9.68217 763.712 10.9145 753.438 10.9145C743.164 10.9145 736.536 9.68217 723.776 5.4572C703.394 -1.40839 696.931 -1.40839 676.88 5.63324C655.006 13.0269 640.921 13.203 622.527 5.98532C604.464 -1.0563 587.893 -1.0563 571.157 5.98532C554.254 13.203 538.512 13.0269 516.804 5.63324C496.587 -1.40839 489.461 -1.40839 468.582 5.63324C446.211 13.0269 433.286 13.0269 410.583 5.4572C390.201 -1.40839 384.235 -1.40839 363.853 5.4572C341.151 13.0269 328.225 13.0269 306.02 5.4572C286.466 -1.40839 277.021 -1.23235 257.136 6.3374C239.902 12.8509 222.834 12.8509 205.765 6.3374C185.714 -1.23235 174.943 -1.40839 155.224 5.4572C132.521 13.203 119.596 13.203 97.5565 5.63324C77.5055 -1.40839 71.2085 -1.40839 50.6604 5.4572C27.9581 13.0269 14.867 13.0269 -6.84106 5.63324C-15.6237 2.46451 -23.7435 -6.10352e-05 -24.7378 -6.10352e-05C-25.732 -6.10352e-05 -26.2292 4.40096 -25.8977 11.6186Z" fill="#002B5F"/>
</svg>
