<svg width="1360" height="853" viewBox="0 0 1360 853" fill="none" xmlns="http://www.w3.org/2000/svg">
<rect width="1360" height="853" fill="white"/>
<rect x="681" y="147" width="93" height="111" fill="#E94F35"/>
<rect x="681" y="258" width="93" height="111" fill="#E94F35"/>
<rect x="681" y="369" width="93" height="111" fill="#E94F35"/>
<rect x="774" y="369" width="93" height="111" fill="#E94F35"/>
<rect x="867" y="369" width="93" height="111" fill="#E94F35"/>
<rect x="867" y="480" width="93" height="111" fill="#E94F35"/>
<rect x="960" y="480" width="93" height="111" fill="#E94F35"/>
<rect x="1053" y="591" width="93" height="111" fill="#E94F35"/>
<rect x="1146" y="591" width="93" height="111" fill="#E94F35"/>
<rect x="1146" y="702" width="93" height="111" fill="#E94F35"/>
<rect x="1239" y="591" width="93" height="111" fill="#E94F35"/>
<rect x="1239" y="702" width="93" height="111" fill="#E94F35"/>
<path d="M28 258H1332" stroke="#0F2241"/>
<path d="M28 147H1332" stroke="#0F2241"/>
<path d="M28 480H1332" stroke="#0F2241"/>
<path d="M28 369H1332" stroke="#0F2241"/>
<path d="M28 591H1332" stroke="#0F2241"/>
<path d="M28 702H1332" stroke="#0F2241"/>
<path d="M681 36V813" stroke="#0F2241"/>
<path d="M774 36V813" stroke="#0F2241"/>
<path d="M867 36V813" stroke="#0F2241"/>
<path d="M960 36V813" stroke="#0F2241"/>
<path d="M1053 36V813" stroke="#0F2241"/>
<path d="M1146 36V813" stroke="#0F2241"/>
<path d="M1239 36V813" stroke="#0F2241"/>
<path d="M1332 36V813" stroke="#0F2241"/>
<path d="M49.144 99.576C42.232 99.576 37.816 93.112 35.96 83.896L44.28 82.36C45.176 86.968 46.776 91.064 49.272 91.064C52.344 91.064 54.392 85.88 54.968 80.504H45.688V71.992H54.968C54.392 66.936 52.408 61.432 49.272 61.432C46.84 61.432 45.176 65.464 44.28 70.136L35.96 68.664C37.816 59.448 42.232 52.92 49.144 52.92C58.552 52.92 63.608 64.312 63.608 76.28C63.608 88.184 58.552 99.576 49.144 99.576ZM73.978 99V61.944H65.594V53.432H90.874V61.944H82.49V99H73.978ZM88.1875 99L99.2595 53.432H107.58L118.716 99H110.076L109.116 94.84H97.7235L96.7635 99H88.1875ZM99.6435 86.52H107.26L103.42 68.28L99.6435 86.52ZM121.888 99V53.432H147.168V99H138.656V61.944H130.4V99H121.888ZM162.022 90.616H165.158C167.462 90.616 168.422 86.776 168.422 83.192C168.422 78.904 167.398 75.768 164.838 75.768H162.022V90.616ZM153.638 99V53.432H162.15V67.32H165.286C173.478 67.32 176.358 75.192 176.358 83C176.358 90.936 173.158 99 165.35 99H153.638ZM178.342 53.432H186.854V99H178.342V53.432ZM227.482 75.64C229.722 77.304 231.514 80.696 231.514 85.176C231.514 94.008 226.01 99.576 219.738 99.576C213.786 99.576 209.754 95.16 207.066 88.312C209.69 87.416 212.378 86.456 215.002 85.496C216.538 88.952 218.01 91.128 219.738 91.128C221.594 91.128 223.002 88.312 223.002 85.176C223.002 82.808 221.658 80.312 219.418 80.312H213.786V71.8H219.162C220.954 71.8 222.426 70.008 222.426 67.128C222.426 63.864 221.21 61.368 219.418 61.368C217.754 61.368 216.73 63.48 215.514 66.488L207.514 63.736C210.01 57.272 213.85 52.92 219.546 52.92C225.882 52.92 230.81 58.616 230.81 67.192C230.81 70.904 229.658 73.72 227.482 75.64ZM232.625 99L243.697 53.432H252.017L263.153 99H254.513L253.553 94.84H242.161L241.201 99H232.625ZM244.081 86.52H251.697L247.857 68.28L244.081 86.52ZM266.325 99V53.432H291.605V99H283.093V61.944H274.837V99H266.325ZM301.787 99C302.747 95.608 303.643 92.28 304.539 88.888C301.467 77.048 298.331 65.272 295.195 53.432H304.155L308.955 74.232L313.755 53.432H322.715L310.555 99H301.787ZM337.051 91.064C339.419 91.064 340.891 86.456 341.659 82.424L350.043 83.768C348.379 93.496 343.771 99.576 337.115 99.576C327.643 99.576 322.907 87.928 322.907 76.28C322.907 64.632 327.643 52.92 337.115 52.92C343.771 52.92 348.379 59.064 350.043 68.728L341.659 70.072C340.891 65.976 339.355 61.432 337.051 61.432C333.339 61.432 331.419 69.944 331.419 76.28C331.419 83.256 333.531 91.064 337.051 91.064ZM354.263 99V53.432H362.775V71.992H364.951L371.287 53.432H380.503L372.183 76.216L380.439 99H371.287L364.951 80.44H362.775V99H354.263ZM381.5 99L392.572 53.432H400.892L412.028 99H403.388L402.428 94.84H391.036L390.076 99H381.5ZM392.956 86.52H400.572L396.732 68.28L392.956 86.52Z" fill="#E94F35"/>
<path d="M45.272 202.32C46.392 203.152 47.288 204.848 47.288 207.088C47.288 211.504 44.536 214.288 41.4 214.288C38.424 214.288 36.408 212.08 35.064 208.656C36.376 208.208 37.72 207.728 39.032 207.248C39.8 208.976 40.536 210.064 41.4 210.064C42.328 210.064 43.032 208.656 43.032 207.088C43.032 205.904 42.36 204.656 41.24 204.656H38.424V200.4H41.112C42.008 200.4 42.744 199.504 42.744 198.064C42.744 196.432 42.136 195.184 41.24 195.184C40.408 195.184 39.896 196.24 39.288 197.744L35.288 196.368C36.536 193.136 38.456 190.96 41.304 190.96C44.472 190.96 46.936 193.808 46.936 198.096C46.936 199.952 46.36 201.36 45.272 202.32ZM47.8438 214L53.3798 191.216H57.5398L63.1078 214H58.7878L58.3078 211.92H52.6118L52.1318 214H47.8438ZM53.5718 207.76H57.3798L55.4598 198.64L53.5718 207.76ZM76.4378 191.216V214H72.1818V209.04H70.4538L68.4058 214H63.7978L66.6778 207.312C64.9818 205.744 64.1178 203.12 64.1178 200.144C64.1178 195.696 66.2618 191.216 70.3898 191.216H76.4378ZM70.4538 204.848H72.1818V195.472H70.5498C69.0778 195.472 68.3418 197.808 68.3418 200.144C68.3418 202.512 69.0138 204.848 70.4538 204.848ZM79.6625 214V191.216H86.2225C89.5505 191.216 91.4065 194.608 91.4065 197.904C91.4065 200.016 90.7665 201.456 89.9025 202.384C91.1825 203.568 91.6945 205.456 91.6945 207.28C91.6945 210.576 89.8385 214 86.5105 214H79.6625ZM83.8865 209.84H86.2865C87.1185 209.84 87.5345 208.496 87.5345 207.152C87.5345 205.84 87.0545 204.496 86.2865 204.496H83.8865V209.84ZM83.8865 200.656H85.9345C86.7345 200.656 87.1825 199.376 87.1825 198C87.1825 196.688 86.7665 195.44 85.9345 195.44H83.8865V200.656ZM94.2875 214V191.216H98.5435V200.496H99.6315L102.8 191.216H107.408L103.248 202.608L107.376 214H102.8L99.6315 204.72H98.5435V214H94.2875ZM107.906 214L113.442 191.216H117.602L123.17 214H118.85L118.37 211.92H112.674L112.194 214H107.906ZM113.634 207.76H117.442L115.522 198.64L113.634 207.76ZM133.194 214V191.216H137.386V204.656L142.41 191.216H146.698V214H142.538V200.496L137.514 214H133.194ZM164.525 210.032C165.709 210.032 166.445 207.728 166.829 205.712L171.021 206.384C170.189 211.248 167.885 214.288 164.557 214.288C159.821 214.288 157.453 208.464 157.453 202.64C157.453 196.816 159.821 190.96 164.557 190.96C167.885 190.96 170.189 194.032 171.021 198.864L166.829 199.536C166.445 197.488 165.677 195.216 164.525 195.216C162.669 195.216 161.709 199.472 161.709 202.64C161.709 206.128 162.765 210.032 164.525 210.032ZM182.251 202.64C182.251 199.056 181.163 195.216 179.339 195.216C177.483 195.216 176.459 199.12 176.459 202.64C176.459 206.064 177.483 210.064 179.339 210.064C181.163 210.064 182.251 206.256 182.251 202.64ZM172.203 202.64C172.203 196.624 174.667 190.96 179.371 190.96C184.011 190.96 186.507 196.688 186.507 202.64C186.507 208.592 184.011 214.288 179.371 214.288C174.667 214.288 172.203 208.56 172.203 202.64ZM193.044 209.776H195.092C196.244 209.776 196.756 207.792 196.756 205.808C196.756 203.824 196.244 201.776 195.156 201.776H193.044V209.776ZM188.788 214V191.216H199.86V195.472H193.012V197.744H195.188C199.124 197.744 200.948 201.616 200.948 205.712C200.948 209.776 199.06 214 195.252 214H188.788ZM203.381 214V191.216H214.133V195.472H207.669V200.464H212.117V204.688H207.669V209.776H214.133V214H203.381ZM222.463 210.032C223.647 210.032 224.383 207.728 224.767 205.712L228.959 206.384C228.127 211.248 225.823 214.288 222.495 214.288C217.759 214.288 215.391 208.464 215.391 202.64C215.391 196.816 217.759 190.96 222.495 190.96C225.823 190.96 228.127 194.032 228.959 198.864L224.767 199.536C224.383 197.488 223.615 195.216 222.463 195.216C220.607 195.216 219.647 199.472 219.647 202.64C219.647 206.128 220.703 210.032 222.463 210.032ZM231.069 214V191.216H241.821V195.472H235.357V200.464H239.805V204.688H235.357V209.776H241.821V214H231.069ZM243.069 216.4V209.776H244.029C245.309 206.544 245.501 199.536 245.501 196.112V191.216H256.445V209.776H257.949V216.4H253.725V214H247.293V216.4H243.069ZM248.189 209.776H252.253V195.472H249.693V195.888C249.693 203.824 248.861 207.664 248.189 209.776ZM268.97 202.64C268.97 199.056 267.882 195.216 266.058 195.216C264.202 195.216 263.178 199.12 263.178 202.64C263.178 206.064 264.202 210.064 266.058 210.064C267.882 210.064 268.97 206.256 268.97 202.64ZM258.922 202.64C258.922 196.624 261.386 190.96 266.09 190.96C270.73 190.96 273.226 196.688 273.226 202.64C273.226 208.592 270.73 214.288 266.09 214.288C261.386 214.288 258.922 208.56 258.922 202.64ZM275.506 214V191.216H282.066C285.394 191.216 287.25 194.608 287.25 197.904C287.25 200.016 286.61 201.456 285.746 202.384C287.026 203.568 287.538 205.456 287.538 207.28C287.538 210.576 285.682 214 282.354 214H275.506ZM279.73 209.84H282.13C282.962 209.84 283.378 208.496 283.378 207.152C283.378 205.84 282.898 204.496 282.13 204.496H279.73V209.84ZM279.73 200.656H281.778C282.578 200.656 283.026 199.376 283.026 198C283.026 196.688 282.61 195.44 281.778 195.44H279.73V200.656ZM288.375 214L293.911 191.216H298.071L303.639 214H299.319L298.839 211.92H293.143L292.663 214H288.375ZM294.103 207.76H297.911L295.991 198.64L294.103 207.76ZM305.225 214V191.216H309.481V200.464H313.673V191.216H317.929V214H313.673V204.688H309.481V214H305.225ZM321.163 214V191.216H325.355V204.656L330.379 191.216H334.667V214H330.507V200.496L325.483 214H321.163ZM337.913 214V191.216H348.665V195.472H342.201V200.464H346.649V204.688H342.201V209.776H348.665V214H337.913Z" fill="#0F2241"/>
<path d="M716.413 65.656L712.445 58.168C713.469 57.464 719.293 54.136 720.317 53.432H727.933V99H719.421V63.8C718.461 64.44 717.437 65.016 716.413 65.656ZM697.891 121V106.76H700.911L703.211 116.26L705.511 106.76H708.551V121H705.971V112.98C705.971 112.98 704.391 120.22 704.231 121H702.191C702.051 120.22 700.451 112.98 700.451 112.98V121H697.891ZM710.566 121V106.76H717.286V109.42H713.246V112.54H716.026V115.18H713.246V118.36H717.286V121H710.566ZM722.492 118.52C723.232 118.52 723.692 117.08 723.932 115.82L726.552 116.24C726.032 119.28 724.592 121.18 722.512 121.18C719.552 121.18 718.072 117.54 718.072 113.9C718.072 110.26 719.552 106.6 722.512 106.6C724.592 106.6 726.032 108.52 726.552 111.54L723.932 111.96C723.692 110.68 723.212 109.26 722.492 109.26C721.332 109.26 720.732 111.92 720.732 113.9C720.732 116.08 721.392 118.52 722.492 118.52ZM735.211 106.76V121H732.551V117.9H731.471L730.191 121H727.311L729.111 116.82C728.051 115.84 727.511 114.2 727.511 112.34C727.511 109.56 728.851 106.76 731.431 106.76H735.211ZM731.471 115.28H732.551V109.42H731.531C730.611 109.42 730.151 110.88 730.151 112.34C730.151 113.82 730.571 115.28 731.471 115.28ZM737.227 121V106.76H739.887V118.36H742.287V106.76H744.947V118.36H745.847V122.52H743.207V121H737.227Z" fill="#0F2241"/>
<path d="M803.712 99V90.36C810.88 85.176 817.472 76.664 817.472 69.24C817.472 64.312 816.448 61.368 814.72 61.368C813.056 61.368 811.84 65.208 811.584 70.968L803.136 70.328C803.968 58.488 808.96 52.92 814.72 52.92C820.416 52.92 825.792 59.064 825.792 69.56C825.792 77.688 821.184 84.664 814.848 90.552H825.536V99H803.712ZM790.891 121V106.76H793.911L796.211 116.26L798.511 106.76H801.551V121H798.971V112.98C798.971 112.98 797.391 120.22 797.231 121H795.191C795.051 120.22 793.451 112.98 793.451 112.98V121H790.891ZM803.566 121V106.76H810.286V109.42H806.246V112.54H809.026V115.18H806.246V118.36H810.286V121H803.566ZM815.492 118.52C816.232 118.52 816.692 117.08 816.932 115.82L819.552 116.24C819.032 119.28 817.592 121.18 815.512 121.18C812.552 121.18 811.072 117.54 811.072 113.9C811.072 110.26 812.552 106.6 815.512 106.6C817.592 106.6 819.032 108.52 819.552 111.54L816.932 111.96C816.692 110.68 816.212 109.26 815.492 109.26C814.332 109.26 813.732 111.92 813.732 113.9C813.732 116.08 814.392 118.52 815.492 118.52ZM828.211 106.76V121H825.551V117.9H824.471L823.191 121H820.311L822.111 116.82C821.051 115.84 820.511 114.2 820.511 112.34C820.511 109.56 821.851 106.76 824.431 106.76H828.211ZM824.471 115.28H825.551V109.42H824.531C823.611 109.42 823.151 110.88 823.151 112.34C823.151 113.82 823.571 115.28 824.471 115.28ZM830.227 121V106.76H832.887V118.36H835.287V106.76H837.947V118.36H838.847V122.52H836.207V121H830.227Z" fill="#0F2241"/>
<path d="M895.788 85.816L904.108 84.408C904.748 88.184 905.964 91.128 907.5 91.128C909.548 91.128 910.572 88.184 910.572 85.816C910.572 83.064 909.676 80.376 907.244 80.376H904.428V71.992H907.244C909.356 71.992 910.444 69.688 910.444 66.744C910.444 64.12 909.292 61.368 907.372 61.368C906.348 61.368 904.748 63.48 903.98 67.832L895.596 66.36C897.58 56.312 903.148 52.92 907.244 52.92C914.092 52.92 918.764 59.192 918.764 66.744C918.764 71.032 917.228 74.104 915.372 76.088C917.356 78.008 919.02 81.016 919.02 85.816C919.02 93.816 913.836 99.576 907.372 99.576C903.724 99.576 897.836 97.464 895.788 85.816ZM883.891 121V106.76H886.911L889.211 116.26L891.511 106.76H894.551V121H891.971V112.98C891.971 112.98 890.391 120.22 890.231 121H888.191C888.051 120.22 886.451 112.98 886.451 112.98V121H883.891ZM896.566 121V106.76H903.286V109.42H899.246V112.54H902.026V115.18H899.246V118.36H903.286V121H896.566ZM908.492 118.52C909.232 118.52 909.692 117.08 909.932 115.82L912.552 116.24C912.032 119.28 910.592 121.18 908.512 121.18C905.552 121.18 904.072 117.54 904.072 113.9C904.072 110.26 905.552 106.6 908.512 106.6C910.592 106.6 912.032 108.52 912.552 111.54L909.932 111.96C909.692 110.68 909.212 109.26 908.492 109.26C907.332 109.26 906.732 111.92 906.732 113.9C906.732 116.08 907.392 118.52 908.492 118.52ZM921.211 106.76V121H918.551V117.9H917.471L916.191 121H913.311L915.111 116.82C914.051 115.84 913.511 114.2 913.511 112.34C913.511 109.56 914.851 106.76 917.431 106.76H921.211ZM917.471 115.28H918.551V109.42H917.531C916.611 109.42 916.151 110.88 916.151 112.34C916.151 113.82 916.571 115.28 917.471 115.28ZM923.227 121V106.76H925.887V118.36H928.287V106.76H930.947V118.36H931.847V122.52H929.207V121H923.227Z" fill="#0F2241"/>
<path d="M987.98 91.32V83L998.988 53.432H1009.29V82.936H1013.07V91.32H1009.29V99H1001.04V91.32H987.98ZM995.66 83H1001.16V67L995.66 83ZM976.891 121V106.76H979.911L982.211 116.26L984.511 106.76H987.551V121H984.971V112.98C984.971 112.98 983.391 120.22 983.231 121H981.191C981.051 120.22 979.451 112.98 979.451 112.98V121H976.891ZM989.566 121V106.76H996.286V109.42H992.246V112.54H995.026V115.18H992.246V118.36H996.286V121H989.566ZM1001.49 118.52C1002.23 118.52 1002.69 117.08 1002.93 115.82L1005.55 116.24C1005.03 119.28 1003.59 121.18 1001.51 121.18C998.552 121.18 997.072 117.54 997.072 113.9C997.072 110.26 998.552 106.6 1001.51 106.6C1003.59 106.6 1005.03 108.52 1005.55 111.54L1002.93 111.96C1002.69 110.68 1002.21 109.26 1001.49 109.26C1000.33 109.26 999.732 111.92 999.732 113.9C999.732 116.08 1000.39 118.52 1001.49 118.52ZM1014.21 106.76V121H1011.55V117.9H1010.47L1009.19 121H1006.31L1008.11 116.82C1007.05 115.84 1006.51 114.2 1006.51 112.34C1006.51 109.56 1007.85 106.76 1010.43 106.76H1014.21ZM1010.47 115.28H1011.55V109.42H1010.53C1009.61 109.42 1009.15 110.88 1009.15 112.34C1009.15 113.82 1009.57 115.28 1010.47 115.28ZM1016.23 121V106.76H1018.89V118.36H1021.29V106.76H1023.95V118.36H1024.85V122.52H1022.21V121H1016.23Z" fill="#0F2241"/>
<path d="M1095.16 66.744C1100.66 66.744 1104.69 73.784 1104.69 82.552C1104.69 91 1100.85 99.576 1093.17 99.576C1085.36 99.576 1082.8 91.384 1082.16 84.152L1090.48 83.512C1090.87 88.568 1091.89 91.128 1093.3 91.128C1095.28 91.128 1096.31 86.904 1096.31 82.616C1096.31 78.2 1095.48 74.744 1093.94 74.744C1092.79 74.744 1091.64 76.28 1090.68 79.416L1083.38 77.048L1084.53 53.432H1103.73V61.944H1091.76C1091.7 64.056 1091.51 66.168 1091.44 68.216C1092.53 67.384 1093.81 66.744 1095.16 66.744ZM1069.89 121V106.76H1072.91L1075.21 116.26L1077.51 106.76H1080.55V121H1077.97V112.98C1077.97 112.98 1076.39 120.22 1076.23 121H1074.19C1074.05 120.22 1072.45 112.98 1072.45 112.98V121H1069.89ZM1082.57 121V106.76H1089.29V109.42H1085.25V112.54H1088.03V115.18H1085.25V118.36H1089.29V121H1082.57ZM1094.49 118.52C1095.23 118.52 1095.69 117.08 1095.93 115.82L1098.55 116.24C1098.03 119.28 1096.59 121.18 1094.51 121.18C1091.55 121.18 1090.07 117.54 1090.07 113.9C1090.07 110.26 1091.55 106.6 1094.51 106.6C1096.59 106.6 1098.03 108.52 1098.55 111.54L1095.93 111.96C1095.69 110.68 1095.21 109.26 1094.49 109.26C1093.33 109.26 1092.73 111.92 1092.73 113.9C1092.73 116.08 1093.39 118.52 1094.49 118.52ZM1107.21 106.76V121H1104.55V117.9H1103.47L1102.19 121H1099.31L1101.11 116.82C1100.05 115.84 1099.51 114.2 1099.51 112.34C1099.51 109.56 1100.85 106.76 1103.43 106.76H1107.21ZM1103.47 115.28H1104.55V109.42H1103.53C1102.61 109.42 1102.15 110.88 1102.15 112.34C1102.15 113.82 1102.57 115.28 1103.47 115.28ZM1109.23 121V106.76H1111.89V118.36H1114.29V106.76H1116.95V118.36H1117.85V122.52H1115.21V121H1109.23Z" fill="#0F2241"/>
<path d="M1181 60.6L1184.65 51.832L1192.45 54.84L1188.29 65.272C1194.12 65.656 1198.47 72.952 1198.47 81.976C1198.47 90.68 1194.5 99.576 1186.5 99.576C1178.57 99.576 1174.6 90.872 1174.6 81.976C1174.6 77.56 1175.43 74.104 1181 60.6ZM1186.5 91.128C1188.81 91.128 1190.02 86.52 1190.02 81.976C1190.02 77.368 1188.81 72.888 1186.5 72.888C1184.26 72.888 1183.05 77.368 1183.05 81.976C1183.05 86.584 1184.26 91.128 1186.5 91.128ZM1162.89 121V106.76H1165.91L1168.21 116.26L1170.51 106.76H1173.55V121H1170.97V112.98C1170.97 112.98 1169.39 120.22 1169.23 121H1167.19C1167.05 120.22 1165.45 112.98 1165.45 112.98V121H1162.89ZM1175.57 121V106.76H1182.29V109.42H1178.25V112.54H1181.03V115.18H1178.25V118.36H1182.29V121H1175.57ZM1187.49 118.52C1188.23 118.52 1188.69 117.08 1188.93 115.82L1191.55 116.24C1191.03 119.28 1189.59 121.18 1187.51 121.18C1184.55 121.18 1183.07 117.54 1183.07 113.9C1183.07 110.26 1184.55 106.6 1187.51 106.6C1189.59 106.6 1191.03 108.52 1191.55 111.54L1188.93 111.96C1188.69 110.68 1188.21 109.26 1187.49 109.26C1186.33 109.26 1185.73 111.92 1185.73 113.9C1185.73 116.08 1186.39 118.52 1187.49 118.52ZM1200.21 106.76V121H1197.55V117.9H1196.47L1195.19 121H1192.31L1194.11 116.82C1193.05 115.84 1192.51 114.2 1192.51 112.34C1192.51 109.56 1193.85 106.76 1196.43 106.76H1200.21ZM1196.47 115.28H1197.55V109.42H1196.53C1195.61 109.42 1195.15 110.88 1195.15 112.34C1195.15 113.82 1195.57 115.28 1196.47 115.28ZM1202.23 121V106.76H1204.89V118.36H1207.29V106.76H1209.95V118.36H1210.85V122.52H1208.21V121H1202.23Z" fill="#0F2241"/>
<path d="M1271.45 98.296C1274.85 86.2 1278.24 74.104 1281.57 61.944H1268.45V53.432H1290.65V60.92C1287.07 74.104 1283.49 87.352 1279.84 100.536L1271.45 98.296ZM1255.89 121V106.76H1258.91L1261.21 116.26L1263.51 106.76H1266.55V121H1263.97V112.98C1263.97 112.98 1262.39 120.22 1262.23 121H1260.19C1260.05 120.22 1258.45 112.98 1258.45 112.98V121H1255.89ZM1268.57 121V106.76H1275.29V109.42H1271.25V112.54H1274.03V115.18H1271.25V118.36H1275.29V121H1268.57ZM1280.49 118.52C1281.23 118.52 1281.69 117.08 1281.93 115.82L1284.55 116.24C1284.03 119.28 1282.59 121.18 1280.51 121.18C1277.55 121.18 1276.07 117.54 1276.07 113.9C1276.07 110.26 1277.55 106.6 1280.51 106.6C1282.59 106.6 1284.03 108.52 1284.55 111.54L1281.93 111.96C1281.69 110.68 1281.21 109.26 1280.49 109.26C1279.33 109.26 1278.73 111.92 1278.73 113.9C1278.73 116.08 1279.39 118.52 1280.49 118.52ZM1293.21 106.76V121H1290.55V117.9H1289.47L1288.19 121H1285.31L1287.11 116.82C1286.05 115.84 1285.51 114.2 1285.51 112.34C1285.51 109.56 1286.85 106.76 1289.43 106.76H1293.21ZM1289.47 115.28H1290.55V109.42H1289.53C1288.61 109.42 1288.15 110.88 1288.15 112.34C1288.15 113.82 1288.57 115.28 1289.47 115.28ZM1295.23 121V106.76H1297.89V118.36H1300.29V106.76H1302.95V118.36H1303.85V122.52H1301.21V121H1295.23Z" fill="#0F2241"/>
<path d="M36.6 325V302.216H49.24V325H44.984V306.472H40.856V325H36.6ZM61.595 313.64C61.595 310.056 60.507 306.216 58.683 306.216C56.827 306.216 55.803 310.12 55.803 313.64C55.803 317.064 56.827 321.064 58.683 321.064C60.507 321.064 61.595 317.256 61.595 313.64ZM51.547 313.64C51.547 307.624 54.011 301.96 58.715 301.96C63.355 301.96 65.851 307.688 65.851 313.64C65.851 319.592 63.355 325.288 58.715 325.288C54.011 325.288 51.547 319.56 51.547 313.64ZM66.7568 327.4V320.776H67.7168C68.9968 317.544 69.1888 310.536 69.1888 307.112V302.216H80.1328V320.776H81.6368V327.4H77.4128V325H70.9808V327.4H66.7568ZM71.8768 320.776H75.9408V306.472H73.3808V306.888C73.3808 314.824 72.5488 318.664 71.8768 320.776ZM83.6313 325V302.216H96.2713V325H92.0153V306.472H87.8873V325H83.6313ZM99.5063 325V302.216H103.698V315.656L108.722 302.216H113.01V325H108.85V311.496L103.826 325H99.5063ZM122.4 321.032C123.584 321.032 124.32 318.728 124.704 316.712L128.896 317.384C128.064 322.248 125.76 325.288 122.432 325.288C117.696 325.288 115.328 319.464 115.328 313.64C115.328 307.816 117.696 301.96 122.432 301.96C125.76 301.96 128.064 305.032 128.896 309.864L124.704 310.536C124.32 308.488 123.552 306.216 122.4 306.216C120.544 306.216 119.584 310.472 119.584 313.64C119.584 317.128 120.64 321.032 122.4 321.032ZM129.156 325L134.692 302.216H138.852L144.42 325H140.1L139.62 322.92H133.924L133.444 325H129.156ZM134.884 318.76H138.692L136.772 309.64L134.884 318.76ZM146.006 325V302.216H150.262V311.464H154.454V302.216H158.71V325H154.454V315.688H150.262V325H146.006ZM161.944 325V302.216H166.136V315.656L171.16 302.216H175.448V325H171.288V311.496L166.264 325H161.944ZM178.694 325V302.216H189.446V306.472H182.982V311.464H187.43V315.688H182.982V320.776H189.446V325H178.694ZM199.132 327.4V320.776H200.092C201.372 317.544 201.564 310.536 201.564 307.112V302.216H212.508V320.776H214.012V327.4H209.788V325H203.356V327.4H199.132ZM204.252 320.776H208.316V306.472H205.756V306.888C205.756 314.824 204.924 318.664 204.252 320.776ZM225.033 313.64C225.033 310.056 223.945 306.216 222.121 306.216C220.265 306.216 219.241 310.12 219.241 313.64C219.241 317.064 220.265 321.064 222.121 321.064C223.945 321.064 225.033 317.256 225.033 313.64ZM214.985 313.64C214.985 307.624 217.449 301.96 222.153 301.96C226.793 301.96 229.289 307.688 229.289 313.64C229.289 319.592 226.793 325.288 222.153 325.288C217.449 325.288 214.985 319.56 214.985 313.64ZM231.569 325V302.216H242.353V306.472H235.889V325H231.569ZM253.501 313.64C253.501 310.056 252.413 306.216 250.589 306.216C248.733 306.216 247.709 310.12 247.709 313.64C247.709 317.064 248.733 321.064 250.589 321.064C252.413 321.064 253.501 317.256 253.501 313.64ZM243.453 313.64C243.453 307.624 245.917 301.96 250.621 301.96C255.261 301.96 257.757 307.688 257.757 313.64C257.757 319.592 255.261 325.288 250.621 325.288C245.917 325.288 243.453 319.56 243.453 313.64ZM260.038 325V302.216H266.598C269.926 302.216 271.782 305.608 271.782 308.904C271.782 311.016 271.142 312.456 270.278 313.384C271.558 314.568 272.07 316.456 272.07 318.28C272.07 321.576 270.214 325 266.885 325H260.038ZM264.262 320.84H266.661C267.494 320.84 267.91 319.496 267.91 318.152C267.91 316.84 267.43 315.496 266.661 315.496H264.262V320.84ZM264.262 311.656H266.31C267.11 311.656 267.558 310.376 267.558 309C267.558 307.688 267.142 306.44 266.31 306.44H264.262V311.656ZM283.783 313.64C283.783 310.056 282.695 306.216 280.871 306.216C279.015 306.216 277.991 310.12 277.991 313.64C277.991 317.064 279.015 321.064 280.871 321.064C282.695 321.064 283.783 317.256 283.783 313.64ZM273.735 313.64C273.735 307.624 276.199 301.96 280.903 301.96C285.543 301.96 288.039 307.688 288.039 313.64C288.039 319.592 285.543 325.288 280.903 325.288C276.199 325.288 273.735 319.56 273.735 313.64ZM290.319 325V302.216H296.367C300.495 302.216 302.607 306.696 302.607 311.144C302.607 315.688 300.527 320.072 296.335 320.072H294.575V325H290.319ZM294.575 315.848H296.303C297.743 315.848 298.383 313.512 298.383 311.144C298.383 308.808 297.679 306.472 296.207 306.472H294.575V315.848ZM302.125 325L307.661 302.216H311.821L317.389 325H313.069L312.589 322.92H306.893L306.413 325H302.125ZM307.853 318.76H311.661L309.741 309.64L307.853 318.76ZM327.413 325V302.216H331.669V311.496H332.757L335.925 302.216H340.533L336.373 313.608L340.501 325H335.925L332.757 315.72H331.669V325H327.413ZM351.126 313.64C351.126 310.056 350.038 306.216 348.214 306.216C346.358 306.216 345.334 310.12 345.334 313.64C345.334 317.064 346.358 321.064 348.214 321.064C350.038 321.064 351.126 317.256 351.126 313.64ZM341.078 313.64C341.078 307.624 343.542 301.96 348.246 301.96C352.886 301.96 355.382 307.688 355.382 313.64C355.382 319.592 352.886 325.288 348.246 325.288C343.542 325.288 341.078 319.56 341.078 313.64ZM357.663 325V302.216H362.495L366.175 317.416L369.855 302.216H374.719V325H370.591V312.168C370.591 312.168 368.063 323.752 367.807 325H364.543C364.319 323.752 361.759 312.168 361.759 312.168V325H357.663ZM377.944 325V302.216H382.776L386.456 317.416L390.136 302.216H395V325H390.872V312.168C390.872 312.168 388.344 323.752 388.088 325H384.824C384.6 323.752 382.04 312.168 382.04 312.168V325H377.944ZM398.225 325V302.216H408.977V306.472H402.513V311.464H406.961V315.688H402.513V320.776H408.977V325H398.225ZM411.538 325V302.216H417.586C421.714 302.216 423.826 306.696 423.826 311.144C423.826 315.688 421.746 320.072 417.554 320.072H415.794V325H411.538ZM415.794 315.848H417.522C418.962 315.848 419.602 313.512 419.602 311.144C419.602 308.808 418.898 306.472 417.426 306.472H415.794V315.848ZM433.524 302.216H437.78V325H433.524V318.184C432.596 318.76 431.508 319.208 430.484 319.208C427.668 319.208 425.748 317.416 425.748 312.168V302.216H429.972V312.2C429.972 313.64 430.1 314.952 431.22 314.952C431.892 314.952 432.852 314.408 433.524 313.832V302.216ZM440.975 325V302.216H451.727V306.472H445.263V311.464H449.711V315.688H445.263V320.776H451.727V325H440.975ZM460.057 321.032C461.241 321.032 461.977 318.728 462.361 316.712L466.553 317.384C465.721 322.248 463.417 325.288 460.089 325.288C455.353 325.288 452.985 319.464 452.985 313.64C452.985 307.816 455.353 301.96 460.089 301.96C463.417 301.96 465.721 305.032 466.553 309.864L462.361 310.536C461.977 308.488 461.209 306.216 460.057 306.216C458.201 306.216 457.241 310.472 457.241 313.64C457.241 317.128 458.297 321.032 460.057 321.032ZM468.663 325V302.216H472.919V311.496H474.007L477.175 302.216H481.783L477.623 313.608L481.751 325H477.175L474.007 315.72H472.919V325H468.663ZM492.376 313.64C492.376 310.056 491.288 306.216 489.464 306.216C487.608 306.216 486.584 310.12 486.584 313.64C486.584 317.064 487.608 321.064 489.464 321.064C491.288 321.064 492.376 317.256 492.376 313.64ZM482.328 313.64C482.328 307.624 484.792 301.96 489.496 301.96C494.136 301.96 496.632 307.688 496.632 313.64C496.632 319.592 494.136 325.288 489.496 325.288C484.792 325.288 482.328 319.56 482.328 313.64ZM498.913 325V302.216H503.105V315.656L508.129 302.216H512.417V325H508.257V311.496L503.233 325H498.913ZM500.801 297.064L504.161 295.752C504.641 296.968 505.153 298.344 505.601 298.344C506.017 298.344 506.529 297 507.073 295.72L510.401 297.064C509.537 299.24 508.033 301.96 505.601 301.96C503.169 301.96 501.665 299.208 500.801 297.064ZM524.1 325V302.216H528.356V311.496H529.444L532.612 302.216H537.22L533.06 313.608L537.188 325H532.612L529.444 315.72H528.356V325H524.1ZM547.814 313.64C547.814 310.056 546.726 306.216 544.902 306.216C543.046 306.216 542.022 310.12 542.022 313.64C542.022 317.064 543.046 321.064 544.902 321.064C546.726 321.064 547.814 317.256 547.814 313.64ZM537.766 313.64C537.766 307.624 540.23 301.96 544.934 301.96C549.574 301.96 552.07 307.688 552.07 313.64C552.07 319.592 549.574 325.288 544.934 325.288C540.23 325.288 537.766 319.56 537.766 313.64ZM554.35 325V302.216H558.606V311.464H562.798V302.216H567.054V325H562.798V315.688H558.606V325H554.35ZM570.288 325V302.216H574.544V320.776H578.384V302.216H582.64V320.776H584.08V327.432H579.856V325H570.288ZM586.1 325V302.216H596.852V306.472H590.388V311.464H594.836V315.688H590.388V320.776H596.852V325H586.1ZM605.182 321.032C606.366 321.032 607.102 318.728 607.486 316.712L611.678 317.384C610.846 322.248 608.542 325.288 605.214 325.288C600.478 325.288 598.11 319.464 598.11 313.64C598.11 307.816 600.478 301.96 605.214 301.96C608.542 301.96 610.846 305.032 611.678 309.864L607.486 310.536C607.102 308.488 606.334 306.216 605.182 306.216C603.326 306.216 602.366 310.472 602.366 313.64C602.366 317.128 603.422 321.032 605.182 321.032ZM619.932 321.032C621.116 321.032 621.852 318.728 622.236 316.712L626.428 317.384C625.596 322.248 623.292 325.288 619.964 325.288C615.228 325.288 612.86 319.464 612.86 313.64C612.86 307.816 615.228 301.96 619.964 301.96C623.292 301.96 625.596 305.032 626.428 309.864L622.236 310.536C621.852 308.488 621.084 306.216 619.932 306.216C618.076 306.216 617.116 310.472 617.116 313.64C617.116 317.128 618.172 321.032 619.932 321.032ZM628.538 325V302.216H632.73V315.656L637.754 302.216H642.042V325H637.882V311.496L632.858 325H628.538ZM645.288 325V302.216H649.48V315.656L654.504 302.216H658.792V325H654.632V311.496L649.608 325H645.288Z" fill="#0F2241"/>
<path d="M35.74 349V346.3C37.98 344.68 40.04 342.02 40.04 339.7C40.04 338.16 39.72 337.24 39.18 337.24C38.66 337.24 38.28 338.44 38.2 340.24L35.56 340.04C35.82 336.34 37.38 334.6 39.18 334.6C40.96 334.6 42.64 336.52 42.64 339.8C42.64 342.34 41.2 344.52 39.22 346.36H42.56V349H35.74ZM43.5227 343.28V340.64H47.9627V343.28H43.5227ZM48.6641 344.88L51.2641 344.44C51.4641 345.62 51.8441 346.54 52.3241 346.54C52.9641 346.54 53.2841 345.62 53.2841 344.88C53.2841 344.02 53.0041 343.18 52.2441 343.18H51.3641V340.56H52.2441C52.9041 340.56 53.2441 339.84 53.2441 338.92C53.2441 338.1 52.8841 337.24 52.2841 337.24C51.9641 337.24 51.4641 337.9 51.2241 339.26L48.6041 338.8C49.2241 335.66 50.9641 334.6 52.2441 334.6C54.3841 334.6 55.8441 336.56 55.8441 338.92C55.8441 340.26 55.3641 341.22 54.7841 341.84C55.4041 342.44 55.9241 343.38 55.9241 344.88C55.9241 347.38 54.3041 349.18 52.2841 349.18C51.1441 349.18 49.3041 348.52 48.6641 344.88ZM62.7578 349V334.76H65.4178V340.54H68.0378V334.76H70.6978V349H68.0378V343.18H65.4178V349H62.7578ZM72.7188 349V334.76H79.4388V337.42H75.3988V340.54H78.1788V343.18H75.3988V346.36H79.4388V349H72.7188ZM80.2191 350.5V346.36H80.8191C81.6191 344.34 81.7391 339.96 81.7391 337.82V334.76H88.5791V346.36H89.5191V350.5H86.8791V349H82.8591V350.5H80.2191ZM83.4191 346.36H85.9591V337.42H84.3591V337.68C84.3591 342.64 83.8391 345.04 83.4191 346.36ZM90.7656 349V334.76H97.4856V337.42H93.4456V340.54H96.2256V343.18H93.4456V346.36H97.4856V349H90.7656ZM100.066 334.76H106.886V349H104.266V337.42H102.666C102.646 340.24 102.566 342.6 102.266 344.4C101.866 346.68 101.146 348.42 99.2859 349.5L97.8459 347.34C98.8059 346.66 99.3859 345.92 99.7059 343.92C100.046 341.9 100.066 338.9 100.066 334.76ZM108.891 349V334.76H111.511V343.16L114.651 334.76H117.331V349H114.731V340.56L111.591 349H108.891Z" fill="#E94F35"/>
<path d="M35.18 461.5V457.36H35.78C36.58 455.34 36.7 450.96 36.7 448.82V445.76H43.54V457.36H44.48V461.5H41.84V460H37.82V461.5H35.18ZM38.38 457.36H40.92V448.42H39.32V448.68C39.32 453.64 38.8 456.04 38.38 457.36ZM51.368 452.9C51.368 450.66 50.688 448.26 49.548 448.26C48.388 448.26 47.748 450.7 47.748 452.9C47.748 455.04 48.388 457.54 49.548 457.54C50.688 457.54 51.368 455.16 51.368 452.9ZM45.088 452.9C45.088 449.14 46.628 445.6 49.568 445.6C52.468 445.6 54.028 449.18 54.028 452.9C54.028 456.62 52.468 460.18 49.568 460.18C46.628 460.18 45.088 456.6 45.088 452.9ZM60.4666 460V457.3C62.7066 455.68 64.7666 453.02 64.7666 450.7C64.7666 449.16 64.4466 448.24 63.9066 448.24C63.3866 448.24 63.0066 449.44 62.9266 451.24L60.2866 451.04C60.5466 447.34 62.1066 445.6 63.9066 445.6C65.6866 445.6 67.3666 447.52 67.3666 450.8C67.3666 453.34 65.9266 455.52 63.9466 457.36H67.2866V460H60.4666ZM74.2227 460V445.76H77.2427L79.5427 455.26L81.8427 445.76H84.8827V460H82.3027V451.98C82.3027 451.98 80.7227 459.22 80.5627 460H78.5227C78.3827 459.22 76.7827 451.98 76.7827 451.98V460H74.2227ZM86.8984 460V445.76H93.6184V448.42H89.5784V451.54H92.3584V454.18H89.5784V457.36H93.6184V460H86.8984ZM98.8244 457.52C99.5644 457.52 100.024 456.08 100.264 454.82L102.884 455.24C102.364 458.28 100.924 460.18 98.8444 460.18C95.8844 460.18 94.4044 456.54 94.4044 452.9C94.4044 449.26 95.8844 445.6 98.8444 445.6C100.924 445.6 102.364 447.52 102.884 450.54L100.264 450.96C100.024 449.68 99.5444 448.26 98.8244 448.26C97.6644 448.26 97.0644 450.92 97.0644 452.9C97.0644 455.08 97.7244 457.52 98.8244 457.52ZM111.543 445.76V460H108.883V456.9H107.803L106.523 460H103.643L105.443 455.82C104.383 454.84 103.843 453.2 103.843 451.34C103.843 448.56 105.183 445.76 107.763 445.76H111.543ZM107.803 454.28H108.883V448.42H107.863C106.943 448.42 106.483 449.88 106.483 451.34C106.483 452.82 106.903 454.28 107.803 454.28ZM113.559 460V445.76H116.219V457.36H118.619V445.76H121.279V457.36H122.179V461.52H119.539V460H113.559ZM123.441 460V445.76H130.161V448.42H126.121V451.54H128.901V454.18H126.121V457.36H130.161V460H123.441ZM131.762 460V445.76H135.862C137.942 445.76 139.102 447.88 139.102 449.94C139.102 451.26 138.702 452.16 138.162 452.74C138.962 453.48 139.282 454.66 139.282 455.8C139.282 457.86 138.122 460 136.042 460H131.762ZM134.402 457.4H135.902C136.422 457.4 136.682 456.56 136.682 455.72C136.682 454.9 136.382 454.06 135.902 454.06H134.402V457.4ZM134.402 451.66H135.682C136.182 451.66 136.462 450.86 136.462 450C136.462 449.18 136.202 448.4 135.682 448.4H134.402V451.66Z" fill="#E94F35"/>
<path d="M35.74 571V568.3C37.98 566.68 40.04 564.02 40.04 561.7C40.04 560.16 39.72 559.24 39.18 559.24C38.66 559.24 38.28 560.44 38.2 562.24L35.56 562.04C35.82 558.34 37.38 556.6 39.18 556.6C40.96 556.6 42.64 558.52 42.64 561.8C42.64 564.34 41.2 566.52 39.22 568.36H42.56V571H35.74ZM49.4961 571V556.76H52.5161L54.8161 566.26L57.1161 556.76H60.1561V571H57.5761V562.98C57.5761 562.98 55.9961 570.22 55.8361 571H53.7961C53.6561 570.22 52.0561 562.98 52.0561 562.98V571H49.4961ZM62.1719 571V556.76H68.8919V559.42H64.8519V562.54H67.6319V565.18H64.8519V568.36H68.8919V571H62.1719ZM74.0978 568.52C74.8378 568.52 75.2978 567.08 75.5378 565.82L78.1578 566.24C77.6378 569.28 76.1978 571.18 74.1178 571.18C71.1578 571.18 69.6778 567.54 69.6778 563.9C69.6778 560.26 71.1578 556.6 74.1178 556.6C76.1978 556.6 77.6378 558.52 78.1578 561.54L75.5378 561.96C75.2978 560.68 74.8178 559.26 74.0978 559.26C72.9378 559.26 72.3378 561.92 72.3378 563.9C72.3378 566.08 72.9978 568.52 74.0978 568.52ZM86.8166 556.76V571H84.1566V567.9H83.0766L81.7966 571H78.9166L80.7166 566.82C79.6566 565.84 79.1166 564.2 79.1166 562.34C79.1166 559.56 80.4566 556.76 83.0366 556.76H86.8166ZM83.0766 565.28H84.1566V559.42H83.1366C82.2166 559.42 81.7566 560.88 81.7566 562.34C81.7566 563.82 82.1766 565.28 83.0766 565.28ZM88.832 571V556.76H91.492V568.36H93.892V556.76H96.552V568.36H97.452V572.52H94.812V571H88.832ZM97.7148 571L101.175 556.76H103.775L107.255 571H104.555L104.255 569.7H100.695L100.395 571H97.7148ZM101.295 567.1H103.675L102.475 561.4L101.295 567.1Z" fill="#E94F35"/>
<path d="M35.5 677.88L38.1 677.44C38.3 678.62 38.68 679.54 39.16 679.54C39.8 679.54 40.12 678.62 40.12 677.88C40.12 677.02 39.84 676.18 39.08 676.18H38.2V673.56H39.08C39.74 673.56 40.08 672.84 40.08 671.92C40.08 671.1 39.72 670.24 39.12 670.24C38.8 670.24 38.3 670.9 38.06 672.26L35.44 671.8C36.06 668.66 37.8 667.6 39.08 667.6C41.22 667.6 42.68 669.56 42.68 671.92C42.68 673.26 42.2 674.22 41.62 674.84C42.24 675.44 42.76 676.38 42.76 677.88C42.76 680.38 41.14 682.18 39.12 682.18C37.98 682.18 36.14 681.52 35.5 677.88ZM49.5938 682V667.76H52.6138L54.9138 677.26L57.2138 667.76H60.2538V682H57.6738V673.98C57.6738 673.98 56.0938 681.22 55.9338 682H53.8938C53.7538 681.22 52.1538 673.98 52.1538 673.98V682H49.5938ZM62.2695 682V667.76H68.9895V670.42H64.9495V673.54H67.7295V676.18H64.9495V679.36H68.9895V682H62.2695ZM74.1955 679.52C74.9355 679.52 75.3955 678.08 75.6355 676.82L78.2555 677.24C77.7355 680.28 76.2955 682.18 74.2155 682.18C71.2555 682.18 69.7755 678.54 69.7755 674.9C69.7755 671.26 71.2555 667.6 74.2155 667.6C76.2955 667.6 77.7355 669.52 78.2555 672.54L75.6355 672.96C75.3955 671.68 74.9155 670.26 74.1955 670.26C73.0355 670.26 72.4355 672.92 72.4355 674.9C72.4355 677.08 73.0955 679.52 74.1955 679.52ZM86.9142 667.76V682H84.2542V678.9H83.1742L81.8942 682H79.0142L80.8142 677.82C79.7542 676.84 79.2142 675.2 79.2142 673.34C79.2142 670.56 80.5542 667.76 83.1342 667.76H86.9142ZM83.1742 676.28H84.2542V670.42H83.2342C82.3142 670.42 81.8542 671.88 81.8542 673.34C81.8542 674.82 82.2742 676.28 83.1742 676.28ZM88.9297 682V667.76H91.5897V679.36H93.9897V667.76H96.6497V679.36H97.5497V683.52H94.9097V682H88.9297ZM97.8125 682L101.273 667.76H103.873L107.353 682H104.653L104.353 680.7H100.793L100.493 682H97.8125ZM101.393 678.1H103.773L102.573 672.4L101.393 678.1Z" fill="#E94F35"/>
<path d="M36.6 436V413.216H49.24V436H44.984V417.472H40.856V436H36.6ZM61.595 424.64C61.595 421.056 60.507 417.216 58.683 417.216C56.827 417.216 55.803 421.12 55.803 424.64C55.803 428.064 56.827 432.064 58.683 432.064C60.507 432.064 61.595 428.256 61.595 424.64ZM51.547 424.64C51.547 418.624 54.011 412.96 58.715 412.96C63.355 412.96 65.851 418.688 65.851 424.64C65.851 430.592 63.355 436.288 58.715 436.288C54.011 436.288 51.547 430.56 51.547 424.64ZM68.1313 436V413.216H72.3233V426.656L77.3473 413.216H81.6353V436H77.4753V422.496L72.4513 436H68.1313ZM91.0253 432.032C92.2093 432.032 92.9453 429.728 93.3293 427.712L97.5213 428.384C96.6893 433.248 94.3853 436.288 91.0573 436.288C86.3213 436.288 83.9533 430.464 83.9533 424.64C83.9533 418.816 86.3213 412.96 91.0573 412.96C94.3853 412.96 96.6893 416.032 97.5213 420.864L93.3293 421.536C92.9453 419.488 92.1773 417.216 91.0253 417.216C89.1693 417.216 88.2093 421.472 88.2093 424.64C88.2093 428.128 89.2653 432.032 91.0253 432.032ZM99.6313 436V413.216H103.887V422.496H104.975L108.143 413.216H112.751L108.591 424.608L112.719 436H108.143L104.975 426.72H103.887V436H99.6313ZM123.288 436V413.216H127.48V426.656L132.504 413.216H136.792V436H132.632V422.496L127.608 436H123.288ZM154.619 432.032C155.803 432.032 156.539 429.728 156.923 427.712L161.115 428.384C160.283 433.248 157.979 436.288 154.651 436.288C149.915 436.288 147.547 430.464 147.547 424.64C147.547 418.816 149.915 412.96 154.651 412.96C157.979 412.96 160.283 416.032 161.115 420.864L156.923 421.536C156.539 419.488 155.771 417.216 154.619 417.216C152.763 417.216 151.803 421.472 151.803 424.64C151.803 428.128 152.859 432.032 154.619 432.032ZM172.345 424.64C172.345 421.056 171.257 417.216 169.433 417.216C167.577 417.216 166.553 421.12 166.553 424.64C166.553 428.064 167.577 432.064 169.433 432.064C171.257 432.064 172.345 428.256 172.345 424.64ZM162.297 424.64C162.297 418.624 164.761 412.96 169.465 412.96C174.105 412.96 176.601 418.688 176.601 424.64C176.601 430.592 174.105 436.288 169.465 436.288C164.761 436.288 162.297 430.56 162.297 424.64ZM178.881 436V413.216H189.665V417.472H183.201V436H178.881ZM191.824 413.216H202.736V436H198.544V417.472H195.984C195.952 421.984 195.824 425.76 195.344 428.64C194.704 432.288 193.552 435.072 190.576 436.8L188.272 433.344C189.808 432.256 190.736 431.072 191.248 427.872C191.792 424.64 191.824 419.84 191.824 413.216ZM204.344 436L209.88 413.216H214.04L219.608 436H215.288L214.808 433.92H209.112L208.632 436H204.344ZM210.072 429.76H213.88L211.96 420.64L210.072 429.76ZM226.775 432.032C227.959 432.032 228.695 429.728 229.079 427.712L233.271 428.384C232.439 433.248 230.135 436.288 226.807 436.288C222.071 436.288 219.703 430.464 219.703 424.64C219.703 418.816 222.071 412.96 226.807 412.96C230.135 412.96 232.439 416.032 233.271 420.864L229.079 421.536C228.695 419.488 227.927 417.216 226.775 417.216C224.919 417.216 223.959 421.472 223.959 424.64C223.959 428.128 225.015 432.032 226.775 432.032ZM244.501 424.64C244.501 421.056 243.413 417.216 241.589 417.216C239.733 417.216 238.709 421.12 238.709 424.64C238.709 428.064 239.733 432.064 241.589 432.064C243.413 432.064 244.501 428.256 244.501 424.64ZM234.453 424.64C234.453 418.624 236.917 412.96 241.621 412.96C246.261 412.96 248.757 418.688 248.757 424.64C248.757 430.592 246.261 436.288 241.621 436.288C236.917 436.288 234.453 430.56 234.453 424.64ZM251.038 436V413.216H257.598C260.926 413.216 262.782 416.608 262.782 419.904C262.782 422.016 262.142 423.456 261.278 424.384C262.558 425.568 263.07 427.456 263.07 429.28C263.07 432.576 261.214 436 257.885 436H251.038ZM255.262 431.84H257.661C258.494 431.84 258.91 430.496 258.91 429.152C258.91 427.84 258.43 426.496 257.661 426.496H255.262V431.84ZM255.262 422.656H257.31C258.11 422.656 258.558 421.376 258.558 420C258.558 418.688 258.142 417.44 257.31 417.44H255.262V422.656ZM263.906 436L269.442 413.216H273.602L279.17 436H274.85L274.37 433.92H268.674L268.194 436H263.906ZM269.634 429.76H273.442L271.522 420.64L269.634 429.76ZM280.756 436V413.216H285.012V422.464H289.204V413.216H293.46V436H289.204V426.688H285.012V436H280.756ZM296.694 436V413.216H300.886V426.656L305.91 413.216H310.198V436H306.038V422.496L301.014 436H296.694ZM313.444 436V413.216H324.196V417.472H317.732V422.464H322.18V426.688H317.732V431.776H324.196V436H313.444ZM335.194 436V413.216H347.834V436H343.578V417.472H339.45V436H335.194ZM360.189 424.64C360.189 421.056 359.101 417.216 357.277 417.216C355.421 417.216 354.397 421.12 354.397 424.64C354.397 428.064 355.421 432.064 357.277 432.064C359.101 432.064 360.189 428.256 360.189 424.64ZM350.141 424.64C350.141 418.624 352.605 412.96 357.309 412.96C361.949 412.96 364.445 418.688 364.445 424.64C364.445 430.592 361.949 436.288 357.309 436.288C352.605 436.288 350.141 430.56 350.141 424.64ZM366.725 436V413.216H371.557L375.237 428.416L378.917 413.216H383.781V436H379.653V423.168C379.653 423.168 377.125 434.752 376.869 436H373.605C373.381 434.752 370.821 423.168 370.821 423.168V436H366.725ZM387.006 436V413.216H397.758V417.472H391.294V422.464H395.742V426.688H391.294V431.776H397.758V436H387.006ZM400.319 436V413.216H404.543V431.776H407.391V413.216H411.551V431.776H414.463V413.216H418.655V431.776H420.127V438.432H415.903V436H400.319ZM422.1 436V413.216H432.852V417.472H426.388V422.464H430.836V426.688H426.388V431.776H432.852V436H422.1ZM435.413 436V413.216H439.669V422.464H443.861V413.216H448.117V436H443.861V426.688H439.669V436H435.413ZM451.35 436V413.216H455.542V426.656L460.566 413.216H464.854V436H460.694V422.496L455.67 436H451.35ZM479.844 413.216V436H475.588V431.04H473.86L471.812 436H467.204L470.084 429.312C468.388 427.744 467.524 425.12 467.524 422.144C467.524 417.696 469.668 413.216 473.796 413.216H479.844ZM473.86 426.848H475.588V417.472H473.956C472.484 417.472 471.748 419.808 471.748 422.144C471.748 424.512 472.42 426.848 473.86 426.848Z" fill="#0F2241"/>
<path d="M36.6 547V524.216H49.24V547H44.984V528.472H40.856V547H36.6ZM61.595 535.64C61.595 532.056 60.507 528.216 58.683 528.216C56.827 528.216 55.803 532.12 55.803 535.64C55.803 539.064 56.827 543.064 58.683 543.064C60.507 543.064 61.595 539.256 61.595 535.64ZM51.547 535.64C51.547 529.624 54.011 523.96 58.715 523.96C63.355 523.96 65.851 529.688 65.851 535.64C65.851 541.592 63.355 547.288 58.715 547.288C54.011 547.288 51.547 541.56 51.547 535.64ZM66.7568 549.4V542.776H67.7168C68.9968 539.544 69.1888 532.536 69.1888 529.112V524.216H80.1328V542.776H81.6368V549.4H77.4128V547H70.9808V549.4H66.7568ZM71.8768 542.776H75.9408V528.472H73.3808V528.888C73.3808 536.824 72.5488 540.664 71.8768 542.776ZM83.6313 547V524.216H94.4153V528.472H87.9513V547H83.6313ZM105.564 535.64C105.564 532.056 104.476 528.216 102.652 528.216C100.796 528.216 99.7718 532.12 99.7718 535.64C99.7718 539.064 100.796 543.064 102.652 543.064C104.476 543.064 105.564 539.256 105.564 535.64ZM95.5158 535.64C95.5158 529.624 97.9798 523.96 102.684 523.96C107.324 523.96 109.82 529.688 109.82 535.64C109.82 541.592 107.324 547.288 102.684 547.288C97.9798 547.288 95.5158 541.56 95.5158 535.64ZM114.989 547V528.472H110.797V524.216H123.437V528.472H119.245V547H114.989ZM134.501 535.64C134.501 532.056 133.413 528.216 131.589 528.216C129.733 528.216 128.709 532.12 128.709 535.64C128.709 539.064 129.733 543.064 131.589 543.064C133.413 543.064 134.501 539.256 134.501 535.64ZM124.453 535.64C124.453 529.624 126.917 523.96 131.621 523.96C136.261 523.96 138.757 529.688 138.757 535.64C138.757 541.592 136.261 547.288 131.621 547.288C126.917 547.288 124.453 541.56 124.453 535.64ZM141.038 547V524.216H147.598C150.926 524.216 152.782 527.608 152.782 530.904C152.782 533.016 152.142 534.456 151.278 535.384C152.558 536.568 153.07 538.456 153.07 540.28C153.07 543.576 151.214 547 147.885 547H141.038ZM145.262 542.84H147.661C148.494 542.84 148.91 541.496 148.91 540.152C148.91 538.84 148.43 537.496 147.661 537.496H145.262V542.84ZM145.262 533.656H147.31C148.11 533.656 148.558 532.376 148.558 531C148.558 529.688 148.142 528.44 147.31 528.44H145.262V533.656ZM155.663 547V524.216H159.919V533.496H161.007L164.175 524.216H168.783L164.623 535.608L168.751 547H164.175L161.007 537.72H159.919V547H155.663ZM169.281 547L174.817 524.216H178.977L184.545 547H180.225L179.745 544.92H174.049L173.569 547H169.281ZM175.009 540.76H178.817L176.897 531.64L175.009 540.76ZM194.569 547V524.216H207.209V547H202.953V528.472H198.825V547H194.569ZM210.444 547V524.216H216.492C220.62 524.216 222.732 528.696 222.732 533.144C222.732 537.688 220.652 542.072 216.46 542.072H214.7V547H210.444ZM214.7 537.848H216.428C217.868 537.848 218.508 535.512 218.508 533.144C218.508 530.808 217.804 528.472 216.332 528.472H214.7V537.848ZM234.283 535.64C234.283 532.056 233.195 528.216 231.371 528.216C229.515 528.216 228.491 532.12 228.491 535.64C228.491 539.064 229.515 543.064 231.371 543.064C233.195 543.064 234.283 539.256 234.283 535.64ZM224.235 535.64C224.235 529.624 226.699 523.96 231.403 523.96C236.043 523.96 238.539 529.688 238.539 535.64C238.539 541.592 236.043 547.288 231.403 547.288C226.699 547.288 224.235 541.56 224.235 535.64ZM240.819 547V524.216H251.571V528.472H245.107V533.464H249.555V537.688H245.107V542.776H251.571V547H240.819ZM254.131 547V524.216H258.387V533.496H259.475L262.643 524.216H267.251L263.091 535.608L267.219 547H262.643L259.475 537.72H258.387V547H254.131ZM272.614 547V528.472H268.422V524.216H281.062V528.472H276.87V547H272.614ZM279.719 547L285.255 524.216H289.415L294.983 547H290.663L290.183 544.92H284.487L284.007 547H279.719ZM285.447 540.76H289.255L287.335 531.64L285.447 540.76ZM305.006 547V524.216H309.198V537.656L314.222 524.216H318.51V547H314.35V533.496L309.326 547H305.006ZM330.194 547V524.216H334.45V533.464H338.642V524.216H342.898V547H338.642V537.688H334.45V547H330.194ZM346.131 547V524.216H356.883V528.472H350.419V533.464H354.867V537.688H350.419V542.776H356.883V547H346.131ZM368.189 535.64C368.189 532.056 367.101 528.216 365.277 528.216C363.421 528.216 362.397 532.12 362.397 535.64C362.397 539.064 363.421 543.064 365.277 543.064C367.101 543.064 368.189 539.256 368.189 535.64ZM358.141 535.64C358.141 529.624 360.605 523.96 365.309 523.96C369.949 523.96 372.445 529.688 372.445 535.64C372.445 541.592 369.949 547.288 365.309 547.288C360.605 547.288 358.141 541.56 358.141 535.64ZM378.981 542.776H381.029C382.181 542.776 382.693 540.792 382.693 538.808C382.693 536.824 382.181 534.776 381.093 534.776H378.981V542.776ZM374.725 547V524.216H385.797V528.472H378.949V530.744H381.125C385.061 530.744 386.885 534.616 386.885 538.712C386.885 542.776 384.997 547 381.189 547H374.725ZM392.332 535.416L387.852 524.216H392.46C393.292 526.52 394.156 528.76 394.988 531.064C395.82 528.76 396.684 526.52 397.516 524.216H402.156L397.676 535.416L402.316 547H397.708C396.78 544.6 395.916 542.168 394.988 539.768L392.3 547H387.692L392.332 535.416ZM412.533 535.64C412.533 532.056 411.445 528.216 409.621 528.216C407.765 528.216 406.741 532.12 406.741 535.64C406.741 539.064 407.765 543.064 409.621 543.064C411.445 543.064 412.533 539.256 412.533 535.64ZM402.485 535.64C402.485 529.624 404.949 523.96 409.653 523.96C414.293 523.96 416.789 529.688 416.789 535.64C416.789 541.592 414.293 547.288 409.653 547.288C404.949 547.288 402.485 541.56 402.485 535.64ZM417.694 549.4V542.776H418.654C419.934 539.544 420.126 532.536 420.126 529.112V524.216H431.07V542.776H432.574V549.4H428.35V547H421.918V549.4H417.694ZM422.814 542.776H426.878V528.472H424.318V528.888C424.318 536.824 423.486 540.664 422.814 542.776ZM434.569 547V524.216H438.761V537.656L443.785 524.216H448.073V547H443.913V533.496L438.889 547H434.569ZM451.319 547V524.216H456.151L459.831 539.416L463.511 524.216H468.375V547H464.247V534.168C464.247 534.168 461.719 545.752 461.463 547H458.199C457.975 545.752 455.415 534.168 455.415 534.168V547H451.319ZM475.792 542.808H477.36C478.512 542.808 478.992 540.888 478.992 539.096C478.992 536.952 478.48 535.384 477.2 535.384H475.792V542.808ZM471.6 547V524.216H475.856V531.16H477.424C481.52 531.16 482.96 535.096 482.96 539C482.96 542.968 481.36 547 477.456 547H471.6ZM483.952 524.216H488.208V547H483.952V524.216ZM494.645 535.416L490.165 524.216H494.773C495.605 526.52 496.469 528.76 497.301 531.064C498.133 528.76 498.997 526.52 499.829 524.216H504.469L499.989 535.416L504.629 547H500.021C499.093 544.6 498.229 542.168 497.301 539.768L494.613 547H490.005L494.645 535.416ZM513.569 549.4V542.776H514.529C515.809 539.544 516.001 532.536 516.001 529.112V524.216H526.945V542.776H528.449V549.4H524.225V547H517.793V549.4H513.569ZM518.689 542.776H522.753V528.472H520.193V528.888C520.193 536.824 519.361 540.664 518.689 542.776ZM539.47 535.64C539.47 532.056 538.382 528.216 536.558 528.216C534.702 528.216 533.678 532.12 533.678 535.64C533.678 539.064 534.702 543.064 536.558 543.064C538.382 543.064 539.47 539.256 539.47 535.64ZM529.422 535.64C529.422 529.624 531.886 523.96 536.59 523.96C541.23 523.96 543.726 529.688 543.726 535.64C543.726 541.592 541.23 547.288 536.59 547.288C531.886 547.288 529.422 541.56 529.422 535.64ZM546.006 547V524.216H550.262V533.496H551.35L554.518 524.216H559.126L554.966 535.608L559.094 547H554.518L551.35 537.72H550.262V547H546.006ZM563.081 547C563.561 545.304 564.009 543.64 564.457 541.944C562.921 536.024 561.353 530.136 559.785 524.216H564.265L566.665 534.616L569.065 524.216H573.545L567.465 547H563.081ZM575.163 547V524.216H579.995L583.675 539.416L587.355 524.216H592.219V547H588.091V534.168C588.091 534.168 585.563 545.752 585.307 547H582.043C581.819 545.752 579.259 534.168 579.259 534.168V547H575.163ZM595.444 547V524.216H606.196V528.472H599.732V533.464H604.18V537.688H599.732V542.776H606.196V547H595.444ZM608.756 547V524.216H613.012V533.464H617.204V524.216H621.46V547H617.204V537.688H613.012V547H608.756ZM627.958 547V528.472H623.766V524.216H636.406V528.472H632.214V547H627.958ZM647.47 535.64C647.47 532.056 646.382 528.216 644.558 528.216C642.702 528.216 641.678 532.12 641.678 535.64C641.678 539.064 642.702 543.064 644.558 543.064C646.382 543.064 647.47 539.256 647.47 535.64ZM637.422 535.64C637.422 529.624 639.886 523.96 644.59 523.96C649.23 523.96 651.726 529.688 651.726 535.64C651.726 541.592 649.23 547.288 644.59 547.288C639.886 547.288 637.422 541.56 637.422 535.64ZM654.006 547V524.216H660.566C663.894 524.216 665.75 527.608 665.75 530.904C665.75 533.016 665.11 534.456 664.246 535.384C665.526 536.568 666.038 538.456 666.038 540.28C666.038 543.576 664.182 547 660.854 547H654.006ZM658.23 542.84H660.63C661.462 542.84 661.878 541.496 661.878 540.152C661.878 538.84 661.398 537.496 660.63 537.496H658.23V542.84ZM658.23 533.656H660.278C661.078 533.656 661.526 532.376 661.526 531C661.526 529.688 661.11 528.44 660.278 528.44H658.23V533.656Z" fill="#0F2241"/>
<path d="M42.744 654.032C43.928 654.032 44.664 651.728 45.048 649.712L49.24 650.384C48.408 655.248 46.104 658.288 42.776 658.288C38.04 658.288 35.672 652.464 35.672 646.64C35.672 640.816 38.04 634.96 42.776 634.96C46.104 634.96 48.408 638.032 49.24 642.864L45.048 643.536C44.664 641.488 43.896 639.216 42.744 639.216C40.888 639.216 39.928 643.472 39.928 646.64C39.928 650.128 40.984 654.032 42.744 654.032ZM54.489 658V639.472H50.297V635.216H62.937V639.472H58.745V658H54.489ZM65.2563 658V635.216H71.3043C75.4323 635.216 77.5443 639.696 77.5443 644.144C77.5443 648.688 75.4643 653.072 71.2723 653.072H69.5123V658H65.2563ZM69.5123 648.848H71.2403C72.6803 648.848 73.3203 646.512 73.3203 644.144C73.3203 641.808 72.6163 639.472 71.1443 639.472H69.5123V648.848ZM89.095 646.64C89.095 643.056 88.007 639.216 86.183 639.216C84.327 639.216 83.303 643.12 83.303 646.64C83.303 650.064 84.327 654.064 86.183 654.064C88.007 654.064 89.095 650.256 89.095 646.64ZM79.047 646.64C79.047 640.624 81.511 634.96 86.215 634.96C90.855 634.96 93.351 640.688 93.351 646.64C93.351 652.592 90.855 658.288 86.215 658.288C81.511 658.288 79.047 652.56 79.047 646.64ZM95.6313 658V635.216H99.8233V648.656L104.847 635.216H109.135V658H104.975V644.496L99.9513 658H95.6313ZM97.5193 630.064L100.879 628.752C101.359 629.968 101.871 631.344 102.319 631.344C102.735 631.344 103.247 630 103.791 628.72L107.119 630.064C106.255 632.24 104.751 634.96 102.319 634.96C99.8873 634.96 98.3833 632.208 97.5193 630.064ZM112.381 658V635.216H116.637V644.496H117.725L120.893 635.216H125.501L121.341 646.608L125.469 658H120.893L117.725 648.72H116.637V658H112.381ZM126 658L131.536 635.216H135.696L141.264 658H136.944L136.464 655.92H130.768L130.288 658H126ZM131.728 651.76H135.536L133.616 642.64L131.728 651.76ZM151.288 658V635.216H155.48V648.656L160.504 635.216H164.792V658H160.632V644.496L155.608 658H151.288ZM185.147 646.32C186.267 647.152 187.163 648.848 187.163 651.088C187.163 655.504 184.411 658.288 181.275 658.288C178.299 658.288 176.283 656.08 174.939 652.656C176.251 652.208 177.595 651.728 178.907 651.248C179.675 652.976 180.411 654.064 181.275 654.064C182.203 654.064 182.907 652.656 182.907 651.088C182.907 649.904 182.235 648.656 181.115 648.656H178.299V644.4H180.987C181.883 644.4 182.619 643.504 182.619 642.064C182.619 640.432 182.011 639.184 181.115 639.184C180.283 639.184 179.771 640.24 179.163 641.744L175.163 640.368C176.411 637.136 178.331 634.96 181.179 634.96C184.347 634.96 186.811 637.808 186.811 642.096C186.811 643.952 186.235 645.36 185.147 646.32ZM187.719 658L193.255 635.216H197.415L202.983 658H198.663L198.183 655.92H192.487L192.007 658H187.719ZM193.447 651.76H197.255L195.335 642.64L193.447 651.76ZM204.569 658V635.216H217.209V658H212.953V639.472H208.825V658H204.569ZM222.3 658C222.78 656.304 223.228 654.64 223.676 652.944C222.14 647.024 220.572 641.136 219.004 635.216H223.484L225.884 645.616L228.284 635.216H232.764L226.684 658H222.3ZM239.932 654.032C241.116 654.032 241.852 651.728 242.236 649.712L246.428 650.384C245.596 655.248 243.292 658.288 239.964 658.288C235.228 658.288 232.86 652.464 232.86 646.64C232.86 640.816 235.228 634.96 239.964 634.96C243.292 634.96 245.596 638.032 246.428 642.864L242.236 643.536C241.852 641.488 241.084 639.216 239.932 639.216C238.076 639.216 237.116 643.472 237.116 646.64C237.116 650.128 238.172 654.032 239.932 654.032ZM248.538 658V635.216H252.794V644.496H253.882L257.05 635.216H261.658L257.498 646.608L261.626 658H257.05L253.882 648.72H252.794V658H248.538Z" fill="#0F2241"/>
<path d="M45.72 757.64C45.72 754.056 44.632 750.216 42.808 750.216C40.952 750.216 39.928 754.12 39.928 757.64C39.928 761.064 40.952 765.064 42.808 765.064C44.632 765.064 45.72 761.256 45.72 757.64ZM35.672 757.64C35.672 751.624 38.136 745.96 42.84 745.96C47.48 745.96 49.976 751.688 49.976 757.64C49.976 763.592 47.48 769.288 42.84 769.288C38.136 769.288 35.672 763.56 35.672 757.64ZM56.5123 764.776H58.5603C59.7123 764.776 60.2243 762.792 60.2243 760.808C60.2243 758.824 59.7123 756.776 58.6243 756.776H56.5123V764.776ZM52.2563 769V746.216H63.3283V750.472H56.4803V752.744H58.6562C62.5923 752.744 64.4163 756.616 64.4163 760.712C64.4163 764.776 62.5283 769 58.7203 769H52.2563ZM68.4248 769C68.9048 767.304 69.3528 765.64 69.8008 763.944C68.2648 758.024 66.6968 752.136 65.1288 746.216H69.6088L72.0088 756.616L74.4088 746.216H78.8888L72.8088 769H68.4248ZM87.9303 746.216H92.1863V769H87.9303V762.184C87.0023 762.76 85.9143 763.208 84.8903 763.208C82.0743 763.208 80.1543 761.416 80.1543 756.168V746.216H84.3783V756.2C84.3783 757.64 84.5063 758.952 85.6263 758.952C86.2983 758.952 87.2583 758.408 87.9303 757.832V746.216ZM95.3813 769V746.216H106.133V750.472H99.6693V755.464H104.117V759.688H99.6693V764.776H106.133V769H95.3813ZM108.694 769V746.216H112.95V755.464H117.142V746.216H121.398V769H117.142V759.688H112.95V769H108.694ZM124.631 769V746.216H128.823V759.656L133.847 746.216H138.135V769H133.975V755.496L128.951 769H124.631ZM141.381 769V746.216H152.133V750.472H145.669V755.464H150.117V759.688H145.669V764.776H152.133V769H141.381ZM163.131 769V746.216H175.771V769H171.515V750.472H167.387V769H163.131ZM177.406 769L182.942 746.216H187.102L192.67 769H188.35L187.87 766.92H182.174L181.694 769H177.406ZM183.134 762.76H186.942L185.022 753.64L183.134 762.76ZM194.256 769V746.216H200.304C204.432 746.216 206.544 750.696 206.544 755.144C206.544 759.688 204.464 764.072 200.272 764.072H198.512V769H194.256ZM198.512 759.848H200.24C201.68 759.848 202.32 757.512 202.32 755.144C202.32 752.808 201.616 750.472 200.144 750.472H198.512V759.848ZM211.927 769V750.472H207.735V746.216H220.375V750.472H216.183V769H211.927ZM222.694 769V746.216H226.95V755.464H231.142V746.216H235.398V769H231.142V759.688H226.95V769H222.694ZM238.631 769V746.216H249.383V750.472H242.919V755.464H247.367V759.688H242.919V764.776H249.383V769H238.631ZM251.944 769V746.216H257.992C262.12 746.216 264.232 750.696 264.232 755.144C264.232 759.688 262.152 764.072 257.96 764.072H256.2V769H251.944ZM256.2 759.848H257.928C259.368 759.848 260.008 757.512 260.008 755.144C260.008 752.808 259.304 750.472 257.832 750.472H256.2V759.848ZM263.75 769L269.286 746.216H273.446L279.014 769H274.694L274.214 766.92H268.518L268.038 769H263.75ZM269.478 762.76H273.286L271.366 753.64L269.478 762.76ZM289.038 769V746.216H293.23V759.656L298.254 746.216H302.542V769H298.382V755.496L293.358 769H289.038ZM314.225 769V746.216H318.481V755.496H319.569L322.737 746.216H327.345L323.185 757.608L327.313 769H322.737L319.569 759.72H318.481V769H314.225ZM331.043 746.216H341.955V769H337.763V750.472H335.203C335.171 754.984 335.043 758.76 334.563 761.64C333.923 765.288 332.771 768.072 329.795 769.8L327.491 766.344C329.027 765.256 329.955 764.072 330.467 760.872C331.011 757.64 331.043 752.84 331.043 746.216ZM357.035 750.216C355.307 750.216 354.475 754.088 354.475 757.608C354.475 761.256 355.339 765.064 357.035 765.064C358.731 765.064 359.787 761.32 359.787 757.608C359.787 753.96 358.763 750.216 357.035 750.216ZM345.163 769V746.216H349.355V755.496H350.507C350.923 750.376 353.003 745.96 357.067 745.96C361.611 745.96 364.011 751.656 364.011 757.608C364.011 763.592 361.611 769.288 357.067 769.288C353.003 769.288 350.923 764.872 350.507 759.688H349.355V769H345.163ZM373.68 746.216H377.936V769H373.68V762.184C372.752 762.76 371.664 763.208 370.64 763.208C367.824 763.208 365.904 761.416 365.904 756.168V746.216H370.128V756.2C370.128 757.64 370.256 758.952 371.376 758.952C372.048 758.952 373.008 758.408 373.68 757.832V746.216ZM381.131 769V746.216H391.883V750.472H385.419V755.464H389.867V759.688H385.419V764.776H391.883V769H381.131ZM394.444 769V746.216H401.004C404.332 746.216 406.188 749.608 406.188 752.904C406.188 755.016 405.548 756.456 404.684 757.384C405.964 758.568 406.476 760.456 406.476 762.28C406.476 765.576 404.62 769 401.292 769H394.444ZM398.668 764.84H401.068C401.9 764.84 402.316 763.496 402.316 762.152C402.316 760.84 401.836 759.496 401.068 759.496H398.668V764.84ZM398.668 755.656H400.716C401.516 755.656 401.964 754.376 401.964 753C401.964 751.688 401.548 750.44 400.716 750.44H398.668V755.656ZM413.261 764.808H414.829C415.981 764.808 416.461 762.888 416.461 761.096C416.461 758.952 415.949 757.384 414.669 757.384H413.261V764.808ZM409.069 769V746.216H413.325V753.16H414.893C418.989 753.16 420.429 757.096 420.429 761C420.429 764.968 418.829 769 414.925 769H409.069ZM421.421 746.216H425.677V769H421.421V746.216ZM432.113 757.416L427.633 746.216H432.241C433.073 748.52 433.937 750.76 434.769 753.064C435.601 750.76 436.465 748.52 437.297 746.216H441.937L437.457 757.416L442.097 769H437.489C436.561 766.6 435.697 764.168 434.769 761.768L432.081 769H427.473L432.113 757.416ZM458.494 765.032C459.678 765.032 460.414 762.728 460.798 760.712L464.99 761.384C464.158 766.248 461.854 769.288 458.526 769.288C453.79 769.288 451.422 763.464 451.422 757.64C451.422 751.816 453.79 745.96 458.526 745.96C461.854 745.96 464.158 749.032 464.99 753.864L460.798 754.536C460.414 752.488 459.646 750.216 458.494 750.216C456.638 750.216 455.678 754.472 455.678 757.64C455.678 761.128 456.734 765.032 458.494 765.032ZM476.22 757.64C476.22 754.056 475.132 750.216 473.308 750.216C471.452 750.216 470.428 754.12 470.428 757.64C470.428 761.064 471.452 765.064 473.308 765.064C475.132 765.064 476.22 761.256 476.22 757.64ZM466.172 757.64C466.172 751.624 468.636 745.96 473.34 745.96C477.98 745.96 480.476 751.688 480.476 757.64C480.476 763.592 477.98 769.288 473.34 769.288C468.636 769.288 466.172 763.56 466.172 757.64ZM485.645 769V750.472H481.453V746.216H494.093V750.472H489.901V769H485.645ZM496.413 769V746.216H502.461C506.589 746.216 508.701 750.696 508.701 755.144C508.701 759.688 506.621 764.072 502.429 764.072H500.669V769H496.413ZM500.669 759.848H502.397C503.837 759.848 504.477 757.512 504.477 755.144C504.477 752.808 503.773 750.472 502.301 750.472H500.669V759.848ZM512.581 769C513.061 767.304 513.509 765.64 513.957 763.944C512.421 758.024 510.853 752.136 509.285 746.216H513.765L516.165 756.616L518.565 746.216H523.045L516.965 769H512.581ZM522.101 771.4V764.776H523.061C524.341 761.544 524.533 754.536 524.533 751.112V746.216H535.477V764.776H536.981V771.4H532.757V769H526.325V771.4H522.101ZM527.221 764.776H531.285V750.472H528.725V750.888C528.725 758.824 527.893 762.664 527.221 764.776ZM538.975 769V746.216H543.231V755.464H547.423V746.216H551.679V769H547.423V759.688H543.231V769H538.975ZM554.913 769V746.216H559.105V759.656L564.129 746.216H568.417V769H564.257V755.496L559.233 769H554.913ZM571.663 769V746.216H575.919V755.496H577.007L580.175 746.216H584.783L580.623 757.608L584.751 769H580.175L577.007 759.72H575.919V769H571.663ZM595.376 757.64C595.376 754.056 594.288 750.216 592.464 750.216C590.608 750.216 589.584 754.12 589.584 757.64C589.584 761.064 590.608 765.064 592.464 765.064C594.288 765.064 595.376 761.256 595.376 757.64ZM585.328 757.64C585.328 751.624 587.792 745.96 592.496 745.96C597.136 745.96 599.632 751.688 599.632 757.64C599.632 763.592 597.136 769.288 592.496 769.288C587.792 769.288 585.328 763.56 585.328 757.64ZM601.913 769V746.216H608.473C611.801 746.216 613.657 749.608 613.657 752.904C613.657 755.016 613.017 756.456 612.153 757.384C613.433 758.568 613.945 760.456 613.945 762.28C613.945 765.576 612.089 769 608.76 769H601.913ZM606.137 764.84H608.536C609.369 764.84 609.785 763.496 609.785 762.152C609.785 760.84 609.305 759.496 608.536 759.496H606.137V764.84ZM606.137 755.656H608.185C608.985 755.656 609.433 754.376 609.433 753C609.433 751.688 609.017 750.44 608.185 750.44H606.137V755.656Z" fill="#0F2241"/>
</svg>
