<svg width="26" height="26" viewBox="0 0 26 26" fill="none" xmlns="http://www.w3.org/2000/svg">
<rect x="1" y="1" width="24" height="24" rx="12" stroke="#fff" stroke-width="2"/>
<path d="M10.5541 16.1627L19.0291 7.6877C19.2291 7.4877 19.4624 7.3877 19.7291 7.3877C19.9958 7.3877 20.2291 7.4877 20.4291 7.6877C20.6291 7.8877 20.7291 8.12536 20.7291 8.4007C20.7291 8.67603 20.6291 8.91336 20.4291 9.1127L11.2541 18.3127C11.0541 18.5127 10.8208 18.6127 10.5541 18.6127C10.2874 18.6127 10.0541 18.5127 9.85409 18.3127L5.55409 14.0127C5.35409 13.8127 5.25809 13.5754 5.26609 13.3007C5.27409 13.026 5.37842 12.7884 5.57909 12.5877C5.77975 12.387 6.01742 12.287 6.29209 12.2877C6.56675 12.2884 6.80409 12.3884 7.00409 12.5877L10.5541 16.1627Z" fill="#fff"/>
</svg>
