<?xml version="1.0" standalone="no"?>
<!DOCTYPE svg PUBLIC "-//W3C//DTD SVG 20010904//EN"
 "http://www.w3.org/TR/2001/REC-SVG-20010904/DTD/svg10.dtd">
<svg version="1.0" xmlns="http://www.w3.org/2000/svg"
 width="1440.000000pt" height="243.000000pt" viewBox="0 0 1440.000000 243.000000"
 preserveAspectRatio="xMidYMid meet">

<g transform="translate(0.000000,243.000000) scale(0.100000,-0.100000)"
fill="#002B5F" stroke="none">
<path d="M2 2364 l3 -66 90 -30 c76 -26 106 -30 190 -31 86 0 113 4 196 31 53
18 106 32 119 32 12 0 70 -15 129 -32 147 -45 254 -45 392 0 53 18 106 32 119
32 13 0 66 -14 119 -31 81 -27 111 -32 196 -32 87 0 112 4 193 31 51 18 103
32 116 32 14 0 69 -15 123 -32 136 -45 244 -45 387 1 54 17 110 31 124 31 14
0 68 -14 121 -32 82 -27 110 -31 196 -31 85 0 115 5 196 32 53 17 106 31 119
31 13 0 66 -14 119 -31 81 -27 112 -32 196 -32 87 -1 113 4 194 31 51 18 106
32 120 32 15 0 66 -13 113 -29 152 -51 243 -50 415 4 43 14 89 25 102 25 13 0
67 -14 120 -32 82 -27 111 -31 196 -31 86 0 114 4 199 32 111 37 120 37 251
-4 132 -40 256 -39 379 4 50 17 102 31 116 31 14 0 66 -14 116 -31 75 -27 104
-31 189 -32 86 -1 114 3 202 31 55 18 111 32 124 32 12 0 65 -14 118 -32 82
-27 111 -31 196 -31 85 0 114 4 196 31 53 18 107 32 120 32 13 0 59 -11 102
-25 173 -54 253 -55 413 -4 50 16 101 29 114 29 13 0 66 -14 119 -32 131 -43
245 -44 376 -3 130 41 140 41 251 5 84 -28 114 -33 199 -33 86 0 113 4 199 32
111 37 121 37 251 -4 131 -41 255 -40 379 4 50 17 102 31 116 31 14 0 66 -14
116 -31 75 -27 104 -31 189 -32 86 -1 114 3 202 31 55 18 111 32 124 32 12 0
65 -14 118 -32 82 -27 110 -31 196 -31 84 0 116 5 199 32 54 17 109 31 122 31
13 0 57 -11 99 -25 168 -54 252 -55 413 -4 51 16 103 29 116 29 13 0 66 -14
117 -32 81 -27 107 -32 194 -31 84 0 115 5 196 32 53 17 106 31 119 31 13 0
66 -14 119 -31 124 -41 256 -44 366 -10 151 48 152 48 272 11 92 -29 122 -34
203 -34 79 1 110 6 188 32 51 18 103 32 117 32 14 0 66 -14 117 -32 80 -27
107 -31 193 -31 85 0 114 4 196 31 53 18 106 32 119 32 13 0 64 -13 114 -29
152 -48 246 -50 395 -5 l51 15 0 69 c0 39 -1 70 -3 70 -2 0 -37 -12 -78 -26
-109 -39 -204 -37 -334 5 -119 39 -176 38 -300 -4 -110 -38 -210 -38 -315 -1
-120 43 -177 44 -295 5 -134 -43 -212 -43 -349 0 -123 39 -162 39 -283 -1
-135 -43 -214 -43 -346 0 -123 40 -171 40 -294 0 -130 -42 -214 -43 -328 -2
-109 40 -210 39 -310 -1 -100 -40 -195 -39 -328 4 -122 39 -162 39 -284 -1
-129 -41 -224 -43 -333 -4 -120 43 -186 44 -305 5 -133 -43 -217 -44 -330 -3
-110 39 -199 39 -310 0 -111 -40 -195 -39 -329 3 -123 39 -159 39 -282 0 -136
-43 -222 -43 -358 0 -124 39 -162 39 -283 -1 -131 -43 -226 -44 -328 -3 -99
40 -211 40 -310 0 -101 -40 -197 -39 -328 3 -122 40 -162 40 -284 0 -133 -43
-220 -43 -357 1 -123 39 -162 39 -283 -1 -131 -42 -226 -43 -328 -3 -101 40
-201 40 -310 1 -112 -40 -197 -40 -328 2 -121 40 -160 40 -283 1 -77 -24 -117
-31 -179 -31 -62 0 -102 7 -179 31 -123 39 -162 39 -283 -1 -132 -42 -217 -43
-328 -2 -109 40 -209 40 -310 0 -102 -41 -197 -40 -328 2 -122 40 -165 40
-291 0 -135 -42 -213 -42 -350 1 -123 39 -159 39 -282 0 -137 -43 -215 -43
-349 0 -118 39 -175 38 -295 -5 -104 -37 -207 -37 -310 0 -121 43 -186 44
-305 5 -137 -44 -215 -44 -348 -1 -121 40 -159 40 -283 1 -137 -43 -216 -43
-347 -1 -53 18 -102 32 -108 32 -6 0 -9 -25 -7 -66z"/>
<path d="M0 2016 l0 -64 98 -33 c135 -45 244 -45 383 0 116 38 135 38 230 6
158 -54 258 -54 429 1 91 30 106 29 235 -10 132 -41 248 -40 370 3 49 17 102
31 119 31 16 0 72 -14 125 -31 135 -44 246 -44 382 0 53 17 109 31 124 31 15
0 71 -14 124 -31 131 -43 245 -44 376 -4 129 40 138 40 255 5 149 -45 259 -46
385 -1 49 17 103 31 121 31 17 0 74 -14 125 -31 133 -45 244 -45 380 0 53 17
109 31 124 31 15 0 71 -14 124 -31 82 -27 110 -32 196 -32 84 1 115 5 196 32
53 17 109 31 124 31 15 0 71 -14 124 -31 136 -44 247 -44 380 0 51 17 106 31
121 31 15 0 70 -14 121 -31 133 -45 244 -45 380 0 53 17 109 31 124 31 15 0
71 -14 124 -31 81 -27 112 -31 196 -32 86 0 114 5 196 32 53 17 109 31 124 31
15 0 71 -14 124 -31 136 -44 247 -44 380 0 51 17 106 31 121 31 15 0 70 -14
121 -31 133 -45 244 -45 380 0 53 17 109 31 124 31 15 0 71 -14 124 -31 82
-27 110 -32 196 -32 84 1 115 5 196 32 53 17 109 31 124 31 15 0 71 -14 124
-31 136 -44 247 -44 380 0 51 17 106 31 122 31 16 0 68 -13 116 -29 153 -50
253 -49 409 5 88 30 113 30 202 0 159 -54 275 -55 431 -1 95 32 114 32 230 -6
136 -44 246 -44 382 0 53 17 109 31 125 31 17 0 70 -14 119 -32 123 -43 238
-44 370 -2 112 35 165 35 275 -1 124 -40 240 -39 371 4 53 17 109 31 124 31
15 0 71 -14 124 -31 137 -44 248 -44 382 0 53 17 110 31 126 31 16 0 68 -13
114 -29 46 -16 109 -32 139 -35 68 -8 179 8 273 40 88 30 116 30 204 -1 145
-50 239 -54 381 -13 l72 21 0 68 c0 38 -1 69 -3 69 -2 0 -37 -12 -78 -26 -108
-38 -203 -36 -333 5 -124 39 -171 39 -293 -1 -132 -43 -204 -43 -336 0 -123
41 -172 41 -289 0 -125 -42 -206 -42 -335 1 -119 40 -170 40 -292 -1 -132 -43
-211 -43 -344 0 -123 40 -171 40 -294 1 -133 -43 -205 -43 -336 -1 -124 41
-174 41 -291 0 -124 -43 -205 -43 -337 1 -123 40 -173 40 -291 0 -128 -43
-208 -43 -341 -1 -124 41 -174 41 -296 0 -130 -42 -203 -42 -334 0 -124 41
-171 40 -294 0 -129 -42 -201 -42 -334 1 -122 40 -172 39 -296 0 -133 -43
-205 -43 -336 -1 -123 40 -171 40 -294 0 -132 -42 -213 -42 -340 1 -118 40
-168 40 -286 0 -126 -43 -207 -43 -338 0 -123 40 -172 40 -296 -1 -131 -42
-203 -42 -336 1 -124 40 -174 40 -296 0 -132 -44 -204 -44 -334 -1 -123 41
-172 41 -290 1 -126 -43 -207 -43 -338 0 -123 40 -172 40 -296 -1 -132 -43
-212 -43 -341 1 -118 40 -168 40 -291 0 -132 -44 -213 -44 -337 -1 -117 41
-167 41 -291 0 -131 -42 -203 -42 -336 1 -123 39 -171 39 -294 -1 -132 -42
-203 -42 -339 0 -127 40 -175 40 -294 1 -132 -44 -211 -43 -340 1 -115 39
-183 38 -300 -5 -107 -39 -194 -38 -323 3 -123 40 -171 40 -294 0 -132 -43
-220 -43 -347 1 -115 40 -166 40 -292 -1 -135 -43 -207 -43 -331 0 -126 44
-123 45 -123 -32z"/>
<path d="M0 1665 l0 -64 98 -31 c131 -42 237 -44 367 -4 132 40 149 40 261 4
139 -45 249 -45 385 -1 53 17 111 31 129 31 18 0 76 -14 128 -31 135 -43 239
-43 373 0 117 38 139 38 232 6 143 -51 264 -51 420 1 90 30 114 29 242 -10
129 -40 236 -39 366 3 53 17 111 31 129 31 18 0 76 -14 128 -31 145 -46 261
-43 410 12 71 26 118 24 199 -7 133 -50 265 -49 414 1 91 31 124 31 216 0 143
-50 272 -50 413 -1 94 33 122 33 239 -5 137 -44 251 -44 376 0 49 17 104 31
122 31 17 0 74 -14 125 -31 132 -43 244 -43 379 0 53 17 109 31 125 31 16 0
74 -14 129 -31 135 -41 241 -42 370 -3 128 39 152 40 242 11 111 -36 128 -39
225 -38 71 0 104 6 175 31 48 16 103 30 123 30 20 0 76 -14 125 -31 127 -44
239 -44 379 1 112 36 129 36 261 -4 125 -38 236 -38 360 0 131 40 149 40 261
4 138 -44 251 -44 382 -1 51 17 107 31 125 31 18 0 73 -14 123 -31 127 -43
240 -43 375 0 117 38 144 38 240 6 146 -51 271 -50 420 0 88 30 119 31 195 5
154 -54 274 -57 412 -11 51 17 106 31 124 31 17 0 74 -14 127 -31 134 -43 237
-43 372 0 53 17 111 31 129 31 18 0 76 -14 129 -31 136 -44 246 -44 385 1 112
36 129 36 261 -4 130 -39 237 -39 364 3 114 38 137 38 232 6 147 -51 266 -51
410 0 93 32 121 32 238 -6 125 -40 240 -43 354 -9 l77 23 0 68 c0 38 -3 69 -7
69 -3 0 -41 -12 -82 -26 -107 -37 -195 -36 -322 5 -123 40 -175 40 -298 0
-130 -42 -204 -42 -329 0 -119 40 -174 40 -298 0 -126 -40 -196 -40 -328 1
-127 39 -179 38 -303 -1 -130 -42 -203 -42 -334 0 -123 40 -175 40 -298 0
-130 -42 -213 -42 -331 0 -112 40 -171 40 -297 0 -128 -41 -198 -41 -328 0
-123 40 -177 40 -302 0 -130 -42 -204 -42 -334 0 -123 40 -175 40 -298 0 -127
-41 -214 -42 -321 -4 -116 42 -185 43 -304 5 -131 -42 -199 -42 -331 -1 -126
40 -178 39 -302 0 -131 -42 -213 -42 -337 0 -116 40 -171 40 -295 0 -130 -42
-204 -42 -334 0 -122 39 -171 39 -293 0 -128 -41 -205 -41 -332 1 -120 39
-175 39 -299 -1 -129 -42 -203 -41 -337 0 -124 39 -173 39 -300 0 -135 -42
-199 -42 -331 1 -120 38 -188 38 -305 -4 -106 -38 -194 -37 -320 3 -121 39
-172 39 -296 0 -134 -41 -208 -42 -337 0 -125 40 -179 40 -299 1 -128 -42
-202 -43 -331 -1 -126 40 -185 40 -297 0 -117 -41 -202 -41 -332 1 -122 39
-175 38 -297 -1 -130 -42 -204 -42 -334 0 -125 40 -179 40 -303 0 -130 -42
-198 -42 -327 0 -125 40 -180 40 -299 0 -68 -22 -110 -30 -163 -30 -52 0 -97
8 -167 30 -122 40 -175 39 -297 0 -131 -42 -204 -42 -334 0 -127 40 -185 41
-303 0 -123 -42 -206 -42 -331 0 -51 17 -99 31 -108 31 -12 0 -15 -13 -15 -65z"/>
<path d="M0 1317 l0 -63 98 -33 c134 -45 235 -45 377 -1 115 36 139 36 274 -5
84 -25 103 -27 200 -22 79 3 125 11 180 31 93 33 129 33 222 0 56 -20 100 -27
184 -31 103 -5 116 -3 206 26 53 17 110 31 127 31 17 0 73 -13 124 -30 130
-42 240 -42 371 0 117 37 147 37 265 0 133 -43 241 -43 374 0 116 37 144 37
239 4 56 -20 100 -27 184 -31 103 -5 116 -3 206 26 53 17 111 31 129 31 18 0
75 -13 127 -30 126 -40 233 -41 359 -3 130 38 148 39 264 4 145 -43 251 -43
386 0 111 35 137 35 268 -4 126 -38 233 -37 359 3 52 17 109 30 127 30 18 0
75 -14 127 -30 126 -40 233 -41 359 -3 131 39 157 40 269 3 137 -43 240 -43
380 0 115 36 139 36 273 -4 82 -25 105 -28 195 -24 77 4 120 11 176 31 95 34
123 34 240 -4 90 -29 103 -31 206 -26 84 4 128 11 184 31 94 33 117 33 236 -4
138 -42 247 -42 381 1 111 35 137 35 268 -4 126 -38 233 -37 359 3 52 17 109
30 127 30 18 0 75 -14 127 -30 126 -40 233 -41 359 -3 131 39 157 40 269 3
133 -42 240 -43 370 -3 113 35 167 34 284 -1 84 -26 103 -28 200 -23 82 3 121
10 174 31 86 33 119 33 234 -4 131 -42 245 -42 376 0 52 17 109 30 127 30 18
0 75 -13 127 -30 127 -41 242 -42 369 -3 131 39 157 39 268 4 135 -43 248 -44
376 -1 50 17 104 30 122 30 17 0 73 -14 125 -30 131 -42 245 -42 376 0 115 37
143 37 238 4 109 -39 255 -44 367 -14 l82 22 0 69 c0 38 -3 69 -7 69 -5 0 -43
-11 -86 -25 -108 -35 -187 -33 -312 5 -125 38 -182 38 -302 0 -127 -41 -208
-41 -331 0 -120 39 -181 39 -297 0 -121 -41 -201 -41 -328 0 -122 39 -182 39
-304 0 -125 -40 -204 -40 -333 0 -121 38 -177 38 -297 0 -128 -41 -208 -41
-334 1 -113 37 -189 36 -312 -5 -108 -36 -188 -35 -310 4 -122 39 -182 39
-304 0 -127 -41 -209 -41 -336 0 -121 39 -179 39 -300 0 -68 -22 -114 -30
-164 -30 -51 0 -95 8 -161 30 -119 39 -180 39 -300 0 -125 -40 -200 -40 -325
0 -60 19 -115 30 -152 30 -37 0 -92 -11 -152 -30 -127 -41 -209 -41 -336 0
-120 38 -177 38 -302 0 -131 -40 -205 -40 -327 0 -59 20 -111 30 -149 30 -38
0 -90 -10 -149 -30 -121 -40 -195 -40 -325 0 -58 18 -120 30 -153 30 -34 0
-91 -12 -149 -30 -69 -22 -112 -30 -168 -30 -56 0 -99 8 -168 30 -120 38 -177
38 -302 0 -132 -41 -211 -41 -325 0 -113 40 -181 40 -300 0 -66 -22 -109 -30
-160 -30 -50 0 -96 8 -163 30 -122 39 -182 39 -304 0 -127 -41 -209 -41 -336
0 -58 18 -115 30 -149 30 -33 0 -95 -12 -153 -30 -130 -40 -204 -40 -325 0
-119 39 -182 39 -302 0 -64 -21 -110 -30 -158 -30 -47 0 -98 9 -165 30 -58 18
-120 30 -153 30 -34 0 -91 -12 -149 -30 -69 -22 -112 -30 -168 -30 -56 0 -99
8 -168 30 -60 19 -115 30 -152 30 -37 0 -92 -11 -152 -30 -68 -22 -113 -30
-166 -30 -55 0 -95 8 -162 30 -59 20 -109 30 -147 30 -38 0 -90 -10 -150 -30
-122 -40 -201 -40 -328 0 -123 39 -182 39 -302 0 -67 -22 -111 -30 -164 -30
-51 0 -99 9 -169 30 -58 18 -120 30 -153 30 -34 0 -91 -12 -149 -30 -68 -22
-113 -30 -165 -30 -51 0 -97 8 -165 30 -51 17 -100 30 -108 30 -12 0 -15 -14
-15 -63z"/>
<path d="M0 967 l0 -63 88 -29 c78 -27 99 -30 207 -29 103 1 130 4 194 27 94
34 119 34 243 -3 136 -40 239 -41 364 -3 114 35 175 35 293 -1 84 -26 103 -28
195 -23 74 3 121 12 173 31 93 33 125 33 242 -5 89 -29 103 -31 201 -26 74 4
128 13 185 31 100 33 133 32 226 0 53 -19 102 -28 175 -31 92 -5 111 -3 195
23 118 36 179 36 293 1 125 -38 229 -38 354 3 51 17 109 30 129 30 20 0 78
-13 130 -30 130 -42 232 -42 368 0 120 37 151 37 246 3 66 -24 88 -27 204 -27
116 0 138 3 204 27 95 34 126 34 246 -3 136 -42 238 -42 368 0 52 17 109 30
127 30 18 0 75 -14 127 -30 130 -42 231 -42 369 0 121 37 150 37 245 4 53 -19
102 -28 175 -31 91 -5 112 -3 195 22 135 40 162 41 265 9 64 -20 117 -29 189
-32 91 -3 109 -1 196 27 53 17 111 31 129 31 18 0 75 -13 127 -30 130 -42 231
-42 374 1 119 35 142 35 278 -6 83 -25 104 -27 195 -22 73 3 122 12 175 31 95
33 133 33 248 -4 130 -42 236 -42 366 0 52 17 109 30 127 30 18 0 75 -14 127
-30 130 -42 232 -42 368 0 120 37 151 37 246 3 65 -23 90 -27 199 -27 111 -1
134 2 208 27 103 34 131 34 229 1 56 -18 108 -27 183 -31 98 -5 112 -3 201 26
119 39 152 39 262 1 120 -41 227 -42 353 -3 113 35 175 35 288 0 126 -39 232
-38 359 3 115 37 153 37 248 4 55 -20 101 -27 179 -31 97 -5 112 -3 201 26
116 37 153 38 244 5 51 -19 98 -27 171 -31 91 -5 111 -3 195 22 135 40 163 41
261 10 121 -40 251 -45 364 -15 l84 23 0 68 c0 38 -3 69 -7 69 -5 0 -43 -11
-86 -25 -109 -35 -190 -34 -310 5 -123 39 -185 39 -312 0 -129 -40 -198 -40
-322 0 -123 39 -183 39 -304 -1 -84 -28 -103 -31 -179 -26 -54 3 -112 15 -159
31 -101 35 -169 34 -288 -4 -125 -40 -198 -40 -328 0 -60 19 -119 30 -155 30
-36 0 -95 -11 -155 -30 -130 -40 -202 -40 -320 0 -61 21 -108 30 -152 30 -43
0 -91 -9 -153 -30 -122 -40 -197 -40 -323 0 -122 39 -182 39 -304 0 -125 -40
-198 -40 -328 0 -127 39 -189 39 -312 0 -125 -40 -199 -40 -321 0 -120 39
-184 39 -304 0 -65 -22 -110 -30 -159 -30 -49 0 -96 9 -162 30 -120 38 -185
39 -292 3 -114 -38 -247 -38 -359 0 -105 36 -172 36 -293 -3 -126 -40 -201
-40 -323 0 -60 20 -110 30 -150 30 -40 0 -90 -10 -150 -30 -122 -40 -197 -40
-323 0 -122 39 -180 39 -309 -1 -88 -27 -111 -31 -182 -27 -49 3 -112 16 -160
32 -106 35 -173 34 -293 -4 -66 -21 -113 -30 -162 -30 -49 0 -94 8 -159 30
-61 20 -112 30 -152 30 -40 0 -91 -10 -152 -30 -65 -22 -110 -30 -159 -30 -49
0 -96 9 -162 30 -123 39 -185 39 -313 -1 -85 -26 -110 -30 -179 -26 -49 3
-110 14 -159 31 -106 35 -173 34 -293 -4 -126 -40 -201 -40 -323 0 -60 20
-110 30 -150 30 -39 0 -92 -10 -153 -30 -65 -21 -114 -30 -159 -30 -44 0 -97
10 -163 30 -60 19 -119 30 -155 30 -36 0 -95 -11 -155 -30 -68 -21 -118 -30
-166 -30 -49 0 -96 9 -162 30 -122 39 -182 39 -304 0 -126 -40 -202 -40 -325
0 -58 19 -111 30 -148 30 -36 0 -95 -11 -155 -30 -65 -20 -119 -30 -161 -30
-43 0 -94 10 -157 30 -124 40 -190 40 -314 0 -66 -21 -113 -30 -162 -30 -48 0
-98 9 -166 30 -58 18 -120 30 -153 30 -34 0 -91 -12 -149 -30 -67 -22 -113
-30 -163 -30 -50 0 -96 8 -163 30 -130 42 -127 43 -127 -33z"/>
<path d="M0 617 l0 -63 88 -29 c78 -27 99 -30 207 -29 104 0 130 4 194 27 41
15 93 27 116 27 23 0 75 -12 116 -27 64 -23 90 -27 194 -27 105 -1 130 2 203
27 46 15 101 27 122 27 21 0 76 -12 122 -27 72 -24 98 -28 198 -27 98 0 126 5
189 27 93 34 138 34 232 1 51 -18 103 -28 170 -31 86 -5 107 -2 190 22 136 41
173 42 271 8 74 -25 96 -28 203 -27 103 0 132 4 200 27 100 34 127 34 234 0
73 -24 103 -28 201 -28 101 0 125 4 193 29 94 33 130 32 266 -9 83 -24 104
-27 190 -22 67 3 119 13 170 31 94 33 136 33 236 -1 68 -23 98 -27 195 -27 99
-1 127 3 201 26 108 35 146 35 240 2 51 -18 103 -28 170 -31 86 -5 107 -2 190
22 136 41 164 42 261 8 74 -25 96 -28 203 -27 103 0 131 4 198 27 96 33 131
34 232 1 54 -18 111 -28 176 -31 86 -5 107 -2 190 22 135 41 163 41 271 8 79
-24 110 -28 203 -28 93 1 122 5 189 28 98 34 134 34 232 0 68 -24 95 -27 194
-28 99 0 127 4 198 28 103 34 136 34 237 0 69 -23 96 -27 200 -27 104 0 131 4
200 27 100 34 135 34 232 0 67 -23 95 -27 198 -27 107 -1 129 2 203 27 97 34
125 33 261 -8 83 -24 104 -27 190 -22 63 3 124 14 176 31 101 33 129 32 234
-1 74 -24 102 -28 201 -27 97 0 127 4 195 27 100 34 140 34 240 0 69 -23 96
-27 200 -27 105 0 129 4 194 27 94 34 139 34 232 0 64 -24 89 -28 189 -28 98
0 128 4 201 28 108 34 134 34 234 0 70 -24 95 -27 205 -27 110 0 134 3 199 27
93 34 135 34 236 0 69 -23 96 -27 200 -27 105 0 129 4 194 27 93 34 138 34
232 0 63 -22 91 -27 189 -27 99 -1 127 3 201 27 108 34 137 34 241 0 108 -36
265 -39 371 -8 l67 20 0 67 c0 38 -4 68 -8 68 -5 0 -35 -9 -68 -21 -33 -12
-96 -23 -144 -26 -76 -4 -95 -2 -181 26 -126 41 -191 41 -316 1 -124 -40 -194
-40 -315 0 -120 40 -188 40 -308 0 -119 -40 -186 -40 -315 0 -124 38 -192 39
-300 4 -48 -16 -112 -28 -160 -31 -69 -4 -94 0 -179 26 -127 40 -185 40 -311
1 -128 -39 -192 -39 -320 0 -128 39 -187 39 -307 -1 -82 -27 -103 -30 -173
-26 -48 2 -112 15 -160 31 -105 34 -180 34 -282 0 -47 -16 -110 -28 -158 -31
-70 -4 -92 -1 -176 26 -126 41 -191 41 -316 1 -123 -40 -190 -40 -318 0 -128
39 -187 39 -312 -1 -87 -28 -107 -31 -178 -26 -47 3 -111 16 -154 31 -101 35
-172 34 -296 -4 -128 -39 -192 -39 -320 0 -124 38 -195 39 -296 4 -43 -15
-107 -28 -154 -31 -71 -5 -91 -2 -178 26 -127 41 -187 41 -314 0 -87 -28 -107
-31 -178 -26 -47 3 -111 16 -154 31 -100 35 -166 34 -293 -4 -131 -39 -196
-39 -323 0 -127 39 -189 39 -312 0 -65 -21 -113 -30 -160 -30 -46 0 -94 9
-160 30 -122 39 -182 39 -309 -1 -120 -37 -204 -36 -329 5 -109 35 -182 34
-302 -4 -123 -40 -190 -40 -318 0 -124 38 -195 39 -296 4 -43 -15 -107 -28
-154 -31 -71 -5 -91 -2 -178 26 -126 40 -185 40 -313 0 -87 -27 -109 -30 -179
-26 -48 3 -110 16 -154 31 -101 35 -172 34 -296 -4 -127 -39 -191 -39 -321 0
-129 39 -192 39 -319 0 -128 -39 -192 -39 -313 0 -64 21 -113 30 -157 30 -45
0 -92 -9 -155 -30 -120 -40 -189 -40 -313 0 -125 40 -190 40 -316 -1 -86 -28
-105 -30 -181 -26 -55 3 -111 14 -157 31 -98 35 -167 34 -295 -4 -66 -20 -123
-30 -164 -30 -44 0 -92 9 -154 30 -130 43 -130 43 -130 -33z"/>
<path d="M560 329 c-25 -4 -83 -18 -128 -33 -112 -35 -180 -34 -299 4 -134 43
-133 43 -133 -33 l0 -64 92 -29 c80 -25 108 -29 203 -28 91 0 124 5 190 27
100 34 140 33 240 0 69 -23 96 -27 200 -27 105 0 129 4 194 27 94 34 145 34
240 0 67 -24 90 -27 196 -27 104 0 130 4 194 27 94 34 138 34 232 0 65 -23 89
-27 194 -27 104 0 131 4 200 27 100 34 140 34 240 0 70 -24 95 -27 200 -27
103 1 131 4 198 27 98 34 144 34 238 0 64 -22 91 -26 194 -27 107 -1 128 2
196 27 95 34 143 34 238 0 67 -24 90 -27 196 -27 104 0 130 4 194 27 93 34
135 34 236 0 69 -23 96 -27 200 -27 104 0 131 4 200 27 100 34 140 34 240 0
69 -23 96 -27 195 -27 99 0 125 4 189 27 94 34 145 34 240 0 66 -24 91 -27
191 -27 98 0 127 4 195 27 101 34 136 34 244 0 74 -24 102 -28 201 -27 97 0
127 4 195 27 100 34 140 34 240 0 69 -23 96 -27 200 -27 107 0 127 3 189 27
88 35 144 35 232 0 63 -25 81 -27 194 -27 109 1 134 4 199 27 93 34 135 34
236 0 68 -23 98 -27 195 -27 99 -1 127 3 201 27 108 34 143 34 244 0 68 -23
97 -27 195 -27 100 0 125 3 191 27 95 34 146 34 240 0 65 -23 89 -27 194 -27
105 0 129 4 194 27 94 34 139 34 243 0 72 -24 98 -28 198 -27 97 0 127 4 195
27 101 34 143 34 236 0 64 -23 90 -26 194 -27 105 0 130 3 199 27 99 34 144
34 237 0 64 -24 89 -27 189 -27 98 0 128 4 201 27 106 34 143 34 244 0 115
-39 275 -39 390 0 100 34 140 34 240 0 69 -23 96 -27 200 -27 105 0 129 4 194
27 94 34 138 34 232 0 65 -23 89 -27 194 -27 105 0 130 3 199 27 99 34 143 34
237 0 66 -24 88 -27 199 -27 99 1 136 5 180 21 l55 20 3 66 c2 37 1 67 -2 67
-3 0 -46 -12 -97 -26 -111 -32 -193 -30 -314 10 -108 35 -177 34 -300 -4 -129
-40 -196 -40 -317 0 -120 40 -187 40 -311 0 -123 -39 -187 -39 -310 0 -124 40
-188 39 -325 -1 -92 -28 -115 -31 -181 -26 -42 4 -110 18 -151 32 -100 34
-182 33 -281 -1 -44 -15 -106 -28 -154 -31 -71 -4 -91 -1 -176 26 -125 40
-186 40 -314 1 -60 -19 -119 -30 -155 -30 -35 0 -97 12 -158 30 -130 38 -184
38 -318 -1 -93 -28 -117 -31 -183 -26 -42 3 -109 17 -150 31 -99 35 -180 34
-286 0 -44 -15 -114 -29 -155 -31 -65 -4 -88 -1 -169 26 -124 41 -192 41 -318
1 -121 -39 -181 -39 -309 0 -131 39 -198 39 -321 0 -123 -40 -190 -40 -319 0
-125 39 -186 40 -295 5 -129 -42 -212 -43 -333 -6 -127 40 -185 40 -312 0
-121 -37 -204 -36 -333 6 -109 35 -170 34 -295 -5 -129 -40 -196 -40 -319 0
-123 39 -190 39 -321 0 -128 -39 -188 -39 -309 0 -124 40 -190 40 -314 0 -60
-19 -114 -30 -152 -30 -36 0 -97 12 -159 30 -132 39 -196 39 -319 0 -123 -40
-190 -40 -318 0 -126 39 -186 39 -317 0 -129 -39 -188 -39 -313 0 -128 39
-189 39 -314 -1 -85 -27 -105 -30 -176 -26 -48 3 -110 16 -154 31 -100 35
-182 35 -282 0 -44 -15 -106 -28 -154 -31 -70 -4 -92 -1 -179 26 -129 40 -192
41 -321 1 -62 -19 -119 -30 -158 -30 -39 0 -92 10 -154 30 -123 40 -187 39
-312 -1 -82 -27 -107 -30 -171 -26 -41 2 -111 16 -155 31 -106 34 -184 34
-290 0 -125 -41 -202 -43 -326 -6 -123 36 -150 40 -209 31z"/>
</g>
</svg>
