<svg width="610" height="362" viewBox="0 0 610 362" fill="none" xmlns="http://www.w3.org/2000/svg">
<path d="M-105.898 11.6186L-105.4 23.2373L-90.4607 28.5185C-77.8456 33.0956 -72.8659 33.7997 -58.9229 33.9758C-44.6479 33.9758 -40.1663 33.2716 -26.3892 28.5185C-17.5919 25.3498 -8.7945 22.8852 -6.63665 22.8852C-4.6448 22.8852 4.98252 25.5258 14.7758 28.5185C39.1761 36.4404 56.9368 36.4404 79.8432 28.5185C88.6406 25.3498 97.4379 22.8852 99.5958 22.8852C101.754 22.8852 110.551 25.3498 119.348 28.3425C132.793 33.0956 137.773 33.9758 151.882 33.9758C166.323 33.9758 170.473 33.2716 183.918 28.5185C192.383 25.3498 201.015 22.8852 203.172 22.8852C205.496 22.8852 214.626 25.5258 223.589 28.5185C246.163 36.4404 264.09 36.4404 287.826 28.3425C296.79 25.3498 306.085 22.8852 308.409 22.8852C310.733 22.8852 319.696 25.3498 328.493 28.5185C342.104 33.2716 346.752 33.9758 361.027 33.9758C375.136 33.9758 380.116 33.0956 393.561 28.3425C402.358 25.3498 411.156 22.8852 413.313 22.8852C415.471 22.8852 424.269 25.3498 433.066 28.3425C446.511 33.0956 451.657 33.9758 465.6 33.9758C480.041 34.1518 484.356 33.2716 497.801 28.5185C506.267 25.3498 515.396 22.8852 517.72 22.8852C520.21 22.8852 528.675 25.1737 536.477 27.9904C561.707 36.9685 576.812 36.7924 605.362 27.2862C612.499 24.8217 620.135 22.8852 622.293 22.8852C624.45 22.8852 633.414 25.3498 642.211 28.5185C655.822 33.2716 660.636 33.9758 674.745 33.9758C689.02 33.9758 693.667 33.2716 707.776 28.3425C726.201 21.829 727.695 21.829 749.439 29.0466C771.35 36.0883 791.932 35.9122 812.349 28.3425C820.648 25.3498 829.28 22.8852 831.604 22.8852C833.927 22.8852 842.559 25.3498 850.858 28.3425C863.307 33.0956 868.121 33.7997 882.23 33.9758C896.505 34.1518 901.153 33.4477 915.76 28.5185C924.889 25.3498 934.184 22.8852 936.342 22.8852C938.334 22.8852 947.131 25.3498 955.929 28.5185C969.54 33.2716 974.353 33.9758 988.462 33.9758C1002.57 33.9758 1007.39 33.2716 1021 28.5185C1029.79 25.3498 1038.76 22.8852 1040.91 22.8852C1043.07 22.8852 1050.71 24.8217 1057.85 27.2862C1086.56 36.7924 1099.84 36.9685 1126.4 27.9904C1134.7 25.1737 1143.16 22.8852 1145.32 22.8852C1147.48 22.8852 1156.28 25.3498 1165.07 28.5185C1186.82 36.0883 1205.74 36.2643 1227.49 29.0466C1249.06 21.829 1250.72 21.829 1269.15 28.1664C1283.09 33.0956 1288.07 33.9758 1302.18 33.9758C1316.46 33.9758 1320.94 33.2716 1335.21 28.3425C1353.64 21.829 1355.3 21.829 1376.87 29.0466C1398.62 36.2643 1419.2 36.0883 1439.78 28.3425C1448.08 25.3498 1456.72 22.8852 1459.04 22.8852C1461.36 22.8852 1469.99 25.3498 1478.29 28.3425C1490.74 33.0956 1495.56 33.7997 1509.67 33.9758C1523.94 34.1518 1528.59 33.4477 1543.19 28.5185C1552.32 25.3498 1561.62 22.8852 1563.78 22.8852C1565.77 22.8852 1574.57 25.3498 1583.36 28.5185C1596.98 33.2716 1601.62 33.9758 1615.9 33.9758C1629.84 33.9758 1635.15 33.0956 1648.93 28.3425C1657.89 25.3498 1667.02 22.8852 1669.18 22.8852C1671.34 22.8852 1678.64 24.8217 1685.61 27.2862C1713.5 36.7924 1727.44 36.9685 1754.17 27.9904C1762.63 25.1737 1771.26 22.8852 1773.42 22.8852C1775.58 22.8852 1784.38 25.3498 1792.84 28.5185C1806.29 33.2716 1810.6 34.1518 1825.04 33.9758C1838.99 33.9758 1844.13 33.0956 1857.58 28.3425C1866.37 25.3498 1875.17 22.8852 1877.33 22.8852C1879.49 22.8852 1888.28 25.3498 1897.08 28.3425C1917.66 35.5601 1939.57 36.0883 1957.83 30.1029C1982.9 21.6529 1983.06 21.6529 2002.98 28.1664C2018.25 33.2716 2023.23 34.1518 2036.68 34.1518C2049.79 33.9758 2054.94 33.0956 2067.88 28.5185C2076.35 25.3498 2084.98 22.8852 2087.3 22.8852C2089.63 22.8852 2098.26 25.3498 2106.72 28.5185C2120 33.2716 2124.49 33.9758 2138.76 33.9758C2152.87 33.9758 2157.68 33.2716 2171.29 28.5185C2180.09 25.3498 2188.89 22.8852 2191.05 22.8852C2193.2 22.8852 2201.67 25.1737 2209.97 27.9904C2235.2 36.4404 2250.8 36.7924 2275.53 28.8706L2284 26.23V14.0832C2284 7.21761 2283.83 1.76034 2283.5 1.76034C2283.17 1.76034 2277.36 3.87283 2270.55 6.3374C2252.46 13.203 2236.69 12.8509 2215.11 5.4572C2195.36 -1.40839 2185.9 -1.23235 2165.32 6.16136C2147.06 12.8509 2130.46 12.8509 2113.03 6.3374C2093.11 -1.23235 2083.65 -1.40839 2064.07 5.4572C2041.82 13.0269 2028.88 13.0269 2006.14 5.4572C1985.72 -1.40839 1979.25 -1.40839 1959.16 5.63324C1936.75 13.203 1923.64 13.203 1901.73 5.63324C1881.31 -1.40839 1873.35 -1.40839 1852.93 5.63324C1831.35 13.0269 1817.41 13.203 1798.48 5.98532C1780.39 -1.05631 1763.63 -0.880265 1747.03 6.16136C1730.43 13.203 1714.66 13.0269 1692.58 5.4572C1672.33 -1.40839 1665.69 -1.40839 1645.44 5.63324C1624.03 12.8509 1608.26 13.203 1590.17 6.3374C1570.25 -1.23235 1559.3 -1.40839 1539.54 5.4572C1517.47 13.0269 1503.52 13.203 1484.77 5.98532C1466.51 -0.880265 1451.74 -0.880265 1433.31 5.98532C1414.89 13.0269 1400.94 12.8509 1378.7 5.4572C1358.28 -1.40839 1352.31 -1.40839 1331.89 5.4572C1309.32 13.0269 1295.04 13.0269 1272.47 5.4572C1251.89 -1.40839 1245.58 -1.40839 1225.49 5.63324C1203.75 13.203 1187.98 13.379 1171.05 6.16136C1154.62 -0.880265 1136.03 -0.880265 1119.59 6.16136C1102.83 13.203 1086.89 13.0269 1065.15 5.63324C1044.9 -1.40839 1038.26 -1.40839 1018.01 5.63324C995.932 13.203 981.491 13.203 958.751 5.4572C938.334 -1.40839 931.86 -1.40839 911.776 5.63324C890.031 13.0269 874.263 13.203 857.332 6.16136C840.567 -0.880265 823.968 -0.880265 805.875 5.98532C787.285 13.0269 773.176 13.0269 751.431 5.63324C731.347 -1.40839 724.873 -1.40839 704.457 5.4572C691.676 9.68217 685.036 10.9145 674.745 10.9145C664.454 10.9145 657.814 9.68217 645.033 5.4572C624.616 -1.40839 618.143 -1.40839 598.058 5.63324C576.148 13.0269 562.039 13.203 543.614 5.98532C525.521 -1.05631 508.923 -1.05631 492.158 5.98532C475.227 13.203 459.458 13.0269 437.714 5.63324C417.463 -1.40839 410.326 -1.40839 389.411 5.63324C367.003 13.0269 354.056 13.0269 331.315 5.4572C310.899 -1.40839 304.923 -1.40839 284.507 5.4572C261.766 13.0269 248.819 13.0269 226.577 5.4572C206.99 -1.40839 197.529 -1.23235 177.61 6.3374C160.347 12.8509 143.251 12.8509 126.154 6.3374C106.069 -1.23235 95.2801 -1.40839 75.5275 5.4572C52.7871 13.203 39.84 13.203 17.7636 5.63324C-2.32096 -1.40839 -8.62852 -1.40839 -29.211 5.4572C-51.9514 13.0269 -65.0645 13.0269 -86.8089 5.63324C-95.6063 2.46451 -103.74 -6.14435e-05 -104.736 -6.14435e-05C-105.732 -6.14435e-05 -106.23 4.40095 -105.898 11.6186Z" fill="#C6452C"/>
<path d="M-105.999 76.6542V88.0008L-89.7337 93.8514C-67.3275 101.83 -49.2365 101.83 -26.1664 93.8514C-6.91359 87.1143 -3.76012 87.1143 12.0072 92.7877C38.2308 102.361 54.8281 102.361 83.2093 92.6104C98.3128 87.2916 100.802 87.4689 122.213 94.3833C144.121 101.652 163.374 101.475 183.622 93.8514C191.755 90.8375 200.552 88.3554 203.373 88.3554C206.029 88.3554 215.323 90.8375 224.12 93.8514C246.526 101.652 264.949 101.652 287.521 93.8514C296.318 90.8375 305.612 88.3554 308.102 88.3554C310.591 88.3554 319.886 90.8375 328.682 93.8514C350.424 101.475 369.345 101.652 391.088 94.5606C412.498 87.4689 413.992 87.4689 433.411 93.6741C458.14 101.652 476.397 101.83 497.31 93.8514C505.442 90.8375 514.405 88.3554 517.392 88.3554C520.214 88.3554 529.674 90.8375 538.139 93.8514C560.213 101.83 578.636 101.83 601.208 93.8514C610.005 90.8375 619.299 88.3554 621.789 88.3554C624.279 88.3554 633.573 90.8375 642.37 93.8514C655.979 98.6383 660.626 99.5247 674.9 99.5247C688.842 99.3475 693.987 98.6383 707.431 93.8514C716.227 90.8375 725.522 88.3554 728.011 88.3554C730.501 88.3554 739.795 90.8375 748.592 93.8514C771.164 101.652 789.587 101.652 811.661 93.8514C820.126 90.8375 829.254 88.3554 831.744 88.3554C834.233 88.3554 843.362 90.8375 851.826 93.8514C873.901 101.83 892.324 101.83 914.896 93.8514C923.692 90.8375 932.987 88.3554 935.476 88.3554C937.966 88.3554 947.26 90.8375 956.057 93.8514C969.501 98.6383 974.646 99.3475 988.587 99.5247C1002.86 99.5247 1007.51 98.6383 1021.12 93.8514C1029.91 90.8375 1039.21 88.3554 1041.7 88.3554C1044.19 88.3554 1053.48 90.8375 1062.28 93.8514C1084.85 101.652 1103.27 101.652 1125.35 93.8514C1133.81 90.8375 1142.94 88.3554 1145.43 88.3554C1147.92 88.3554 1157.05 90.8375 1165.51 93.8514C1187.59 101.83 1206.01 101.83 1228.58 93.8514C1237.38 90.8375 1246.67 88.3554 1249.16 88.3554C1251.65 88.3554 1260.95 90.8375 1269.74 93.8514C1283.35 98.6383 1288 99.5247 1302.27 99.5247C1316.22 99.3475 1321.36 98.6383 1334.81 93.8514C1343.6 90.8375 1352.9 88.3554 1355.39 88.3554C1357.88 88.3554 1367.17 90.8375 1375.97 93.8514C1398.54 101.652 1416.96 101.652 1439.04 93.8514C1447.5 90.8375 1456.63 88.3554 1459.28 88.3554C1461.94 88.3554 1470.57 90.6602 1478.54 93.4968C1503.93 102.361 1520.53 102.184 1546.42 92.6104C1561.03 87.2916 1565.17 87.2916 1579.95 92.6104C1606.34 102.184 1625.59 102.361 1651.48 92.7877C1667.25 87.1143 1670.4 87.1143 1689.65 93.8514C1712.23 101.652 1730.48 101.652 1753.06 93.8514C1761.85 90.8375 1771.15 88.3554 1773.8 88.3554C1776.62 88.3554 1785.42 90.8375 1793.55 94.0287C1813.97 101.652 1833.05 101.83 1854.96 94.3833C1873.55 88.1781 1882.35 88.1781 1900.6 94.5606C1921.18 101.652 1940.44 101.475 1962.18 93.8514C1970.98 90.8375 1980.27 88.3554 1982.76 88.3554C1985.25 88.3554 1994.54 90.8375 2003.34 93.8514C2026.08 101.652 2044.5 101.652 2066.74 93.8514C2075.54 90.8375 2085 88.3554 2087.65 88.3554C2090.31 88.3554 2098.94 90.6602 2106.58 93.4968C2114.21 96.3335 2124.67 99.1702 2129.65 99.702C2140.93 101.12 2159.35 98.2837 2174.96 92.6104C2189.56 87.2916 2194.21 87.2916 2208.81 92.7877C2232.88 101.652 2248.48 102.361 2272.05 95.0925L2284 91.3693V79.3135C2284 72.5765 2283.83 67.0804 2283.5 67.0804C2283.17 67.0804 2277.36 69.2079 2270.56 71.69C2252.63 78.4271 2236.86 78.0725 2215.29 70.8035C2194.71 63.8892 2186.91 63.8892 2166.66 70.9808C2144.75 78.6044 2132.8 78.6044 2110.89 70.9808C2090.48 63.7119 2082.34 63.7119 2062.93 70.9808C2042.18 78.4271 2028.73 78.4271 2007.32 70.8035C1987.57 63.7119 1979.11 63.7119 1958.86 70.9808C1936.95 78.6044 1923.84 78.6044 1901.77 70.9808C1881.35 63.8892 1873.38 63.8892 1852.97 70.8035C1830.9 78.4271 1818.95 78.4271 1797.2 70.9808C1776.62 63.7119 1768.32 63.7119 1748.91 70.9808C1728.33 78.6044 1714.88 78.6044 1692.97 70.8035C1672.56 63.7119 1664.26 63.7119 1644.68 70.8035C1623.43 78.4271 1610.15 78.4271 1588.08 70.9808C1567.5 63.7119 1559.2 63.7119 1538.95 70.9808C1517.37 78.4271 1505.26 78.4271 1483.52 70.9808C1462.94 63.7119 1455.14 63.8892 1434.72 70.9808C1413.31 78.4271 1401.36 78.4271 1379.29 70.8035C1359.04 63.7119 1350.74 63.8892 1330.16 70.8035C1308.08 78.4271 1296.13 78.4271 1274.39 70.9808C1253.98 63.8892 1246.01 63.8892 1225.6 70.9808C1203.69 78.4271 1190.24 78.4271 1169.17 70.8035C1149.58 63.7119 1141.28 63.7119 1121.7 70.8035C1100.78 78.4271 1087.34 78.4271 1065.6 70.8035C1045.18 63.7119 1037.05 63.7119 1016.47 70.9808C994.728 78.4271 982.778 78.4271 960.704 70.8035C940.124 63.7119 931.825 63.7119 911.576 70.8035C889.668 78.6044 877.718 78.6044 856.142 70.9808C835.727 63.7119 827.594 63.7119 808.01 70.8035C787.097 78.4271 773.653 78.4271 751.911 70.8035C731.497 63.7119 723.364 63.7119 702.783 70.9808C680.875 78.6044 667.597 78.6044 646.187 70.8035C626.602 63.7119 618.304 63.7119 597.889 70.8035C575.981 78.6044 562.537 78.6044 541.956 70.9808C522.538 63.7119 514.239 63.7119 493.658 70.9808C471.916 78.4271 459.966 78.4271 437.892 70.8035C417.477 63.8892 409.511 63.8892 389.096 70.9808C367.188 78.4271 355.404 78.4271 332.831 70.9808C311.753 63.8892 303.786 63.8892 284.036 70.8035C262.127 78.6044 249.015 78.4271 227.605 70.6263C208.518 63.7119 197.232 63.8892 177.813 71.5127C160.054 78.4271 145.615 78.2498 124.204 70.9808C103.79 63.8892 95.8232 63.8892 75.4086 70.9808C53.5003 78.6044 38.8947 78.6044 17.8163 70.8035C-1.27053 63.7119 -9.73512 63.7119 -30.6476 70.9808C-53.0539 78.6044 -65.0038 78.6044 -85.5844 70.9808C-106.497 63.18 -105.999 63.0027 -105.999 76.6542Z" fill="#C6452C"/>
<path d="M-106 142.554V153.962L-89.7347 159.487C-67.9924 166.973 -50.3993 167.33 -28.8229 160.2C-6.91459 153.071 -4.09306 153.071 14.4958 159.487C37.566 167.508 55.8229 167.508 78.3951 159.665C87.1917 156.635 96.8181 154.14 99.8056 154.14C102.793 154.14 112.419 156.635 121.05 159.665C143.456 167.33 160.717 167.33 182.958 159.665C202.376 152.892 206.028 152.892 221.463 158.596C245.197 167.686 265.28 167.686 291.172 158.418C306.109 153.071 310.092 153.249 331.337 160.2C352.747 167.33 370.506 167.152 392.083 159.665C400.879 156.635 410.506 154.14 413.493 154.14C416.481 154.14 426.107 156.635 434.737 159.665C458.803 167.864 478.056 167.33 502.786 157.527C514.57 152.892 522.371 153.249 535.815 158.774C557.889 167.686 579.797 167.508 604.527 158.596C619.631 153.071 625.108 153.071 640.377 158.596C664.111 167.508 685.522 167.508 708.924 158.774C724.525 152.892 729.172 152.892 748.591 159.665C771.329 167.508 790.25 167.508 810.997 159.665C819.129 156.635 828.258 154.14 831.245 154.14C834.067 154.14 843.527 156.635 851.992 159.665C873.9 167.33 892.489 167.33 914.895 159.665C923.692 156.635 932.986 154.14 935.642 154.14C938.297 154.14 947.924 156.635 957.052 159.665C979.458 166.973 997.051 167.152 1018.46 160.2C1039.71 153.249 1043.69 153.071 1058.63 158.239C1077.05 164.656 1079.87 165.191 1095.97 165.013C1107.75 165.013 1113.23 163.943 1125.02 159.487C1132.98 156.635 1142.11 154.14 1145.43 154.14C1148.75 154.14 1158.04 156.635 1166.18 159.665C1187.26 167.508 1205.84 167.508 1229.08 159.487C1247.67 153.071 1250.49 153.071 1272.4 160.2C1293.15 166.973 1311.57 166.973 1332.15 160.2C1353.89 153.071 1356.88 153.071 1375.47 159.487C1398.37 167.33 1417.13 167.33 1438.87 159.665C1447.33 156.635 1456.63 154.14 1459.62 154.14C1462.6 154.14 1471.73 156.635 1480.03 159.665C1501.11 167.33 1519.86 167.33 1542.27 159.665C1561.69 152.892 1566.17 152.892 1582.1 158.596C1606.34 167.686 1627.08 167.508 1651.81 158.596C1666.42 153.249 1671.56 153.071 1684.18 157.705C1709.74 167.33 1729.65 167.864 1752.56 159.665C1761.02 156.635 1770.15 154.14 1773.14 154.14C1775.96 154.14 1785.42 156.635 1794.22 159.665C1816.46 167.33 1833.55 167.33 1855.96 159.665C1864.75 156.635 1874.38 154.14 1877.37 154.14C1880.36 154.14 1889.98 156.635 1898.78 159.665C1921.35 167.508 1939.61 167.508 1962.68 159.487C1981.27 153.071 1984.09 153.071 2006 160.2C2027.57 167.152 2045.33 167.152 2066.41 159.665C2085.33 152.892 2089.15 152.892 2104.92 158.596C2129.31 167.686 2149.06 167.686 2172.96 158.596C2188.4 152.892 2193.05 152.892 2212.47 159.665C2233.21 166.795 2252.3 167.33 2271.22 161.27L2284 157.17V145.05C2284 138.277 2283.5 132.751 2282.84 132.751C2282.34 132.751 2276.03 134.89 2269.23 137.385C2251.47 143.98 2236.86 143.802 2215.79 136.494C2195.37 129.365 2186.74 129.365 2166.33 136.494C2144.75 143.98 2132.47 143.98 2111.72 136.494C2091.97 129.365 2082.84 129.365 2062.26 136.494C2041.35 143.624 2029.73 143.624 2007.82 136.316C1986.74 129.365 1978.11 129.543 1957.53 136.494C1935.96 143.98 1923.84 143.98 1902.1 136.494C1881.68 129.365 1873.05 129.365 1852.64 136.494C1831.06 143.98 1817.29 143.98 1797.7 136.494C1779.11 129.365 1769.32 129.365 1748.41 136.494C1727.16 143.802 1715.55 143.802 1693.97 136.494C1673.55 129.365 1664.59 129.365 1643.85 136.494C1622.27 143.98 1609.99 143.98 1588.41 136.494C1568 129.365 1559.37 129.365 1538.95 136.494C1517.87 143.802 1503.43 143.98 1485.67 137.207C1466.42 129.721 1454.97 129.543 1435.22 136.316C1413.48 143.802 1402.19 143.802 1380.28 136.494C1359.37 129.365 1350.74 129.543 1330.16 136.494C1308.42 143.98 1294.81 143.98 1274.22 136.494C1254.97 129.365 1245.84 129.365 1225.26 136.494C1203.69 143.98 1191.4 143.98 1169.83 136.494C1149.58 129.543 1141.45 129.543 1121.2 136.494C1099.95 143.802 1087.17 143.802 1066.1 136.316C1046.18 129.365 1037.05 129.365 1016.47 136.494C995.06 143.98 982.778 143.802 960.537 136.494C939.957 129.543 931.824 129.543 910.746 136.494C888.34 143.98 877.717 143.98 855.809 136.316C835.892 129.543 824.606 129.543 805.187 137.029C787.594 143.802 772.989 143.624 752.076 136.494C731.994 129.543 723.529 129.543 702.949 136.494C680.708 143.802 668.426 143.98 647.016 136.494C626.269 129.365 617.307 129.365 597.39 136.316C576.146 143.802 563.864 143.98 542.453 136.494C521.541 129.365 511.749 129.365 493.16 136.494C473.741 143.802 459.633 143.802 438.057 136.316C417.808 129.365 409.012 129.543 388.763 136.494C367.187 143.98 354.905 143.98 333.328 136.494C312.582 129.365 303.619 129.365 283.039 136.494C261.462 143.98 250.176 143.98 228.766 136.494C208.019 129.365 198.891 129.365 179.14 136.494C167.854 140.415 160.883 141.841 152.087 141.841C143.456 141.841 135.987 140.415 124.369 136.494C104.121 129.365 95.3243 129.543 75.0757 136.494C53.3333 143.98 41.2174 143.98 19.641 136.494C-1.4375 129.365 -11.0639 129.186 -30.6486 136.494C-51.0632 143.98 -64.8389 143.98 -85.5854 136.494C-94.05 133.464 -102.017 130.969 -103.51 130.969C-105.502 130.969 -106 133.286 -106 142.554Z" fill="#C6452C"/>
<path d="M-106 207.748V219.043L-89.7347 224.959C-67.4944 233.027 -50.7313 233.027 -27.1632 225.138C-8.07639 218.684 -4.09306 218.684 18.3132 226.035C32.2549 230.517 35.4083 230.875 51.5076 229.979C64.6194 229.441 72.2542 228.007 81.3826 224.421C96.8181 218.505 102.793 218.505 118.228 224.421C127.523 228.007 134.826 229.262 148.767 229.979C165.862 230.875 168.02 230.517 182.958 225.318C191.754 222.27 201.215 219.76 204.036 219.76C206.858 219.76 216.152 222.09 224.617 225.138C246.193 232.668 264.45 232.668 286.192 225.138C305.611 218.505 310.59 218.505 330.175 225.138C352.249 232.847 370.174 232.847 392.249 225.138C411.501 218.505 416.149 218.505 431.916 224.421C441.21 228.007 448.513 229.262 462.455 229.979C479.55 230.875 481.708 230.517 496.645 225.318C505.442 222.27 515.068 219.76 518.056 219.76C521.043 219.76 530.503 222.09 539.134 225.138C560.047 232.309 577.806 232.489 598.718 225.676C620.294 218.863 623.282 218.684 642.535 224.959C666.601 232.668 684.194 232.668 706.6 224.959C725.023 218.684 729.338 218.684 751.081 225.676C771.993 232.489 789.752 232.309 810.665 225.138C819.295 222.09 828.756 219.76 831.743 219.76C834.731 219.76 844.191 222.27 852.822 225.138C873.734 232.309 891.493 232.489 912.406 225.676C934.148 218.684 938.463 218.505 957.052 225.138C979.79 232.847 996.885 232.847 1020.12 225.138C1039.21 218.684 1043.19 218.684 1065.43 225.855C1079.04 230.337 1082.86 230.875 1097.8 230.158C1110.58 229.441 1117.71 228.186 1127.01 224.6C1142.77 218.505 1147.42 218.505 1166.84 225.318C1181.78 230.517 1183.94 230.875 1201.03 229.979C1214.97 229.262 1222.28 228.007 1231.57 224.421C1247.17 218.505 1250.99 218.505 1270.74 225.138C1293.64 232.668 1311.73 232.668 1333.97 224.959C1352.4 218.684 1356.71 218.684 1378.46 225.676C1399.37 232.489 1417.13 232.309 1438.04 225.138C1446.67 222.09 1456.13 219.76 1459.12 219.76C1462.11 219.76 1471.57 222.27 1480.2 225.138C1501.11 232.309 1518.87 232.489 1539.78 225.676C1561.52 218.684 1565.84 218.505 1584.43 225.138C1606.5 232.668 1624.26 232.847 1645.84 225.676C1664.59 219.401 1673.55 219.581 1692.97 225.855C1706.91 230.517 1710.07 230.875 1726.17 229.979C1739.78 229.441 1746.25 228.186 1755.05 224.421C1769.32 218.505 1774.8 218.505 1793.88 225.138C1815.63 232.668 1834.55 232.668 1856.29 225.138C1864.92 222.09 1874.38 219.76 1877.37 219.76C1880.36 219.76 1889.82 222.09 1898.45 225.138C1919.52 232.489 1938.61 232.668 1959.69 225.676C1981.43 218.684 1985.75 218.684 2004.17 224.959C2026.58 232.668 2045.33 232.847 2066.58 225.138C2074.87 222.09 2083.84 219.76 2086.82 219.76C2089.65 219.76 2098.94 222.27 2107.57 225.138C2129.31 232.668 2148.23 232.668 2169.98 225.138C2189.06 218.505 2193.71 218.505 2209.48 224.421C2227.57 231.413 2251.8 232.309 2270.39 226.931L2284 222.987V210.617C2284 203.804 2283.5 198.246 2282.84 198.246C2282.01 198.246 2275.7 200.218 2268.56 202.728C2250.64 209.003 2237.53 208.645 2216.78 201.832C2196.03 195.019 2186.57 195.019 2166.66 201.832C2145.58 209.182 2132.14 209.182 2111.72 201.832C2091.8 194.84 2081.68 194.84 2062.43 201.832C2042.34 209.182 2029.07 209.182 2007.99 201.832C1987.74 194.84 1977.78 194.84 1957.53 201.832C1936.79 209.003 1923.67 209.003 1902.26 201.832C1882.18 195.019 1872.89 195.019 1852.97 201.832C1831.73 209.182 1818.45 209.182 1797.54 201.653C1778.78 195.019 1766.17 195.199 1745.75 202.549C1727.83 209.003 1714.55 208.824 1694.3 201.832C1674.05 194.84 1664.09 194.84 1643.85 201.832C1622.77 209.182 1609.16 209.182 1588.08 201.832C1568 194.84 1558.37 194.84 1538.29 201.832C1527 205.776 1519.37 207.21 1511.07 207.21C1502.6 207.21 1495.3 205.776 1484.35 201.832C1464.6 194.84 1454.47 194.84 1434.55 201.832C1413.81 209.003 1401.36 209.003 1380.61 201.832C1370.65 198.426 1361.53 196.454 1355.39 196.454C1349.24 196.454 1340.12 198.426 1330.16 201.832C1309.08 209.182 1295.47 209.182 1274.39 201.832C1254.47 195.019 1245.01 195.019 1224.27 201.832C1202.52 209.003 1190.24 209.003 1169.99 201.832C1160.2 198.246 1151.57 196.454 1145.26 196.454C1138.96 196.454 1130.33 198.246 1120.53 201.832C1100.45 209.003 1088.17 209.003 1066.59 201.832C1056.97 198.605 1046.68 196.454 1041.2 196.454C1035.56 196.454 1026.1 198.605 1016.47 201.832C1005.02 205.776 997.881 207.21 988.587 207.21C979.292 207.21 972.156 205.776 960.703 201.832C940.787 195.019 931.326 195.019 910.58 201.832C888.672 209.182 875.56 209.182 856.639 201.832C837.884 194.661 826.598 194.661 806.847 201.832C795.893 205.776 788.756 207.21 780.292 207.21C771.993 207.21 764.358 205.776 753.238 201.832C732.99 194.84 723.031 194.84 702.783 201.832C681.704 209.182 668.094 209.182 647.016 201.832C637.39 198.605 627.929 196.454 622.286 196.454C616.809 196.454 606.519 198.605 596.892 201.832C575.316 209.003 563.034 209.003 542.951 201.832C523.201 194.84 512.744 194.84 492.828 201.832C482.206 205.597 474.571 207.21 466.604 207.21C458.803 207.21 450.339 205.597 439.219 201.832C429.592 198.605 419.302 196.454 413.825 196.454C408.182 196.454 398.722 198.605 389.095 201.832C377.643 205.776 370.506 207.21 361.212 207.21C351.917 207.21 344.781 205.776 333.328 201.832C323.37 198.426 314.242 196.454 308.101 196.454C301.96 196.454 292.831 198.426 282.873 201.832C271.587 205.776 264.118 207.21 255.322 207.21C246.193 207.21 239.554 205.776 228.434 201.832C218.642 198.246 210.343 196.454 204.036 196.454C197.729 196.454 189.099 198.246 179.14 201.832C158.892 209.003 145.78 209.003 124.701 201.832C104.287 194.84 94.4944 194.84 74.5778 201.832C63.4576 205.776 56.1549 207.21 47.3583 207.21C38.8937 207.21 30.9271 205.597 19.309 201.832C9.68264 198.605 -0.607642 196.454 -6.08472 196.454C-11.7278 196.454 -21.1882 198.605 -30.8146 201.832C-42.1007 205.776 -49.5694 207.21 -58.2 207.21C-66.6646 207.21 -74.2993 205.776 -85.5854 201.832C-94.05 198.784 -102.183 196.454 -103.51 196.454C-105.502 196.454 -106 198.963 -106 207.748Z" fill="#C6452C"/>
<path d="M-105.999 273.312V284.687L-91.3935 289.923C-78.4477 294.798 -74.9622 295.339 -57.0372 295.159C-39.9421 294.978 -35.4609 294.436 -24.8386 290.284C-9.23726 284.145 -5.08796 284.145 15.4926 290.825C38.0648 298.047 55.1599 298.228 75.9065 291.367C94.8273 285.048 104.952 285.048 124.536 291.548C138.478 296.242 141.631 296.603 156.901 295.7C169.183 295.159 176.984 293.534 185.614 290.103C201.049 284.145 206.361 284.145 225.779 291.006C240.551 296.242 242.874 296.603 259.14 295.7C271.422 294.978 280.384 293.353 289.845 290.103C306.442 284.145 311.919 284.326 327.354 290.103C336.151 293.534 344.283 295.159 356.399 295.7C371.669 296.603 374.822 296.242 388.764 291.548C408.349 285.048 418.473 285.048 437.394 291.367C458.14 298.228 475.401 298.228 496.148 290.825C504.613 287.756 514.239 285.409 517.558 285.409C520.878 285.409 530.504 287.756 539.135 290.825C560.711 298.409 577.64 298.409 600.213 290.825C620.129 284.145 625.274 284.145 641.042 290.284C651.996 294.617 655.647 295.159 674.9 295.159C694.153 295.159 697.804 294.617 708.758 290.284C724.526 284.145 729.671 284.145 749.587 290.825C772.16 298.409 789.089 298.409 810.665 290.825C819.296 287.756 828.756 285.409 831.744 285.409C834.731 285.409 844.192 287.937 852.822 290.825C874.399 298.409 891.162 298.409 914.066 290.825C934.148 284.145 938.962 284.145 954.729 290.103C963.526 293.534 971.658 295.159 983.774 295.7C998.878 296.603 1002.36 296.242 1016.14 291.728C1038.54 284.506 1043.03 284.326 1060.12 290.103C1070.74 293.714 1079.54 295.339 1091.49 295.881C1106.59 296.422 1109.58 296.061 1124.02 291.006C1132.82 287.937 1142.44 285.409 1145.43 285.409C1148.42 285.409 1157.88 287.756 1166.51 290.825C1188.09 298.409 1204.85 298.409 1228.58 290.645C1248.33 284.326 1252.15 284.326 1274.72 291.728C1288.5 296.242 1291.98 296.603 1307.09 295.7C1319.2 295.159 1327.34 293.534 1336.13 290.103C1351.9 284.145 1358.21 284.145 1377.29 290.825C1398.87 298.409 1416.46 298.409 1438.04 290.825C1446.67 287.756 1456.13 285.409 1459.12 285.409C1462.11 285.409 1471.57 287.937 1480.2 290.825C1501.77 298.409 1518.7 298.409 1541.27 290.825C1561.19 284.145 1566.34 284.145 1582.1 290.284C1592.89 294.436 1597.04 295.159 1615.13 295.159C1633.56 295.339 1637.37 294.798 1649.65 290.284C1666.75 284.145 1671.4 284.145 1687.66 290.103C1696.96 293.353 1705.59 294.978 1718.03 295.7C1734.3 296.603 1736.62 296.242 1751.4 291.006C1771.15 283.965 1776.62 283.965 1794.88 290.825C1814.8 298.228 1832.56 298.409 1853.47 291.367C1872.22 285.048 1882.51 285.048 1901.27 291.367C1922.18 298.409 1939.77 298.228 1960.85 290.825C1979.94 284.145 1986.25 284.145 2002.01 290.103C2011.14 293.714 2018.78 294.978 2031.72 295.7C2047.82 296.603 2050.31 296.242 2065.08 291.006C2084.34 284.326 2090.48 284.145 2105.58 290.103C2114.04 293.534 2121.85 294.978 2133.96 295.7C2149.06 296.603 2152.38 296.242 2166.33 291.728C2188.73 284.506 2193.38 284.326 2209.64 289.923C2229.73 297.145 2251.3 298.047 2270.06 292.631L2284 288.478V276.201C2284 269.34 2283.5 263.743 2282.84 263.743C2282.01 263.743 2275.7 265.729 2268.56 268.257C2250.47 274.576 2237.03 274.395 2217.11 267.354C2196.7 260.312 2186.41 260.312 2165.33 267.354C2143.92 274.576 2132.47 274.576 2111.89 267.354C2091.47 260.312 2081.51 260.312 2061.43 267.534C2047.49 272.59 2044.34 273.132 2031.72 272.229C2022.76 271.687 2013.13 269.521 2005.33 266.632C1988.57 260.312 1977.28 260.493 1957.53 267.354C1936.79 274.576 1924.67 274.576 1903.09 267.354C1893.14 263.923 1883.34 261.937 1877.37 261.937C1871.39 261.937 1861.6 263.923 1851.64 267.354C1830.07 274.576 1818.12 274.576 1798.53 267.354C1788.41 263.562 1780.61 261.937 1773.3 261.937C1766.17 261.937 1758.2 263.562 1747.91 267.354C1727.66 274.576 1715.21 274.576 1694.3 267.354C1674.05 260.312 1664.09 260.312 1643.85 267.354C1623.1 274.576 1610.98 274.576 1589.41 267.354C1568.33 260.312 1558.04 260.312 1537.62 267.354C1516.88 274.576 1504.59 274.576 1484.35 267.354C1464.43 260.312 1453.81 260.312 1433.89 267.354C1423.1 271.326 1415.63 272.77 1407.5 272.77C1399.37 272.77 1391.57 271.145 1380.61 267.354C1360.7 260.493 1349.91 260.312 1332.15 266.812C1313.23 273.673 1291.15 273.673 1272.57 266.812C1255.14 260.312 1244.02 260.312 1223.94 267.354C1203.02 274.576 1190.58 274.576 1170.33 267.354C1160.37 263.743 1152.07 261.937 1145.43 261.937C1138.79 261.937 1130.49 263.743 1120.54 267.354C1100.29 274.576 1087.84 274.576 1066.93 267.354C1046.68 260.312 1037.05 260.312 1015.64 267.534C1001.04 272.409 997.218 273.132 985.434 272.409C977.301 271.868 966.845 269.521 958.878 266.632C941.285 260.312 930.165 260.493 910.248 267.354C899.294 271.145 891.494 272.77 883.361 272.77C875.228 272.77 867.76 271.326 856.971 267.354C846.847 263.743 838.383 261.937 831.744 261.937C825.105 261.937 816.64 263.743 806.516 267.354C795.728 271.326 788.259 272.77 780.126 272.77C771.994 272.77 764.193 271.145 753.239 267.354C732.824 260.312 722.534 260.312 701.29 267.534C687.182 272.229 683.033 272.951 671.581 272.229C663.448 271.687 653.324 269.701 645.191 266.632C627.598 260.312 616.478 260.493 596.561 267.354C575.649 274.576 563.201 274.576 542.952 267.354C532.994 263.743 524.695 261.937 518.056 261.937C511.583 261.937 502.787 263.743 492.663 267.354C481.874 271.145 473.742 272.77 466.273 272.77C458.97 272.77 450.174 270.965 439.22 267.354C429.261 263.923 419.469 261.937 413.494 261.937C407.519 261.937 397.726 263.923 387.768 267.354C376.482 271.145 368.183 272.77 360.217 272.77C352.084 272.77 344.283 271.145 333.329 267.354C313.081 260.312 303.122 260.312 282.874 267.354C261.961 274.576 249.347 274.576 228.933 267.354C219.306 263.923 210.51 261.937 204.369 261.937C198.394 261.937 188.602 263.923 178.643 267.354C167.855 270.965 158.893 272.77 151.922 272.77C144.785 272.77 136.32 270.965 125.864 267.354C105.284 260.132 94.3294 260.132 73.7488 267.354C62.7947 271.145 54.994 272.77 46.8613 272.77C38.8947 272.77 30.5961 271.145 19.31 267.354C9.68357 264.104 -0.606707 261.937 -6.08379 261.937C-11.7268 261.937 -21.1873 264.104 -30.8136 267.354C-41.9338 271.326 -49.5685 272.77 -57.8671 272.77C-66.1657 272.77 -73.8004 271.326 -84.9206 267.354C-106.497 259.771 -105.999 259.59 -105.999 273.312Z" fill="#C6452C"/>
<path d="M-106 338.945V350.468L-91.3944 355.772C-78.4486 360.711 -74.9632 361.259 -57.0382 361.076C-39.7771 361.076 -35.4618 360.345 -24.8396 356.138C-18.0347 353.394 -9.40417 351.199 -5.58681 351.199C-1.76945 351.199 6.86111 353.394 13.666 356.138C24.2882 360.345 28.6035 361.076 45.8646 361.076C63.2917 361.259 67.441 360.711 79.5569 356.138C87.1917 353.394 96.3201 351.199 99.8056 351.199C103.291 351.199 112.419 353.394 120.054 356.138C132.004 360.528 136.319 361.259 152.917 361.076C169.182 361.076 173.829 360.162 184.285 356.138C199.721 349.919 207.19 349.919 222.791 355.955C231.256 359.247 239.886 361.076 251.006 361.625C265.28 362.54 268.765 361.991 282.541 357.601C305.113 350.102 311.254 349.919 327.519 356.138C339.801 360.711 343.453 361.259 361.212 361.076C378.307 361.076 383.12 360.345 394.406 356.138C411.003 349.919 415.485 349.919 433.244 356.138C445.36 360.528 450.339 361.259 466.604 361.259C483.367 361.259 487.351 360.528 498.637 355.955C514.238 349.919 520.213 350.102 542.785 357.601C556.561 361.991 560.047 362.54 574.32 361.625C585.44 361.076 594.071 359.247 602.535 355.955C618.137 349.919 625.108 349.919 641.705 356.138C652.991 360.345 657.97 361.076 674.069 361.076C690.501 361.259 695.148 360.528 707.43 356.321C725.355 349.919 731.662 349.919 747.263 355.955C755.728 359.247 764.358 361.076 775.478 361.625C789.752 362.54 793.237 361.991 807.013 357.601C829.585 350.102 834.233 349.919 850.332 356.138C862.614 360.711 866.265 361.259 884.024 361.076C901.119 361.076 905.767 360.345 916.887 356.138C932.82 350.102 938.629 349.919 955.392 355.955C964.355 359.247 973.815 361.076 984.603 361.625C998.877 362.54 1002.36 361.991 1016.14 357.601C1038.54 350.102 1043.19 350.102 1061.12 356.138C1074.23 360.528 1079.37 361.259 1094.81 361.259C1110.24 361.076 1115.06 360.345 1126.18 356.138C1142.44 349.919 1148.42 349.919 1164.68 356.138C1175.97 360.528 1180.45 361.076 1196.88 361.259C1213.31 361.259 1217.96 360.528 1229.74 356.138C1246.84 349.919 1252.32 349.919 1269.08 356.138C1280.53 360.345 1285.01 361.076 1302.27 361.076C1319.54 361.076 1324.02 360.345 1335.47 356.138C1352.07 349.919 1357.87 349.919 1373.97 356.138C1385.09 360.345 1389.74 361.076 1406.84 361.076C1424.6 361.259 1428.25 360.711 1440.53 356.138C1456.63 349.919 1461.28 350.102 1483.85 357.601C1497.62 361.991 1501.11 362.54 1515.38 361.625C1525.84 361.076 1535.96 359.064 1544.59 355.955C1561.36 349.919 1566 350.102 1583.43 356.138C1595.71 360.528 1600.36 361.259 1616.79 361.076C1632.89 361.076 1637.87 360.345 1649.16 356.138C1665.75 349.919 1672.39 349.919 1688.99 356.138C1700.44 360.345 1704.92 361.076 1722.18 361.076C1739.61 361.076 1743.59 360.345 1754.38 356.138C1769.98 349.919 1777.45 349.919 1792.89 356.138C1803.51 360.528 1807.66 361.259 1824.26 361.259C1840.52 361.259 1845.5 360.528 1857.62 356.138C1875.54 349.919 1879.86 349.919 1896.45 356.138C1908.07 360.528 1912.22 361.076 1930.48 361.076C1948.74 361.076 1952.72 360.528 1963.51 356.138C1978.94 349.919 1985.91 349.919 2002.68 356.138C2014.13 360.345 2018.61 361.076 2035.87 361.076C2053.3 361.076 2057.28 360.345 2068.07 356.138C2083.51 349.919 2090.97 349.919 2106.58 356.138C2117.03 360.162 2121.68 361.076 2137.94 361.076C2154.38 361.259 2159.02 360.528 2171.3 356.138C2189.23 349.919 2194.04 349.919 2211.3 356.138C2229.23 362.723 2255.29 363.271 2272.88 357.601L2284 353.943V341.688C2284 334.738 2283.34 329.25 2282.67 329.25C2281.84 329.25 2276.86 330.897 2271.39 333.091C2265.91 335.286 2255.45 337.298 2247.49 337.847C2234.87 338.579 2231.72 338.213 2217.45 333.091C2196.53 325.592 2185.74 325.592 2165 332.909C2144.42 340.225 2132.8 340.225 2112.72 332.909C2092.8 325.592 2081.51 325.592 2061.6 332.909C2041.85 340.225 2030.73 340.225 2009.32 332.909C1988.74 325.958 1977.45 325.775 1959.52 332.177C1951.56 335.103 1940.94 337.298 1932.97 337.847C1921.52 338.579 1917.37 337.847 1903.26 333.091C1882.18 325.775 1872.55 325.775 1851.64 332.909C1830.4 340.042 1819.78 340.042 1798.53 332.909C1777.29 325.775 1767.49 325.775 1747.58 333.091C1733.97 338.03 1730.48 338.579 1718.86 337.847C1710.9 337.481 1700.28 335.103 1692.31 332.177C1674.88 325.958 1662.43 325.958 1645.5 332.177C1637.7 335.103 1627.25 337.298 1619.28 337.847C1607.66 338.579 1604.01 338.03 1590.07 333.091C1569.16 325.592 1558.37 325.592 1537.62 332.909C1517.21 340.225 1506.09 340.225 1484.84 332.909C1463.6 325.775 1453.81 325.775 1433.06 333.091C1418.62 338.213 1415.3 338.762 1403.52 337.847C1395.72 337.298 1385.09 334.921 1377.96 332.177C1361.19 325.775 1349.41 325.958 1328.83 332.909C1307.59 340.042 1296.96 340.042 1275.72 332.909C1255.14 325.958 1243.35 325.775 1226.59 332.177C1219.45 334.921 1208.83 337.298 1201.03 337.847C1189.25 338.762 1185.93 338.213 1171.49 333.091C1150.41 325.592 1140.45 325.592 1119.37 333.091C1104.93 338.213 1101.61 338.762 1089.83 337.847C1082.03 337.298 1071.41 334.921 1064.27 332.177C1047.67 325.775 1036.72 325.958 1015.64 332.909C993.898 340.042 983.11 340.042 962.031 332.909C940.953 325.775 930.662 325.775 910.248 332.909C899.46 336.75 891.493 338.396 883.692 338.396C876.058 338.396 868.091 336.75 857.137 332.909C836.888 325.775 826.93 325.775 805.851 333.091C785.935 339.859 771.993 339.676 751.247 332.177C733.156 325.775 721.04 325.958 701.123 332.909C680.708 340.225 669.588 340.225 648.344 332.909C627.763 325.958 615.979 325.775 599.216 332.177C592.079 334.921 581.457 337.298 573.656 337.847C561.872 338.762 558.553 338.213 544.113 333.091C523.201 325.775 513.408 325.775 492.164 333.091C477.724 338.03 474.073 338.579 462.455 337.847C454.488 337.298 444.198 334.921 436.895 332.177C420.132 325.775 408.348 325.958 387.767 332.909C366.689 340.042 356.067 340.042 334.49 332.909C313.08 325.775 302.624 325.775 281.545 332.909C260.301 340.042 249.678 340.042 229.596 332.909C218.974 329.068 210.841 327.421 203.538 327.421C196.069 327.421 188.269 329.068 177.812 332.909C157.896 340.225 146.444 340.225 125.863 332.909C105.117 325.592 94.3285 325.592 73.416 333.091C59.1424 338.213 55.9889 338.579 43.375 337.847C34.2465 337.298 24.9521 335.286 17.3174 332.177C1.05208 325.775 -10.4 325.958 -31.6444 332.909C-42.5986 336.567 -52.059 338.396 -58.8639 338.396C-66.1667 338.396 -74.1333 336.75 -84.4236 332.909C-106 325.044 -106 325.044 -106 338.945Z" fill="#C6452C"/>
</svg>
