<svg width="2386" height="66" viewBox="0 0 2386 35" fill="none" xmlns="http://www.w3.org/2000/svg">
<path d="M0.000967506 11.3746V22.7492L14.5821 27.9852C27.5062 32.86 30.9858 33.4017 48.8808 33.2211C65.9473 33.0406 70.4211 32.4989 81.0255 28.3463C96.6008 22.2076 100.743 22.2076 121.289 28.8879C143.824 36.1099 160.89 36.2905 181.602 29.4296C200.491 23.1103 210.599 23.1103 230.15 29.6101C244.069 34.3044 247.217 34.6655 262.461 33.7628C274.722 33.2211 282.51 31.5962 291.126 28.1657C306.536 22.2076 311.838 22.2076 331.224 29.0685C345.971 34.3044 348.291 34.6655 364.529 33.7628C376.79 33.0406 385.737 31.4156 395.182 28.1657C411.751 22.2076 417.219 22.3881 432.629 28.1657C441.411 31.5962 449.53 33.2211 461.625 33.7628C476.869 34.6655 480.018 34.3044 493.936 29.6101C513.488 23.1103 523.595 23.1103 542.484 29.4296C563.196 36.2905 580.428 36.2905 601.14 28.8879C609.591 25.8186 619.201 23.4714 622.515 23.4714C625.829 23.4714 635.439 25.8186 644.055 28.8879C665.595 36.471 682.496 36.471 705.031 28.8879C724.914 22.2076 730.05 22.2076 745.791 28.3463C756.727 32.6795 760.372 33.2211 779.593 33.2211C798.814 33.2211 802.459 32.6795 813.395 28.3463C829.136 22.2076 834.272 22.2076 854.155 28.8879C876.69 36.471 893.591 36.471 915.131 28.8879C923.747 25.8186 933.192 23.4714 936.174 23.4714C939.157 23.4714 948.601 25.9991 957.217 28.8879C978.758 36.471 995.493 36.471 1018.36 28.8879C1038.41 22.2076 1043.21 22.2076 1058.95 28.1657C1067.74 31.5962 1075.85 33.2211 1087.95 33.7628C1103.03 34.6655 1106.51 34.3044 1120.26 29.7907C1142.63 22.5687 1147.1 22.3881 1164.17 28.1657C1174.77 31.7767 1183.56 33.4017 1195.49 33.9433C1210.56 34.485 1213.55 34.1239 1227.96 29.0685C1236.74 25.9991 1246.35 23.4714 1249.34 23.4714C1252.32 23.4714 1261.76 25.8186 1270.38 28.8879C1291.92 36.471 1308.66 36.471 1332.35 28.7074C1352.07 22.3881 1355.88 22.3881 1378.41 29.7907C1392.17 34.3044 1395.64 34.6655 1410.72 33.7628C1422.82 33.2211 1430.94 31.5962 1439.72 28.1657C1455.46 22.2076 1461.76 22.2076 1480.81 28.8879C1502.35 36.471 1519.92 36.471 1541.46 28.8879C1550.07 25.8186 1559.52 23.4714 1562.5 23.4714C1565.48 23.4714 1574.93 25.9991 1583.54 28.8879C1605.08 36.471 1621.98 36.471 1644.52 28.8879C1664.4 22.2076 1669.54 22.2076 1685.28 28.3463C1696.05 32.4989 1700.19 33.2211 1718.25 33.2211C1736.64 33.4017 1740.45 32.86 1752.72 28.3463C1769.78 22.2076 1774.42 22.2076 1790.66 28.1657C1799.94 31.4156 1808.56 33.0406 1820.98 33.7628C1837.22 34.6655 1839.54 34.3044 1854.29 29.0685C1874 22.027 1879.47 22.027 1897.7 28.8879C1917.58 36.2905 1935.31 36.471 1956.19 29.4296C1974.91 23.1103 1985.19 23.1103 2003.91 29.4296C2024.79 36.471 2042.35 36.2905 2063.39 28.8879C2082.45 22.2076 2088.74 22.2076 2104.49 28.1657C2113.6 31.7767 2121.22 33.0406 2134.14 33.7628C2150.22 34.6655 2152.7 34.3044 2167.45 29.0685C2186.67 22.3881 2192.8 22.2076 2207.88 28.1657C2216.33 31.5962 2224.12 33.0406 2236.21 33.7628C2251.29 34.6655 2254.6 34.3044 2268.52 29.7907C2290.89 22.5687 2295.53 22.3881 2311.77 27.9852C2331.82 35.2072 2353.36 36.1099 2372.08 30.6934L2386 26.5408V14.2634C2386 7.40248 2385.5 1.80544 2384.84 1.80544C2384.01 1.80544 2377.72 3.79148 2370.59 6.31918C2352.53 12.6384 2339.11 12.4579 2319.23 5.41643C2298.84 -1.62501 2288.57 -1.62501 2267.53 5.41643C2246.15 12.6384 2234.72 12.6384 2214.17 5.41643C2193.79 -1.62501 2183.85 -1.62501 2163.8 5.59698C2149.89 10.6524 2146.74 11.194 2134.14 10.2913C2125.2 9.74963 2115.59 7.58303 2107.8 4.69423C2091.06 -1.62501 2079.8 -1.44446 2060.08 5.41643C2039.37 12.6384 2027.27 12.6384 2005.73 5.41643C1995.79 1.98599 1986.01 -6.22082e-05 1980.05 -6.22082e-05C1974.08 -6.22082e-05 1964.31 1.98599 1954.37 5.41643C1932.83 12.6384 1920.9 12.6384 1901.34 5.41643C1891.24 1.62489 1883.45 -6.22082e-05 1876.16 -6.22082e-05C1869.03 -6.22082e-05 1861.08 1.62489 1850.81 5.41643C1830.59 12.6384 1818.17 12.6384 1797.29 5.41643C1777.07 -1.62501 1767.13 -1.62501 1746.92 5.41643C1726.2 12.6384 1714.11 12.6384 1692.57 5.41643C1671.53 -1.62501 1661.25 -1.62501 1640.87 5.41643C1620.16 12.6384 1607.9 12.6384 1587.68 5.41643C1567.8 -1.62501 1557.2 -1.62501 1537.31 5.41643C1526.54 9.38853 1519.09 10.8329 1510.97 10.8329C1502.85 10.8329 1495.06 9.20798 1484.13 5.41643C1464.24 -1.44446 1453.47 -1.62501 1435.74 4.87478C1416.85 11.7357 1394.82 11.7357 1376.26 4.87478C1358.86 -1.62501 1347.76 -1.62501 1327.71 5.41643C1306.83 12.6384 1294.41 12.6384 1274.19 5.41643C1264.25 1.80544 1255.96 -6.22082e-05 1249.34 -6.22082e-05C1242.71 -6.22082e-05 1234.42 1.80544 1224.48 5.41643C1204.27 12.6384 1191.84 12.6384 1170.96 5.41643C1150.75 -1.62501 1141.14 -1.62501 1119.76 5.59698C1105.18 10.4718 1101.37 11.194 1089.61 10.4718C1081.49 9.93018 1071.05 7.58303 1063.1 4.69423C1045.53 -1.62501 1034.43 -1.44446 1014.55 5.41643C1003.61 9.20798 995.824 10.8329 987.705 10.8329C979.586 10.8329 972.13 9.38853 961.36 5.41643C951.252 1.80544 942.802 -6.22082e-05 936.174 -6.22082e-05C929.546 -6.22082e-05 921.096 1.80544 910.989 5.41643C900.218 9.38853 892.762 10.8329 884.643 10.8329C876.524 10.8329 868.737 9.20798 857.801 5.41643C837.42 -1.62501 827.147 -1.62501 805.938 5.59698C791.854 10.2913 787.712 11.0135 776.279 10.2913C768.16 9.74963 758.053 7.76358 749.934 4.69423C732.37 -1.62501 721.269 -1.44446 701.385 5.41643C680.508 12.6384 668.081 12.6384 647.866 5.41643C637.924 1.80544 629.64 -6.22082e-05 623.012 -6.22082e-05C616.55 -6.22082e-05 607.768 1.80544 597.661 5.41643C586.89 9.20798 578.771 10.8329 571.315 10.8329C564.025 10.8329 555.243 9.02743 544.307 5.41643C534.365 1.98599 524.589 -6.22082e-05 518.624 -6.22082e-05C512.659 -6.22082e-05 502.883 1.98599 492.942 5.41643C481.675 9.20798 473.39 10.8329 465.436 10.8329C457.317 10.8329 449.53 9.20798 438.594 5.41643C418.379 -1.62501 408.438 -1.62501 388.223 5.41643C367.345 12.6384 354.753 12.6384 334.372 5.41643C324.762 1.98599 315.98 -6.22082e-05 309.849 -6.22082e-05C303.884 -6.22082e-05 294.108 1.98599 284.167 5.41643C273.397 9.02743 264.449 10.8329 257.49 10.8329C250.365 10.8329 241.915 9.02743 231.476 5.41643C210.93 -1.80556 199.994 -1.80556 179.448 5.41643C168.512 9.20798 160.725 10.8329 152.605 10.8329C144.652 10.8329 136.367 9.20798 125.1 5.41643C115.49 2.16654 105.217 -6.22082e-05 99.749 -6.22082e-05C94.1154 -6.22082e-05 84.6708 2.16654 75.0605 5.41643C63.959 9.38853 56.3371 10.8329 48.0523 10.8329C39.7676 10.8329 32.1457 9.38853 21.0442 5.41643C-0.496116 -2.16666 0.000967506 -2.34721 0.000967506 11.3746Z" fill="#002B5F"/>
</svg>
