<svg viewBox="0 0 51.85 49.29" xmlns="http://www.w3.org/2000/svg"><g fill="#e94f35"><path d="m48 45.57h-44.1v-41.86h44.1zm-48 3.72h51.85v-49.29h-51.85z"/><path d="m28.77 22.66-.49-8.91 4.43 8.71 3.39-.17 3.44-9.21.49 9 3.9-.19-.8-14.46h-5.2l-3.81 9.76-5.07-9.74h-5.05l.84 15.4z"/><path d="m19.15 26.83.52 9.41-7.7-9-4 .2.8 14.48h3.91l-.49-8.75 7.49 8.75h4.25l-.84-15.23z"/><path d="m36.1 28.55 2.33 3 2-1.52.57 11.06 3-.15v-15.35l-4 .2z"/><path d="m30.07 33.13a1.74 1.74 0 0 1 -1.86-1.61v-.18a1.71 1.71 0 0 1 1.45-1.93h.21a1.87 1.87 0 1 1 .2 3.74zm5.47-2.13a5.27 5.27 0 0 0 -.48-2.07 5.47 5.47 0 0 0 -1.3-1.72 5.79 5.79 0 0 0 -1.89-1.1 5.86 5.86 0 0 0 -2.2-.3 5.32 5.32 0 0 0 -5.19 5.43v.3a5.38 5.38 0 0 0 5.52 5.21h.23a5.76 5.76 0 0 0 2.16-.52 5.32 5.32 0 0 0 1.76-1.28 5.1 5.1 0 0 0 1.39-3.95z"/><path d="m15.09 11.64c1.81-.09 3.33 1 3.4 2.37s-1.16 2.63-3 2.72l-4.22.21-.27-5.1zm-3.44 11.87-.16-3 4.24-.21c3.78-.19 6.84-3.06 6.65-6.55s-3.6-6-7.33-5.83l-7.24.34v15.44z"/><path d="m34 37.83-7.15.36.15 3.61 7.15-.35z"/></g></svg>