<svg width="32" height="29" viewBox="0 0 32 29" fill="none" xmlns="http://www.w3.org/2000/svg">
<path d="M13.5971 18.6179C13.5971 18.6179 25.8491 6.79532 25.3164 6.26286C24.7837 5.7304 7.73747 16.4692 7.73747 16.4692M13.5971 18.6179C13.5971 18.6179 15.2448 20.1555 17.326 21.969M13.5971 18.6179C13.5971 18.6179 12.2984 23.5259 11.4663 26.6708M7.73747 16.4692C7.73747 16.4692 3.20714 15.0263 0.81158 13.2414C-0.786358 12.0508 29.232 -0.725083 30.6433 0.891109C31.5774 1.96079 26.0905 27.8166 25.3164 27.7499C24.0694 27.6424 20.2654 24.5305 17.326 21.969M7.73747 16.4692C7.73747 16.4692 10.4009 26.6708 11.4663 26.6708M11.4663 26.6708C13.0644 26.6708 17.326 21.969 17.326 21.969" stroke="#00346F" stroke-width="1.5"/>
</svg>
