<svg width="29" height="29" viewBox="0 0 29 29" fill="none" xmlns="http://www.w3.org/2000/svg">
<path d="M27.4382 14.25C27.4382 6.79397 21.4641 0.75 14.0941 0.75C6.72416 0.75 0.75 6.79397 0.75 14.25C0.75 21.7061 6.72416 27.7501 14.0941 27.7501" stroke="#00346F" stroke-width="1.5" stroke-linecap="round" stroke-linejoin="round"/>
<path d="M15.4316 0.816406C15.4316 0.816406 19.4348 6.14892 19.4348 14.2489M12.7628 27.6815C12.7628 27.6815 8.75954 22.349 8.75954 14.2489C8.75954 6.14892 12.7628 0.816406 12.7628 0.816406M1.59375 18.974H14.0972M1.59375 9.52393H26.6006" stroke="#00346F" stroke-width="1.5" stroke-linecap="round" stroke-linejoin="round"/>
<path d="M27.2804 22.2379C27.9396 22.6483 27.8982 23.646 27.2203 23.7243L23.7949 24.1171L22.259 27.2383C21.9547 27.858 21.014 27.5542 20.8579 26.7874L19.1832 18.5308C19.0511 17.8828 19.6275 17.4751 20.184 17.8221L27.2804 22.2379Z" stroke="#00346F" stroke-width="1.5"/>
</svg>
