<svg width="95" height="95" viewBox="0 0 95 95" fill="none" xmlns="http://www.w3.org/2000/svg">
<g clip-path="url(#clip0_2_45)">
<path d="M34.7918 70.3752H24.6252C23.9511 70.3752 23.3046 70.1074 22.8279 69.6307C22.3513 69.1541 22.0835 68.5076 22.0835 67.8335V47.5002C22.0835 46.8261 22.3513 46.1796 22.8279 45.7029C23.3046 45.2263 23.9511 44.9585 24.6252 44.9585H34.7918M34.7918 70.3752L44.9585 72.9168H60.2085C61.8587 73.0104 63.4946 72.5653 64.8699 71.6485C66.2451 70.7316 67.2852 69.3927 67.8335 67.8335L72.9168 47.5002C73.1677 46.601 73.2254 45.6453 73.085 44.7148C72.9446 43.7844 72.6103 42.907 72.1107 42.1575C71.611 41.4081 70.961 40.809 70.2161 40.4115C69.4712 40.0141 68.6537 39.83 67.8335 39.8752H52.5835V29.7085C52.5835 27.6862 51.7801 25.7468 50.3502 24.3168C48.9202 22.8868 46.9808 22.0835 44.9585 22.0835L34.7918 44.9585M34.7918 70.3752V44.9585" stroke="white" stroke-width="4" stroke-linecap="round" stroke-linejoin="round"/>
<circle cx="47.5" cy="47.5" r="45.5" stroke="white" stroke-width="4"/>
</g>
<defs>
<clipPath id="clip0_2_45">
<rect width="95" height="95" fill="white"/>
</clipPath>
</defs>
</svg>
