<svg width="95" height="95" viewBox="0 0 95 95" fill="none" xmlns="http://www.w3.org/2000/svg">
<g clip-path="url(#clip0_2_105)">
<path d="M66.5626 48.9539L47.5001 67.8333L28.4376 48.9539C27.1802 47.7303 26.1898 46.2597 25.5288 44.6346C24.8677 43.0095 24.5503 41.2652 24.5964 39.5114C24.6426 37.7576 25.0515 36.0324 25.7972 34.4443C26.5429 32.8563 27.6093 31.4399 28.9294 30.2842C30.2494 29.1286 31.7944 28.2588 33.4671 27.7296C35.1397 27.2004 36.9039 27.0233 38.6484 27.2094C40.3929 27.3955 42.08 27.9408 43.6034 28.8109C45.1268 29.681 46.4535 30.8572 47.5001 32.2653C48.5511 30.8674 49.8794 29.7015 51.4018 28.8406C52.9242 27.9797 54.6078 27.4423 56.3474 27.2621C58.0871 27.0818 59.8452 27.2625 61.5117 27.7929C63.1783 28.3234 64.7174 29.1921 66.0328 30.3447C67.3481 31.4973 68.4114 32.909 69.1561 34.4915C69.9008 36.074 70.3109 37.7931 70.3606 39.5413C70.4103 41.2895 70.0987 43.0292 69.4452 44.6514C68.7916 46.2737 67.8103 47.7436 66.5626 48.9691" stroke="white" stroke-width="4" stroke-linecap="round" stroke-linejoin="round"/>
<circle cx="47.5" cy="47.5" r="45.5" stroke="white" stroke-width="4"/>
</g>
<defs>
<clipPath id="clip0_2_105">
<rect width="95" height="95" fill="white"/>
</clipPath>
</defs>
</svg>
