<svg width="152" height="152" viewBox="0 0 152 152" fill="none" xmlns="http://www.w3.org/2000/svg">
<circle cx="76" cy="76" r="71" stroke="#BEBCBC" stroke-width="10"/>
<path d="M41.9609 103.708L66.5026 81.9362C66.5026 81.9362 77.1901 76.3953 85.8984 79.9565C90.3432 81.7741 92.6276 85.4462 92.6276 90.2482C92.6276 99.3528 74.8151 96.9778 74.8151 96.9778" stroke="#BEBCBC" stroke-width="10"/>
<path d="M37.125 101.017L62.2262 126.586" stroke="#BEBCBC" stroke-width="10"/>
<path d="M91.8307 93.8125C91.8307 93.8125 107.781 75.9991 112.414 76C116.768 76.0008 121.038 79.5625 122.31 83.125C123.582 86.6875 108.456 102.125 91.8307 113.208C83.583 118.707 78.8648 108.655 70.0599 113.208C66.0685 115.272 61.3516 120.729 61.3516 120.729" stroke="#BEBCBC" stroke-width="10"/>
<circle cx="54.2266" cy="54.2295" r="10.4375" stroke="#BEBCBC" stroke-width="10"/>
<circle cx="96.5859" cy="71.25" r="11.625" stroke="#BEBCBC" stroke-width="10"/>
<circle cx="85.8958" cy="34.4378" r="9.64583" stroke="#BEBCBC" stroke-width="10"/>
</svg>
