<svg width="152" height="152" viewBox="0 0 152 152" fill="none" xmlns="http://www.w3.org/2000/svg">
<circle cx="76" cy="76" r="71" stroke="#BEBCBC" stroke-width="10"/>
<path d="M54.9375 69.25L58.473 65.7145L54.8 62.0414L51.2697 65.8519L54.9375 69.25ZM77.5 91.8125L73.9645 95.348L77.599 98.9826L81.1318 95.2491L77.5 91.8125ZM117.331 54.8619C117.255 52.1016 114.956 49.9257 112.195 50.0019L67.2124 51.2445C64.4521 51.3208 62.2761 53.6203 62.3524 56.3807C62.4287 59.1411 64.7282 61.317 67.4886 61.2407L107.473 60.1362L108.578 100.121C108.654 102.881 110.954 105.057 113.714 104.981C116.474 104.905 118.65 102.605 118.574 99.8448L117.331 54.8619ZM30 96.1667L33.6678 99.5648L58.6053 72.6481L54.9375 69.25L51.2697 65.8519L26.3322 92.7686L30 96.1667ZM54.9375 69.25L51.402 72.7855L73.9645 95.348L77.5 91.8125L81.0355 88.277L58.473 65.7145L54.9375 69.25ZM77.5 91.8125L81.1318 95.2491L115.965 58.4366L112.333 55L108.702 51.5634L73.8682 88.3759L77.5 91.8125Z" fill="#BEBCBC"/>
</svg>
